<?xml version="1.0" encoding="UTF-8"?>
<svg id="Layer_2" data-name="Layer 2" xmlns="http://www.w3.org/2000/svg" viewBox="0 0 262.12 266.96">
  <defs>
    <style>
      .cls-1 {
        fill: #fc5557;
      }

      .cls-1, .cls-2, .cls-3, .cls-4, .cls-5, .cls-6, .cls-7, .cls-8, .cls-9, .cls-10, .cls-11, .cls-12, .cls-13, .cls-14, .cls-15, .cls-16, .cls-17, .cls-18, .cls-19, .cls-20, .cls-21, .cls-22, .cls-23, .cls-24, .cls-25, .cls-26, .cls-27 {
        fill-rule: evenodd;
      }

      .cls-2 {
        fill: #5f3a16;
      }

      .cls-3 {
        fill: #010101;
      }

      .cls-4 {
        fill: #c4d3cc;
      }

      .cls-5 {
        fill: #3b4641;
      }

      .cls-28 {
        stroke: #231f20;
      }

      .cls-28, .cls-29 {
        fill: none;
        stroke-miterlimit: 2.61;
        stroke-width: .18px;
      }

      .cls-6 {
        fill: #986333;
      }

      .cls-7 {
        fill: #dc230b;
      }

      .cls-8 {
        fill: #7d918c;
      }

      .cls-9 {
        fill: #fff;
      }

      .cls-10 {
        fill: #258dc6;
      }

      .cls-11 {
        fill: #d24b51;
      }

      .cls-12 {
        fill: #090a09;
      }

      .cls-13 {
        fill: #9ba0a2;
      }

      .cls-14 {
        fill: #95595f;
      }

      .cls-15 {
        fill: #040404;
      }

      .cls-16 {
        fill: #764e2a;
      }

      .cls-17 {
        fill: #b5c3bb;
      }

      .cls-18 {
        fill: #174b93;
      }

      .cls-19 {
        fill: #62736c;
      }

      .cls-29 {
        stroke: #000002;
      }

      .cls-20 {
        fill: #c4a76d;
      }

      .cls-21 {
        fill: #2a231c;
      }

      .cls-22 {
        fill: #54625c;
      }

      .cls-23 {
        fill: #aa703a;
      }

      .cls-24 {
        fill: #f52d19;
      }

      .cls-26 {
        fill: #8f2514;
      }

      .cls-27 {
        fill: #08439c;
      }
    </style>
  </defs>
  <g id="Layer_1-2" data-name="Layer 1">
    <g>
      <path class="cls-25" d="M163.1,176.6s.28-2.5.84-8.66c0,0,4.4-1.72,5,3.43.6,5.16-5.84,5.23-5.84,5.23"/>
      <path class="cls-27" d="M120.77,235.84c.49.31-5.49-7.88-5.49-7.88l1.95-28.06-17.17-33.37c-4.3-8.35-9.55-8.85-8.81-8.89.75-.04-.81,38.7-.81,38.7,0,0,.63,9.58.07,9.5-.56-.09-1.15,4.62-1.15,4.62l1.5,2.11-1.33,12.14-3.82,4.8.51,1.5s-1.67,2.51-.84,2.71c.83.19.44,3.16.44,3.16l1.32,1.6,2.44,1.64s2.76.87,2.9.37c.13-.48,3.18-4.02,3.18-4.02l22.53,8.43,4.95-2.96s-2.35-6.07-2.37-6.08"/>
      <rect x="79.36" y="171.56" width="7.89" height="38.19"/>
      <path class="cls-10" d="M159.16,162.32c-1.38-.1-4.08-40.38-4.58-41.16-.49-.79-14.46-23.16-14.46-23.16l-12.98,2.21-13.75-5.31-4.54-6.36-8.42,13.74-4.64,25.49-3.32,7.86s1.57,14.05.45,13.71c-1.13-.35-3.18,4.94-3.18,4.94l1.5,3.35s8.1,4.54,8.38,3.89c.28-.65,24.73,9.2,24.73,9.2l19.77-3.51,11.48-1.32,3.56-3.58Z"/>
      <path class="cls-28" d="M159.16,162.32c-1.38-.1-4.08-40.38-4.58-41.16-.49-.79-14.46-23.16-14.46-23.16l-12.98,2.21-13.75-5.31-4.54-6.36-8.42,13.74-4.64,25.49-3.32,7.86s1.57,14.05.45,13.71c-1.13-.35-3.18,4.94-3.18,4.94l1.5,3.35s8.1,4.54,8.38,3.89c.28-.65,24.73,9.2,24.73,9.2l19.77-3.51,11.48-1.32,3.56-3.58Z"/>
      <path class="cls-27" d="M91.24,157.64c2.96,4.51,11.88,15.76,18.04,28.71,6.21,13.07,9.71,27.94-.19,39.95-2.01,2.45,13.38,9.58,11.16,11.54,2.64,1.93,12.92-2.28,15.28-3.38,3.56-1.69,6.47-3.65,10.87-3.68,1.01-.02,1.41-1.18,2.02,0-.22.3-.09.24-.54.4-.18.08-.54.08-.76.11-.51.03,1.3.99.76,1.04.63.3,2.8,1.48,3.27,1.45.75-.03,1.85-1.61,1.78-2.68-.1-2.18-1.47-3.33-5.66-4.62.96-.78,1.44.54,2.58.64,1.35-1.82.87-4.8-.6-6.23-2.55-2.49-3.77-1.58-4.68-2.38.2-1.59,1.45-.08,2.84.19-1.4-10.38,4.02-18.44,5.73-28.95.24-1.37.47-2.74.69-4.1.44,0,.86-.03,1.3-.06-.01-.99.43-3.73.62-4.64.28-1.34.2-3.19.42-4.8-.29.21-.59.4-.91.59-1.51-1.21.14-5.88.31-7.75.74-9.18,7.14-6.52-20.69-1.69-5.09.88-11.55.32-17.92-.89-6.35-1.21-12.65-3.11-17.38-4.88-5.79-2.17-8.52-4.86-8.38-3.89"/>
      <path class="cls-12" d="M165.68,73.32c-.45.43-.2.21-.79.75-1.67,1.55-3.74,3.38-5.16,4.16-.89-.59-2.11-2.01-4.08-1.42-.79.24-1.31.92-1.72,1.34-1.48,1.61-3.63.08-5.81,2.82-1.26,1.59-1.03,2.85-1.81,4.21-.41.14-2.66.78-3.03.81-1.6.11-1.68-2.41-5.53-1.9-1.48.19-1.81.91-2.65.13-23.88,3.01-21.95-9.31-30.29-5.34-.17,3.19-.34,6.39-.55,9.58-1.18-.03-2.36-.06-3.54-.08-.3.57-.59,1.1-.89,1.64-1.26.03-1.64.14-2.81-.19-1.72-.48-3.44-.05-4.44,1.39-.51.73-.43,1-.73,1.69-.72,1.74-5.04.46-8.68,6.28-1.64,2.63-1.36,4.37-1.81,5.37-1.81,2.93-3.61,5.85-5.42,8.75-1,1.88-.17,1.07-1.95,1.69-1.2.4-.69,1.29-1.26,2.15-.27.43-1.42,1.39-2.02,1.58-1.13.35-1.47.59-1.97,1.42-1.31,2.22.42,3.89,1.36,4.85-18.77,40.26,29.58,30.85,15.78,53,3.6-6.57,1.68-16.34-3.53-19.03-.5-.46-.04-.88-.54-1.56.07-4.83-7.22-12.17-6.17-16.68,1.34-5.53,10.19-3.58,11.28-7.45,1.62-.13,2.89-.48,3.64-1.76,1.43-2.5-.83-2.58.84-3.92,1,1.26.91,1.77.91,3.76-.01,1.42.13,2.84.18,4.26.99,16.45-2.39,14.44-2.73,18.65-.09,1.07.13,1.1.18,1.93.09,1.23-.54,4.42-.59,6.06-.07,1.78.17,1.8-.19,3.71-.96,5.1-.36,11.89-.36,17.34-.48,4.08.93,7.89,1.64,13.02.78,5.17-1.38,12.8-1.09,14.11.37,1.78.68.75.49,3.03-.09,1.21-.19,2.44-.24,3.68-.12,2.57-.14,4.91-.08,7.54-1.35.54-2.07,1.42-2.86,2.36-1.32,1.61-1.19,2.07-.45,3.94-3.16,2.58-2.18,6.82,2.16,9.66-1.4,4.05-9.86,2.28-11.33,13.63-2.77.48-3.03,1.42-2.84,4.42.16,2.82.87,3.87,2.65,4.97,1.73,1.07,3.1,1.58,5.23,2.09,1.59.38,5.06,1.16,6.59.83.8-.11,1.82.32,3.02.35,1.25,0,2.09-.32,3.1-.32,1.68.43,6.8-.86,8.49-1.42,8.2-2.66,8.65-7.33,11.21-8.62,1.22-.62,2.46-.7,3.58-1.47.61-.43.83-.54,1.36-1.16.82-.94.31-1.02.75-1.63,1.28.45,3.23.8,4.64,1.07,3.28.65,1.91.62,4.32-.45.29.51.05.22.18.59.03.05.05.11.07.16.09.18.17.35.23.51,9.88,1.36,19.33,4.02,29.65,3.81,8.07-.15,16.1-.45,14.73-9.44-.35-2.23-1.04-1.72-1.34-3.22-.36-1.77-.3-1.79-1.18-3.32-.89-.99-1.79-2.02-2.67-3.03-.44-.32-1.05-.77-1.55-1.13-.62-.43-1.25-.67-1.72-1.07-2.02-.67-3.66-1.58-5.95-2.17-2.07-.54-5.36-.57-6.81-.99-.17-.72,1.6-1.34,1.27-4-.28-2.12-1.72-1.96-3.25-2.74,1.41-2.42,1.14-5.13-1.31-7.3-1.11-.97-1.08-.7-.96-2.42.97-13.13,1.68-10.74,4.75-20.9,1.09-3.65,1.3-6.92,1.97-10.95-.58.03-1.14.05-1.72.08-.24,1.36-.46,2.74-.68,4.07-1.68,10.36-7,18.3-5.62,28.53-1.37-.27-3.47-.72-3.65.86.9.78,2.6-.54,5.11,1.91,1.42,1.42,2.26,3.75.93,5.55-1.11-.11-1.89-.91-2.83-.13.98,1.39,5.74,1.9,5.85,4.05.05,1.05-1.01,2.6-1.76,2.63-.46.03-2.57-1.13-3.2-1.42.53-.05.91-.03,1.42-.05.21,0,.57-.02.75-.08.43-.16.29-.11.51-.4-.6-1.15-3.12-1.02-4.11-1.02-4.32.05-7.17,1.99-10.68,3.65-2.31,1.07-12.39,5.23-14.97,3.33,1.83-1.61.72-3.11-.18-5.1,1.26-1.32,1.25-2.07.83-4.54,2.05-.4,8.17-3.06,10.64-4.13,1.6-.7,2.82-.99,3.02-1.96-2.3-.75-11.68,4.13-13.81,5.18-.46-2.58.07-9.58.28-12.86.08-1.15.1-.54.61-1.5-.17-1.28-.79-1.85-.5-3.19.21-.91.6-1.8.88-2.76.64-3.03,1.3-6.06,1.98-9.13.17-.99.26-2.47.48-3.38.23-.91,1-1.2,1.45-2.14.71-1.45.38-1.91-.34-2.98,4.35.75,7.11-.75,9.72-3.75.54-.64.67-.41.78-1.34-1.05-.03-1.93,1.21-2.88,1.82-.69.46-2.4,1.1-2.86,1.53.07-.38.85-3.54,1.06-4.16.87-.67,2.49-.86,3.53-1.21-.6-.62-1.86.03-3.28.18.37-2.3.51-2.89.21-5.36,4.38-.59,7.93-.65,12.11-1.88,2.32-.7,8.53-3.17,9.44-4.59-.67.06-3.27,1.56-4.37,1.96-6.28,2.33-13.16,3.27-20.01,3.27s-13.72-1.02-20.05-2.63c.92-2.12.05-4.7.01-7.19,1.51.24,3.66.99,5.26,1.39,5.95,1.5,11.63,2.34,17.27,2.31,5.63-.03,11.29-.94,17.23-3.01,1.18-.4,4.42-1.26,4.45-2.12-3.43.91-6.38,1.98-10.13,2.63-7.43,1.32-16.27,1.55-23.7.02-3.23-.81-6.45-1.61-9.67-2.41-.83-.32-.37-.08-.67-.43-1.79-.43-3.59-.89-5.38-1.34-5.02-.72-9.53-4.56-10.75-4.7-.52,1.1,2.8,3.22,4.13,3.86,2.12,1.02,4.01,1.42,6.29,2.2.35,1.64-.5,2.68.34,7.03-3.04-.97-7.58-4.02-10.38-4.43.6,2.23,7.82,4.8,10.5,5.98,1.51.67,1.27,2.39,3.65,1.72,1.08-.29,6.31,1.18,8.52,1.56,3.31.54,6.58.7,9.95.86-.1,1.69-.22,3.36-.33,5.02-.77.24-1.47-.05-2.24-.35-.74-.3-1.39-.83-2.11-.94.61,1.31,2.66,1.45,4.07,2.15-.33,1.47-.64,2.95-.97,4.43-1.71-1.13-5.12-5.12-9.44-6.68-1.01-.35-3.15-1.32-3.93-1.02.03.27.1.33.68.67,1.16.59,2.29,1.15,3.43,1.72,3.18,1.5,5.68,3.6,8.3,5.74,1.45,1.18,1.99,2.93.76,4.64-.75,1.04-.8.88-.87,2.09-.02.78-.39,1.93-.6,2.74-.51,1.88-.95,3.65-1.38,5.5-.59,2.6-2.14,6.68-1.96,8.16.11.86.35.94.41,1.37.1.56-.18.53-.46,1.21-.12,1.45.97-1.15.08,4.05-.27,1.61-.8,8.05-.5,9.47.4,1.85.8,2.63.59,4.85-.74-1.07-3.08-2.68-4.96-3.19-.41-.11-.8-.27-1.16-.38-1.05-.27-.89-.03-1.09.16,1.86.65,9,4.7,7.28,8.46-.92-.38-1.25-1-2.38-1.05.11.88.09.64.65,1.13,1.05.91,2.01,1.8,2.5,3.24.75,2.07-.77,3.84-1.94,4.4-.12-.51-.22-1.02-.34-1.56.77.46.41.54,1.32.56-.11-.86-.49-1.12-1.01-1.69-.47-.51-.88-.91-1.45-1.37-3.58-2.87-6.6-4.13-11.17-5.45-4.28-1.26-9.53-2.49-13.97-1.26-1.26.35-3.05.97-3.7,1.8.67,1.58-.75-1.18.3.41.5.77-.1-.35.25.4.53,1.15-.26.78,1.33,2.63-.3.59-.52.94-.88,1.42-1.98-1.93-5.21-4.62-1.6-8.24,1.8-1.8,2.04-.94,2.16-2.33-.81-.02-2.61.73-2.63.7-.77-1.02,1.06-2.63,1.69-3.14.79-.64,2.53-1.29,3.76-1.64,1.46-.38,2.95-.7,4.55-.83,1.01-.08,4.37.13,4.95-.16-.11-.41.5-.46-1.59-.92-3.19-.7-4.07-.29-7.04.03.29-1.18.25-3.03.62-4.48.33-1.26.21-3.08-.34-4.4-.01-.05-.04-.14-.08-.19-.14.21-.32.3-.35.94-.06,1.31.78,1.23.08,3.62-.27,1.02-1.09,3.78-.22,4.64-.85.27-1.71.54-2.58.81.24-3.78.46-6.63.46-10.52.5.35.55.51,1.08.43-.09-1.29-2.65-2.2-1.3-5.18,2.14-4.83,1.05-16.21.77-21.6-.23-4.93-.52-10.14-.54-15.05-.01-4.88.87-9.45.94-14.43.33-.27.46-.08.82-.59-.2-.13-.41-.29-.62-.46-.43-4.48,3.9-2.76,1.96-24.34-.04-.51-.16-1.31-.17-1.77-.01-.83-.09-.51.2-.86.37-.46-.13.03.59-.35.04-.03.12-.03.17-.07-1.78-.78-3.4-3.49-1.63-4.62.21,1.05-.81.86.28,1.88.35.32,1.38,1.02,2.07,1.23,18.03,5.82.47-.81,3.01-11.03,5.66,4.29,9-10.4,9.63-18.67,3.21,2.52,17.25,16.94,17.81,16.73.17-.07,10.1-11.75,11.82-14.4.09.59,7.56,5.04,9.99,16.74,1.83,3.12,4.05,8.43,5.06,11.99,3.61,12.72,3.79,26.17,2.17,39.85-.2,2.12-.39,4.21-.58,6.3,0,.91.11,1.32.64,1.72.33-.32.66-.64.97-.97.15-.94.08-1.47.17-2.36.1-.77.3-1.48.38-2.41,2.39-17.93,1.71-35.32-5.47-50.77-.6-1.23-1.09-2.33-1.75-3.43-.51-.86-.77-.64-.36-1.69,1.84-4.53.7-7.89-.29-11.89,1.73-.05,1.43,1.77,3.68,2.41.96.27,1.7.11,2.62-.21,1.1-.38,1.66-.22,2.86-.54,1.48-.4,2.94,1.15,5.08-.59,1.41-1.16,1.82-3.09,1.51-5.18.43-8.67.74-17.36.95-26.06"/>
      <path class="cls-25" d="M155.72,38.2s-4.15,12.88-3.05,16.15c1.12,3.27,2.3,7.97-1.98,12.64-2.23-1.93-4.48-3.86-6.72-5.79,0,0-5.73-3.65-22.26-1.1,0,0-3.74.11-2.86,3.97.88,3.86-1.99,11.51,13.41,14.7,15.31,3.22,15.77-8.69,15.77-8.69,0,0,1.45,10.3-1.62,17.38-3.09,7.08-10.17,7.27-10.17,7.27,0,0-.54-3.11,6.1-.43,5.02,2.55,3.14,7.38,5.21,10.52,2.04,3.16,2.89,7.21.7,10.51,2.15,3.49,6.26,16.1,6.26,16.1-.02,0,12.71-3.68,12.54-8.43-.19-4.72.58-9.93-2.15-26.78,0,0,5.78-36.12-9.18-58.04"/>
      <path class="cls-23" d="M101.75,240.21c-.84,2.04.11,3.14-.2,4.96-2.01.62-2.04-.48-3.14-1.04-.39,0-.09.29-1.3.13-.69-.11-1.16-.22-1.88-.27-1.49-.1-2.94-.1-4.42.05-2.44.27-4.92,1.02-6.75,2.1-6.57,3.78-5.56,8.02-6.43,10.97,2.23,1.1,12.28,2.23,15.25,2.01,3.47-.24,11.71-1.93,14.01-3.41,1.98-1.32,2.13-3.19,3.7-4.89,1.42-1.55,3.57-2.09,4.92-3.65,1.11-1.26,1.79-5.39.04-6.62-1.57-1.1-3.83-2.12-5.74-2.96-4.54-1.1-4.87-2.18-8.06,2.6"/>
      <path class="cls-23" d="M141.2,238.94c-4.36-1.68-4.14-3.73-8.56-2.39-3.44.89-.98,1.64-4.66,3.3-.99.46-2.3.62-3.51.4-1.22-.22-1.88-.86-2.81-1.29.72,2.31.17,3.81-1.37,5.26-.46.4-1.25.64-1.4.99,1.54.78,19.18,2.04,23,2.63,8.29,1.31,15.65,1.56,24.1.77,1.05-.1,4.78-.4,5.11-1.12.61-1.31-.92-4.13-1.65-5.07-3.65-4.56-13.9-7.68-19.07-6.9-7.56,1.13-5.87,3.79-9.18,3.41"/>
      <path class="cls-16" d="M113.92,96.7c.64.75,1.06,1.77,1.61,2.71.88,1.53,3.86,3.06,6.03,3.73,2.85.91,5.57.67,8.34-.4,1.08-.43,2.29-1.16,2.94-2.04,1.19-1.69.8-2.36-.05-3.6-.67-.94-1.34-1.77-2.08-2.68-.59-.73-.49-.54-1.68-.4-3.07.37-1.69-.78-2.99.46-.38.37-.05.29-.64.4-.73-2.01,2.62-1.69,3.97-1.83-.7-1.99-1.98-1.39-2.35-1.82-.71-.78-.84-4.4-.92-4.45-.61-.4-4.83-.4-6.05-.65-1.85-.35-3.58-.93-5.19-1.59-4.17-1.63-7.98-4.05-9.07-4.48.12,2.93.5,6.15-.46,8.81.54.45,1.76.99,2.43,1.42,1.11.94,2.23,1.85,3.33,2.76.63.83,1.23,1.72,2.32,1.85,1.48.18.51-.32,1.58.48-.34.27-.71.51-1.07.75-.04,0-.1.03-.15.05.07.19.11.35.16.51"/>
      <path class="cls-23" d="M130.27,252.84c1.69.43,4.03.59,5.77.92,7.28,1.31,10.18,2.12,18.16,2.55,6.92.35,20.38,1.02,18.19-7.54-12.63,2.71-18.57,2.82-31.51.46-3.79-.7-7.25-.7-11.04-1.08.17,1.58.29,3.14.44,4.69"/>
      <path class="cls-6" d="M75.76,257.32c.64-1.32.71.7.68-1.85-1.68.38-1.86.91-1.65,2.87.14,1.13.48,2.98,1.11,3.68,1.04,1.1,4.58,2.28,6.58,2.68,5.07,1.02,12.19.91,17.16-.19,5.75-1.26,8-2.79,11.2-7.03,3.19-4.32,7.01-1.82,7.22-6.2.08-1.56.16-2.74-.29-4.24-1.31,1.74-.38,1.61-3.61,3.51-1.8,1.07-2.57,1.96-3.56,3.81-.67,1.21-.49,1.16-1.44,2.09-.69.67-1.3,1.13-2.28,1.5-8.73,3.33-16.18,3.97-25.4,1.39-1.05-.29-1.94-.53-2.99-.88-.5-.16-.97-.32-1.45-.48-.42-.22-.84-.43-1.28-.68"/>
      <path class="cls-6" d="M119.78,251.13c1.76.29,4,1.15,5.97,1.15-.23-1.59-.48-3.17-.71-4.75-1.1-.3-4.69-1.18-5.62-1.13.12,1.58.25,3.17.36,4.73"/>
      <path class="cls-20" d="M131.26,18.13s5.62,1.88,8.79,4.32c0,0-6.43,9.04-6.93,14.52-.48,5.44.77,13.82,10.82,23.5,0,0,6.95,6.9,4.24,21.26-2.86,14.35-14.55,14.11-18.57,14.62-4,.54-10.62-2.07-13.41-7.59,0,0-6.66,2.49-8.59-.91-1.94-3.38-4.28-19.59-4.28-19.59,0,0,20.1-24.44,17.87-38.13-.92-2.12-1.82-4.24-2.74-6.36,4.27-1.88,8.52-3.76,12.79-5.64"/>
      <path class="cls-25" d="M130.16,95.84c-.2.03-.39.05-.57.08h-.18c-3.62.4-10.06-1.96-12.79-7.38-.06-.11-.11-.22-.18-.35-.12.06-.24.11-.37.14-.01.02-1.64.62-3.45.8-2.35.24-3.9-.26-4.61-1.5-1.75-3.09-3.9-17.41-4.18-19.24.81-1.02,5.38-6.76,9.69-13.84,6.35-10.5,9.1-18.73,8.14-24.5,0,0,0-.03-.01-.05-.85-1.99-1.71-4-2.57-6.01,4.07-1.77,8.14-3.57,12.21-5.37.91.32,5.35,1.93,8.14,3.94-1.21,1.74-6.3,9.39-6.75,14.38-.73,8.13,2.97,16.15,10.94,23.86.01,0,1.7,1.71,3.08,5.12,1.25,3.17,2.43,8.45,1.06,15.75-2.22,11.16-9.76,13.37-16.04,14.01-.3.02-.59.08-.87.11-.24,0-.47.03-.69.05M129.45,96.8h.2c.37-.05.78-.11,1.24-.13.29-.03.57-.06.88-.11,3.86-.4,14.2-1.47,16.87-14.78,1.42-7.51.18-12.98-1.12-16.26-1.44-3.54-3.19-5.31-3.26-5.37-7.8-7.51-11.4-15.29-10.69-23.16.47-5.28,6.77-14.19,6.84-14.3.1-.11.17-.21.25-.35-.1-.08-.22-.16-.34-.24-3.18-2.47-8.69-4.29-8.93-4.37-.05,0-.1-.03-.17-.06-4.42,1.96-8.9,3.92-13.35,5.88.97,2.26,1.93,4.48,2.89,6.71,2.11,13.34-17.57,37.49-17.77,37.73-.04.05-.08.11-.13.16,0,.08.02.13.03.18.09.67,2.37,16.31,4.33,19.75.88,1.56,2.76,2.22,5.44,1.93,1.44-.14,2.71-.51,3.32-.72,2.84,5.23,9.11,7.97,13.46,7.51"/>
      <path class="cls-16" d="M118.47,23.77s7.3,14.54,3.91,21.98c-3.4,7.4-5.85,10.92-19.42,22.64,0,0-14.65-25.57-13.75-31.09.91-5.51,1.55-16.48,29.26-13.52"/>
      <path class="cls-16" d="M140.66,22.18s-7.81,9.45-7.47,16.5c.32,7.03,1.33,13.87,20.44,31.67,0,0,4.88-22.81,2.09-32.14-2.85-9.34-15.06-16.02-15.06-16.02"/>
      <path class="cls-9" d="M116.39,40.83c.59,6.65-1.74,12.34-5.16,12.69-3.44.38-7.31-4.53-7.94-11.19-.63-6.68,2.28-12.56,5.74-12.94,3.44-.35,6.75,4.78,7.37,11.43"/>
      <path class="cls-25" d="M109.06,29.86c3.15-.32,6.29,4.72,6.87,11.03.58,6.28-1.61,11.89-4.74,12.21-3.02.32-6.86-4.24-7.46-10.82-.62-6.63,2.36-12.13,5.33-12.42M111.26,53.98c3.74-.37,6.2-6.17,5.57-13.2-.63-7-4.1-12.21-7.85-11.81-1.85.19-3.6,1.77-4.78,4.35-1.18,2.6-1.67,5.82-1.37,9.05.61,6.6,4.53,12.02,8.42,11.62"/>
      <path class="cls-10" d="M114.44,44.15c.38,4.3-.95,8.59-3.55,8.86-2.61.27-6.42-3.92-6.81-8.21-.39-4.32,1.96-8.29,4.57-8.56,2.62-.27,5.4,3.6,5.79,7.91"/>
      <path class="cls-25" d="M108.71,36.7c2.28-.24,4.92,3.46,5.28,7.49.41,4.4-1.01,8.16-3.14,8.37-2.29.24-5.93-3.76-6.3-7.81-.39-4.26,1.9-7.83,4.17-8.05M110.94,53.44c3.08-.32,4.33-5.05,3.95-9.34-.42-4.65-3.41-8.58-6.28-8.29-3,.29-5.38,4.62-4.99,9.02.42,4.35,4.28,8.93,7.31,8.61"/>
      <path class="cls-25" d="M104.73,47.13c.24,2.47,1.96,4.32,3.85,4.14,1.89-.22,3.27-2.36,3.05-4.86-.24-2.46-1.96-4.32-3.86-4.13-1.89.19-3.24,2.37-3.03,4.86"/>
      <path class="cls-9" d="M109.72,43.73s-.29,2.31,1.17,2.84c0,0-.08-1.61-1.17-2.84"/>
      <path class="cls-25" d="M107.39,52.23s-3.18.86-3.89,1.48c-.69.59-2.25-1.26,2.51-2.39.46.32.93.61,1.38.91"/>
      <path class="cls-9" d="M134.91,42.41c.55,6.33,4.39,11.11,8.65,10.65,4.22-.43,7.27-5.9,6.72-12.24-.54-6.33-4.44-11.11-8.7-10.68-4.24.43-7.21,5.93-6.67,12.26"/>
      <path class="cls-25" d="M141.63,30.58c3.99-.4,7.68,4.21,8.21,10.28.5,6.09-2.35,11.38-6.33,11.78-3.96.4-7.62-4.22-8.14-10.28-.52-6.09,2.26-11.35,6.26-11.78M143.58,53.52c4.51-.46,7.71-6.17,7.17-12.75-.55-6.57-4.7-11.54-9.19-11.08-4.5.46-7.67,6.2-7.09,12.75.57,6.57,4.62,11.54,9.11,11.08"/>
      <path class="cls-10" d="M136.18,44.4c.35,4.13,3.11,7.22,6.21,6.9,3.07-.32,5.31-3.92,4.96-8.05-.33-4.13-3.12-7.22-6.24-6.89-3.08.32-5.31,3.92-4.93,8.05"/>
      <path class="cls-25" d="M141.16,36.8c2.83-.3,5.41,2.6,5.73,6.5.34,3.86-1.72,7.24-4.53,7.54-2.83.29-5.39-2.6-5.73-6.5-.33-3.86,1.7-7.24,4.54-7.54M142.41,51.72c3.34-.32,5.77-4.16,5.4-8.53-.37-4.35-3.38-7.62-6.71-7.27-3.34.32-5.75,4.16-5.38,8.53.38,4.35,3.37,7.62,6.69,7.27"/>
      <path class="cls-25" d="M136.9,46.49c.23,2.47,1.9,4.32,3.76,4.13,1.88-.19,3.21-2.36,3.02-4.83-.23-2.47-1.89-4.32-3.78-4.11-1.85.19-3.2,2.33-2.99,4.8"/>
      <path class="cls-9" d="M141.68,43s-.58.08-.54.64c.05.56.34,2.71,1.84,2.25,0,0-.05-1.66-1.3-2.89"/>
      <path class="cls-25" d="M145.23,53.14s.51.94.84.89c.34-.03,3.43.75,4.67,0,1.23-.73-3.37-.97-4.36-.86-.94.08-.55-.43-.55-.43-.2.13-.39.27-.6.4"/>
      <path class="cls-25" d="M89.21,37.15s6.5,0,7.18,4.16c.36,2.09,4.05,14.26,7.6,29.03,3.55,14.74,6.79,32.14,7,44.65.06,25.06-18.01,17.44-19.11,17.55-1.08.13-16.33-2.47-16.69-7.51-.38-5.05-2.66-5.93-4.04-5.8-1.38.16-2.87-1.1-2.51-6.79.37-5.72,2.12-30.81,3.25-37.16,1.12-6.33,6.53-6.9,6.65-11.99.09-5.12,3.45-18.68,10.67-26.14"/>
      <path class="cls-25" d="M131.18,50.03c-1.25.11-2.49.22-3.74.29,0,0-.84.06-.83-.48-.01-.53,1.46-.4,2.22-.53.8-.11,2,.11,2.64-.08.62-.16.55.89-.29.8"/>
      <path class="cls-25" d="M132.32,52.64c.04.24.08.45.11.67-1.97.13-3.97.27-5.95.38,0,0-.91-.24-.92-.92,0-.69.68-.8,1.71-.24,1.05.56,5.05.11,5.05.11"/>
      <path class="cls-25" d="M133.36,56.26s1.64.14,1.43.49c-.23.37-.32.56-4.36.64,0,0-3.7-.62-5.74-1.88-2.02-1.24,2.46-.3,3.11.03.67.32,5.02.81,5.56.72"/>
      <path class="cls-25" d="M136.62,57.33s.88.02,1.05.3c.17.27.26.78-1.65,1.04-1.9.24-9.7.7-10.99.3-1.25-.4-.82-1.02.71-1,1.53.03,6.42.51,10.88-.64"/>
      <path class="cls-25" d="M133.1,78.77s.09,2.42-1.49,4.56c0,0,7.97,8.69,12.35,7.41,0,0-4.85,6.12-18.58,5.1,0,0-7.07-1.77-9.34-7.59,0,0,5.38-3.81,7.39-4.45,2.01-.65,6.25-1.61,6.54-2.42.3-.8.71-1.9-.26-3.4,1.13.26,2.25.53,3.39.8"/>
      <path class="cls-20" d="M128.85,84.41s1.92,1.04,5.55,4.43c.72.75,1.44,1.5,2.16,2.25,0,0-4.4,4.67-11.03,3.14-6.64-1.53-7.12-5.45-7.12-5.45,2.34-1.42,4.69-2.87,7.05-4.32,0,0,2.09-.32,3.38-.06"/>
      <path class="cls-25" d="M157.88,41.61s-5.19-11.19-9.3-14.57c-4.12-3.36-1,.62-1,.62,0,0,4.87,4.43,9.05,14.08.42-.02.84-.08,1.25-.13"/>
      <path class="cls-25" d="M155.72,38.2s-4.15,12.88-3.05,16.15c1.12,3.27,2.3,7.97-1.98,12.64-2.23-1.93-4.48-3.86-6.72-5.79,0,0-5.73-3.65-22.26-1.1,0,0-3.74.11-2.86,3.97.88,3.86-1.99,11.51,13.41,14.7,15.31,3.22,15.77-8.69,15.77-8.69,0,0,1.45,10.3-1.62,17.38-3.09,7.08-10.17,7.27-10.17,7.27,0,0-.54-3.11,6.1-.43,7.24-7.19,7.9-32.33,15.44-19.78.85-11.25,8.47,6.65,8.31-.97-.24-11.43-3.22-24.98-10.37-35.37"/>
      <path class="cls-18" d="M126.58,181.71c1.18.08,2.85.46,3.91.02.84-1.23,1.01-3.69.82-5.52-1.51.05-3.01.11-4.5.13-.08,1.8-.16,3.6-.24,5.37"/>
      <path class="cls-18" d="M125.43,187.21c2.15.27,2.86.67,3.66-.77.48-.86,1.25-2.63,1.39-3.84-1.31-.13-2.64-.26-3.97-.4-.37.48-.85,4-1.09,5.02"/>
      <path class="cls-10" d="M142.68,103.28c6.52,1.16,11.38,2.98,24.07,10.06.44,0,.75-.03,1.15-.03.77-.03.75-.19.93.48-8.32,1.53-10.05,2.76-18.25,6.39-.34-7.86-4.39-13.47-7.9-16.91"/>
      <polygon class="cls-10" points="134.37 103.31 128.02 106.04 126.56 112.75 134.37 103.31"/>
      <polygon class="cls-10" points="112.38 100.56 120.34 103.72 123.57 111.48 112.38 100.56"/>
      <path class="cls-25" d="M100.36,197.22c11.3,4.89,25.4,4.62,37.25,2.14h.02s9-1.98,9-1.98c1.09-.11,2.22-.47,3.15-.95,2.4-1.21,4.06-3.31,5-5.8.74-1.95,1.14-4,1.17-6.08.02-1.01-.08-1.86-.21-2.82.03-.25.06-.5.12-.66h0c2.05-.47,3.48-.7,5.62-.38l-1.36-.1h.11c2.72.67,3.76-2.08,3.86-5.44l-.22-9.67-8.65,2.52c-5.95.18-11.92.29-17.88.34-3.16.03-6.33.04-9.49-.02-2.13-.03-4.4-.06-6.51-.29-3.61-.4-7.34-1.11-10.91-1.79-3.18-.6-6.36-1.24-9.54-1.89-1.07-.22-2.13-.44-3.2-.66-.43-.09-.92-.21-1.37-.29-1.13-.28-2.3-.64-3.42-.96-1.19-.33-2.38-.67-3.57-1.02-2.63-.99-5.8-.44-7,2.49-.48,1.15-.83,2.69-1.13,3.96-.08.26-.15.52-.19.78l-.97,4.04,2.6.3c.65.57,1.47.99,2.4,1.2.63.14,1.85.32,2.77.58-.25,1.85-.48,3.71-.72,5.56-.33,2.57-.66,5.15-.98,7.72l-.29,2.25,1.73,1.47c.97.82,2.16,1.62,3.29,2.18.07.03,9.33,3.22,9.49,3.26"/>
      <path class="cls-16" d="M150.59,185.11c-.09.27-.15,4.32-6.77,7.26-6.61,2.94-17.89,2.1-21.62,2.29-3.74.19-3.58-2.61-3.58-2.61-1.1-9.32,3.63-16.41,3.63-16.41,0,0,.95-.95,2.26-.34,1.31.61,7.5,1.3,10.58,1.05,3.07-.25,11.99-2.38,13.53-3.08,1.54-.7,1.64.46,1.64.46,1.28,2.47.41,11.1.32,11.38M155.68,172.19s-27.46.82-34.78.02c-7.3-.81-25.04-4.63-25.35-4.67-.3-.04-7.55-2.13-7.55-2.13,0,0-1.47-.63-1.77.11-.3.73-.98,3.57-.98,3.57,0,0-.93,3.43.22,3.69.98,1.7.56,3.84,1.78,14.73,0,0,5.87,3.48,7.7,3.29,0,0-1.78-2.57-1.48-4.88.3-2.31,2.62-16.99,2.62-16.99,0,0,12.47,3.15,18.55,3.12,0,0,.3,16.34-4.25,19.25-4.55,2.92-8.65,1.97-8.65,1.97,0,0,7.26,3.57,19.04,4.46,4.65,0,17.92-.59,25.26-4.49,3.82-.11,8.34-8.62,7.14-11.77.05-.38-1.68-3.69,1.77-4.47-11.92,6.08,24.25-6.96.73-4.79"/>
      <path class="cls-2" d="M123.6,178.4s.29-1.12,1.97-.46c1.67.64,13.05,1.78,21.47-1.5,0,0,1.54-.75,1.42.15-.11.9.24,8.32.41,9,.17.69-6.25,9.76-27.74,7.1-.99.5-.78-11.86,2.48-14.29"/>
      <path class="cls-2" d="M97.86,172.39s-.17-.64.87-.39c1.05.25,11.02,1.98,13.75,1.66,0,0-.68,13.49-3.94,15.2-3.26,1.71-4.97,2.97-9.36,1.84-4.38-1.12-2.93-6.17-2.93-6.17l1.61-12.14Z"/>
      <polygon class="cls-25" points="163.1 177.23 155.22 179.71 155.22 206.69 163.1 206.69 163.1 177.23"/>
      <polygon class="cls-9" points="91.35 169.56 91.35 167.46 91.95 167.46 91.95 167.16 90.25 167.16 90.25 167.46 90.86 167.46 90.86 169.56 91.35 169.56"/>
      <path class="cls-25" d="M101.04,156.5s3.42,3.06,3.07,8.49c-.34,5.43-.23,6.17-.23,6.17,0,0-3.47-.64-3.59-.01-.11.62-2.16-6.38-2.67-6.04-.51.34-1.54,3.81-1.54,3.81,0,0-1.48,3.99-3.14,3.82-1.66-.17-.63,8.72-1.59,7.09,0,0-2.4,2.37-5.01.11-2.62-2.26-2.96-4.75-2.96-4.75l-20.91-4.41,13.33-5.61,3.3-1.59s4.96-5.6,8.72-7.47c3.76-1.87,11.68-.91,13.22.4"/>
      <path class="cls-13" d="M80.07,172.24s-.12-2.32-.74-3.34c0,0,.35-1.18-.68-1.18s-1.21-.68-1.95-.77c-.25-.03-7.13,2.66-7.68,2.9,0,0,10.2,2.35,11.05,2.4"/>
      <polygon class="cls-9" points="90.01 169.56 90.01 167.16 89.34 167.16 88.86 168.99 88.37 167.16 87.7 167.16 87.7 169.56 88.19 169.56 88.19 167.66 88.67 169.56 89.04 169.56 89.53 167.66 89.53 169.56 90.01 169.56"/>
      <path class="cls-20" d="M88.53,126.85l-6.49-4.61-9.4,2.76c-.36.51-1.75-.44-2.01-.03-6.62,10.21,1.07-6.67-3.34,5.62-2.35,6.52-4.42,15.96-.66,22.13,1.24,2.04,4.14,5.19,5.8,7.04l6.63,6.3c1.18-1.96,1.83-5.66,5.77-8.98l1.11-1.21c-.97-.57-10.3-9.3-6.17-14.46,2.68-3.36,7.06-8.07,7.76-12.63.19-1.22.07-1.61,1-1.92"/>
      <path class="cls-3" d="M88.53,126.85c-.93.3-.81.7-1,1.92-.69,4.56-5.08,9.27-7.76,12.63-4.12,5.17,5.2,13.89,6.17,14.46l-1.11,1.21c-3.94,3.31-4.6,7.02-5.78,8.98l-6.63-6.31c-1.66-1.84-4.56-5-5.8-7.04-3.75-6.17-1.68-15.61.66-22.13,4.42-12.28,10.36-22.16,16.98-32.38.26-.4.32-.52.67-1.03l.71-.86c.33-.55.74-1.07.89-1.72-.51-.9-.54-.81-1.33-1.31-1.41,2.49-3.58,5.26-5.46,8.49l-3.91,6.39c-.48.86-.91,1.46-1.36,2.32l-6.88,14.15c-2.13,5.03-4.4,11.56-4.81,17.74v3.68c.2,2.78.89,5.4,2.28,7.7,2.28,3.77,5.89,6.93,7.88,9.31.6.72,1.15,1.19,1.8,1.8.77.72,3,2.86,3.8,3.11,4.77,8.26,9.48-20.75,9.53-1.49.68-1.35-.98,3.28-.37,1.85,5.21-12.21,7.19-13.43,4.71-13.82-2.3-.36-2.98.13-4.77.62-.47-.82-1.57-1.72-2.61-2.95-1.63-1.95-3.94-3.95-4.45-6.81-.42-2.3.82-2.92,1.67-3.93,2.68-3.16,6.56-8.16,7.12-12.59.18-1.42.03-1.76-.85-2"/>
      <path class="cls-25" d="M64.68,131.07l1.48,2.19,1.49-2.19c.4-.58.86-1.21,1-1.89,3.21.32,12.82,4.39,15.57,7.17-.22.4-.37.83-.52,1.3l-.87,2.8,2.89-.49c2.88-.49,4.5-2.74,3.8-5.43l.22-.3c.69-.97,1.34-1.99,1.33-3.23-.01-1.7-1.35-3.1-2.44-4.27-1.35-1.45-2.8-2.79-4.5-3.83-4.35-2.65-8.26-2.23-13.15-1.67-5.19.94-9.91,4.47-6.29,9.83"/>
      <path class="cls-10" d="M69.93,122.7c1.03.67,3.2.84,4.03,1.81-1.83.29-4.12-1.58-5.69-.41,1.14.87,3.78.76,4.52,2.07-1,.5-3.76-1.02-5.86-.59-2.49.52-1.74,3.01-.76,4.47,1.42-2.07.4-.76.12-2.22.93-.79,2.79-.44,3.88-.26,2.51.41,15.36,6.98,16.29,8.71-.39.7-.57.44-1.03,1.9,1.89-.32,3.07-1.66,2.17-3.77-.69-1.63-2.36-2.51-2.73-3.79,1.29.47,2.47,1.81,3.42,2.57,1.5-2.1,1.41-2.72-.96-5.23-4.12-4.43-7.8-6.37-17.38-5.26"/>
      <path class="cls-25" d="M120.7,116.94c-1.96,0-3.55,1.56-3.55,3.5s1.59,3.5,3.55,3.5,3.55-1.57,3.55-3.5-1.59-3.5-3.55-3.5"/>
      <path class="cls-25" d="M119.2,130.64c-1.96,0-3.55,1.57-3.55,3.5s1.59,3.5,3.55,3.5,3.55-1.57,3.55-3.5-1.59-3.5-3.55-3.5"/>
      <path class="cls-25" d="M118.5,141.44c-1.96,0-3.55,1.57-3.55,3.5,0,1.93,1.59,3.51,3.55,3.51,1.96,0,3.55-1.57,3.55-3.51,0-1.93-1.59-3.5-3.55-3.5"/>
      <path class="cls-25" d="M118.31,156.94c-1.96,0-3.55,1.57-3.55,3.5s1.59,3.5,3.54,3.5,3.55-1.56,3.55-3.5c0-1.93-1.59-3.5-3.55-3.5"/>
      <path class="cls-25" d="M123.21,167.36l-.61-4.62s.5-2.7,1-3.8c.5-1.1,1.6-1.3,1-2.7-.6-1.4-1.7-3.8-1.7-4.9s2.3-3.9,2.3-6.1v-4.7c0-1.2.6-2.6.5-4.11-.1-1.5-1.19-5.21-1.25-6.8-.05-1.59.35-2.49.75-3.99.4-1.5,1.84-.18.8-3.2-1.04-3.02-.2-4.5-.3-5.3-.1-.8-.26-2.91-.26-2.91l.8.57.26,1.04s0,1.35-.15,1.85c-.15.5-.4.15-.15,1.7.25,1.55.35,1.35.4,1.9.05.55.45.75.45,2s.45.95-.15,1.9c-.6.95-.6,1.05-.85,1.55-.25.5-.2.15-.3,1.3-.1,1.15-.15,1.15-.15,2.05s0,.95.05,1.4c.05.45.25,1.1.45,1.9.2.8.25.45.35,1.4.1.95.3,1.4.25,1.7-.05.3-.05,1.15-.05,1.75,0,.6,0,1.1,0,1.1,0,0,.25-.4-.15.55-.4.95.1,2.5.1,2.75,0,.25-.35,1.8-.55,2.8-.2,1-.2,1.25-.45,1.85-.25.6-.6,1.4-.85,2.2-.25.8-.4.75-.4,1.85,0,1.1.3,2.85.3,3.15,0,.3.7,1.6.9,2.2.2.6,0,1-.1,1.35-.1.36-.9,1.31-1.2,1.85-.3.55-.75,1.65-.75,2s-.15.8-.15,1.55c0,.75.3,2.1.45,2.55.15.45.81,2.26.81,2.26l-1.4-.89Z"/>
      <path class="cls-29" d="M123.21,167.36l-.61-4.62s.5-2.7,1-3.8c.5-1.1,1.6-1.3,1-2.7-.6-1.4-1.7-3.8-1.7-4.9s2.3-3.9,2.3-6.1v-4.7c0-1.2.6-2.6.5-4.11-.1-1.5-1.25-5.21-1.25-6.8s.35-2.49.75-3.99c.4-1.5,1.84-.18.8-3.2-1.04-3.02-.2-4.5-.3-5.3-.1-.8-.26-2.91-.26-2.91l.8.57.26,1.04s0,1.35-.15,1.85c-.15.5-.4.15-.15,1.7.25,1.55.4,1.35.4,1.9s.45.75.45,2,.45.95-.15,1.9c-.6.95-.6,1.05-.85,1.55-.25.5-.2.15-.3,1.3-.1,1.15-.15,1.15-.15,2.05s.05.95.05,1.4.25,1.1.45,1.9c.2.8.25.45.35,1.4.1.95.25,1.4.25,1.7s-.05,1.15-.05,1.75v1.1s.25-.4-.15.55c-.4.95.1,2.5.1,2.75s-.35,1.8-.55,2.8c-.2,1-.2,1.25-.45,1.85-.25.6-.6,1.4-.85,2.2-.25.8-.4.75-.4,1.85s.3,2.85.3,3.15.7,1.6.9,2.2c.2.6,0,1-.1,1.35-.1.36-.9,1.31-1.2,1.85-.3.55-.75,1.65-.75,2s-.15.8-.15,1.55.3,2.1.45,2.55c.15.45.81,2.26.81,2.26l-1.4-.89Z"/>
      <path class="cls-15" d="M104.29,173.09c-.2.1-.15.14-.17-.08-.17.02-.08.04-.3,0-.04,0-.2-.05-.27-.08-.34-.1-.32-.1-.62-.22l-1.09-.7c-.06-.07-.3-.38-.34-.42-.32-.3.15-.19-.25-.12-.14.71-.33,2.25-.98,2.78-.04.3.04.09-.12.45-.11.26.03-.03-.14.2-.2.2-.4.41-.59.6-1.08,1.08.03,2.12-3.01,4.04-2.81,1.78-6.12,1.2-9.12.38-1.71-.46-4.34-1.84-5.86-3-3.08-2.34-3.4-6.72-2.66-10.15,1.22-5.58,3.43-10.82,8.78-13.92,2.14-1.24,3.28-1.56,5.35-1.73,2.16-.18,3.18.77,4.82,2.17.61.52.58.25,1.2.48.95.35,3.58,2.16,5.95,3.06,2.44.93,5.91,1.71,5.63,5.09-.21,2.48-1.32,2.72-2.05,4.85-.32.93-.94,4.05-1.68,4.77-.12.43-.53.81-.93,1.05l-1.04.38s-.07,0-.1,0l-.4.09Z"/>
      <path class="cls-20" d="M99.28,170.53c.26-.15.16-.2.3,0l1.12-.54c-.05-.58-.17-1.11-.26-1.7-.11-.71.13-1.13,0-1.66-1.22-.07-1.34.04-2.57-.36l-.87-.26c-1.93-.88-4.48-2.2-6.01-4.27,1.92.66,3.73,2.29,5.7,2.99l1.88.78c.3.08.64.14.94.21.5.12.58.06,1.1-.02.69-1.06.9-2.5,2.63-4.26-.55-.75-1.73-2.69-2.43-2.97-.56-1.2-4.7-5.76-6.62-6.2-3.99-.92-9.7,3.39-11.86,7.4-.75,1.39-1.63,3.44-1.94,4.77-.2.88-.51,1.6-.64,2.43-.38,2.41-.66,5.61,1,7.96.76,1.08,3.71,3.16,4.61,3.21,1.22.74,1.8.8,3.11,1.2.35.1.33.14.74.22l2.49.28c2.31,0,5.29-.9,6.01-2.91.06-.18.05-.18.07-.31l-4.6.5c-1.73.02-3.75-1.29-4.41-1.39-.23-.25-1.21-.83-1.62-1.14-.53-.41-1.44-1.4-1.67-1.57,0-.04-.05-.15-.02-.13.02.02.01-.07.01-.11,0-.03.06.01.09.05.04.03.07.03.09.04l2.75,1.45c1.59,1.03,3.72,1.77,5.25,1.73.91-.03,1.81-.15,2.76-.28,1.57-.21,1.51-.38,2.81-1.29.02-.3-.06,0,.07-.31l1-1.84h-.07c.06-.22.08-.33.13-.53,0-.03.01-.07.02-.1l.07-.29c-.4-.28.08-.11-.34-.1-.22,0-.1.01-.32.08-.42.14-.06.18-.56.14-.23-.17-.16-.28-.13.08h-.22c.02-.46-.13-.2-.72-.3-.49-.09-.41-.25-.8-.45l1.87-.24.02.05Z"/>
      <path class="cls-20" d="M105.66,171.51c.6-.59.89-1.53,1.15-2.25.15-.42.58-2.01.54-2.38.35-.42.21-.83.94-1.97.43-.68.88-1.33,1.12-1.97.58-1.64-.18-3.62-2.56-4.36-3.68-1.14-5.53-2.69-6.83-3.19-.21-.08-.16-.07-.33-.09l1.71,2.03,2.63,3.29c.52-.32.88-.73,1.4-.85-.69,1.5-4.21,4.01-4.09,8.07.03.93.22,2.04.83,2.98l.68,1,.25.12.11-.05c.15.07.29.15.49.19l.46.06.66-.12.84-.5Z"/>
      <path class="cls-25" d="M92.62,169.49c.83.52,1.42.57,2.37.85.5.14.69.29,1.23.31.37,0,.76-.03,1.16.07.39.21.31.37.8.46.59.1.74-.16.72.29-1.22.42-3.01.2-4.16-.09l-1.11-.34s-.07-.02-.08-.03l-.17-.04c-.58-.3-1.23-.5-1.85-.81-1.59-.79-3.78-2.43-4.87-4.01,1.95.8,3.99,2.72,5.96,3.34M99.25,171.39l-.13.08c-.04-.35-.1-.24.13-.08"/>
      <polygon class="cls-9" points="157.29 183.94 157.29 181.84 156.67 181.84 156.67 181.53 158.38 181.53 158.38 181.84 157.77 181.84 157.77 183.94 157.29 183.94"/>
      <polygon class="cls-9" points="158.62 183.94 158.62 181.53 159.29 181.53 159.77 183.37 160.26 181.53 160.93 181.53 160.93 183.94 160.44 183.94 160.44 182.04 159.96 183.94 159.59 183.94 159.1 182.04 159.1 183.94 158.62 183.94"/>
      <path class="cls-3" d="M154.8,126.85c.93.3.81.7,1,1.92.7,4.56,5.08,9.27,7.76,12.63,4.12,5.17-5.2,13.89-6.17,14.46l1.12,1.21c3.93,3.31,4.6,7.02,5.77,8.98l6.62-6.31c1.66-1.84,4.56-5,5.8-7.04,3.75-6.17,1.68-15.61-.66-22.13-2.26-6.29-13.99-16.92-7.86-17.34l1.95-.13,5.61,11.54c2.13,5.03,4.41,11.56,4.81,17.74v3.68c-.2,2.78-.89,5.4-2.28,7.7-2.28,3.77-5.89,6.93-7.88,9.31-.59.72-1.15,1.19-1.8,1.8-.76.72-3.01,2.86-3.8,3.11-4.77,8.26-9.48-20.75-9.53-1.49-.68-1.35.98,3.28.37,1.85-5.21-12.21-7.19-13.43-4.71-13.82,2.3-.36,2.98.13,4.77.62.46-.82,1.56-1.72,2.6-2.95,1.64-1.95,3.94-3.95,4.45-6.81.41-2.3-.82-2.92-1.68-3.93-2.68-3.16-6.56-8.16-7.12-12.59-.18-1.42-.03-1.76.85-2"/>
      <path class="cls-15" d="M139.04,173.09c.2.1.15.14.16-.08.17.02.09.04.3,0,.04,0,.19-.05.27-.08.34-.1.32-.1.62-.22l1.09-.7c.06-.07.3-.38.35-.42.32-.3-.15-.19.24-.12.14.71.33,2.25.97,2.78.05.3-.03.09.12.45.11.26-.03-.03.14.2.2.2.4.41.6.6,1.08,1.08-.04,2.12,3,4.04,2.81,1.78,6.12,1.2,9.12.38,1.71-.46,4.34-1.84,5.87-3,3.07-2.34,3.4-6.72,2.66-10.15-1.21-5.58-3.42-10.82-8.77-13.92-2.14-1.24-3.29-1.56-5.35-1.73-2.16-.18-3.17.77-4.82,2.17-.61.52-.58.25-1.2.48-.95.35-3.58,2.16-5.95,3.06-2.44.93-5.91,1.71-5.62,5.09.21,2.48,1.31,2.72,2.04,4.85.32.93.94,4.05,1.68,4.77.12.43.54.81.94,1.05l1.04.38s.07,0,.1,0l.4.09Z"/>
      <path class="cls-20" d="M144.05,170.53c-.25-.15-.16-.2-.31,0l-1.12-.54c.05-.58.16-1.11.26-1.7.11-.71-.13-1.13.01-1.66,1.22-.07,1.33.04,2.56-.36l.87-.26c1.93-.88,4.48-2.2,6.01-4.27-1.92.66-3.73,2.29-5.7,2.99l-1.88.78c-.3.08-.64.14-.94.21-.5.12-.58.06-1.09-.02-.69-1.06-.91-2.5-2.64-4.26.55-.75,1.74-2.69,2.43-2.97.56-1.2,4.7-5.76,6.62-6.2,3.98-.92,9.69,3.39,11.86,7.4.75,1.39,1.63,3.44,1.94,4.77.2.88.51,1.6.64,2.43.39,2.41.67,5.61-1,7.96-.77,1.08-3.71,3.16-4.61,3.21-1.22.74-1.81.8-3.11,1.2-.35.1-.34.14-.75.22l-2.49.28c-2.31,0-5.29-.9-6.01-2.91-.06-.18-.05-.18-.07-.31l4.59.5c1.73.02,3.75-1.29,4.41-1.39.24-.25,1.21-.83,1.62-1.14.53-.41,1.44-1.4,1.67-1.57,0-.04.05-.15.02-.13-.02.02-.01-.07-.01-.11,0-.03-.06.01-.1.05-.03.03-.07.03-.09.04l-2.75,1.45c-1.58,1.03-3.72,1.77-5.24,1.73-.91-.03-1.82-.15-2.76-.28-1.57-.21-1.51-.38-2.81-1.29-.02-.3.06,0-.07-.31l-1-1.84h.07c-.06-.22-.08-.33-.13-.53,0-.03-.01-.07-.03-.1l-.07-.29c.4-.28-.08-.11.34-.1.22,0,.1.01.32.08.41.14.06.18.55.14.23-.17.17-.28.13.08h.21c-.02-.46.14-.2.72-.3.49-.09.42-.25.8-.45l-1.87-.24-.02.05Z"/>
      <path class="cls-20" d="M137.67,171.51c-.6-.59-.89-1.53-1.15-2.25-.15-.42-.58-2.01-.53-2.38-.36-.42-.21-.83-.94-1.97-.43-.68-.89-1.33-1.12-1.97-.59-1.64.18-3.62,2.56-4.36,3.69-1.14,5.53-2.69,6.83-3.19.22-.08.16-.07.34-.09l-1.71,2.03-2.64,3.29c-.52-.32-.88-.73-1.4-.85.69,1.5,4.21,4.01,4.09,8.07-.02.93-.22,2.04-.83,2.98l-.68,1-.25.12-.11-.05c-.15.07-.29.15-.49.19l-.46.06-.66-.12-.84-.5Z"/>
      <path class="cls-25" d="M150.71,169.49c-.82.52-1.41.57-2.38.85-.49.14-.69.29-1.22.31-.37,0-.76-.03-1.16.07-.38.21-.3.37-.8.46-.58.1-.74-.16-.72.29,1.21.42,3,.2,4.16-.09l1.11-.34s.06-.02.08-.03l.17-.04c.58-.3,1.23-.5,1.85-.81,1.58-.79,3.78-2.43,4.87-4.01-1.95.8-3.99,2.72-5.97,3.34M144.08,171.39l.13.08c.04-.35.1-.24-.13-.08"/>
      <path class="cls-20" d="M154.8,126.85l6.49-4.61,6.46-3.58c.36.5,4.03-1.1,4.29-.71,6.62,10.21-.4.35,4.01,12.63,2.35,6.52,4.42,15.96.66,22.13-1.24,2.04-4.14,5.19-5.8,7.04l-6.63,6.3c-1.18-1.96-1.84-5.66-5.77-8.98l-1.12-1.21c.97-.57,10.29-9.3,6.17-14.46-2.69-3.36-7.07-8.07-7.76-12.63-.18-1.22-.06-1.61-1-1.92"/>
      <path class="cls-25" d="M175.57,122.93l-.99,2.67c-.43-1.66-2.17-4.44-2.91-4.7-3.22.21-13.2,4.04-16.04,6.72.05.09.71,3.09,1.04,4.02l-2.43-.58c-2.87-.59-4.4-2.89-3.61-5.55l-.2-.31c-.66-.99-1.27-2.04-1.22-3.27.07-1.7,1.46-3.05,2.59-4.18,1.4-1.39,2.9-2.69,4.63-3.66,4.44-2.49,8.34-1.94,13.21-1.2,5.16,1.13,9.74,4.82,5.93,10.04"/>
      <path class="cls-10" d="M170.62,114.38c-1.05.63-3.23.74-4.1,1.67,1.82.36,4.17-1.43,5.7-.21-1.17.83-3.8.62-4.59,1.92.98.53,3.79-.89,5.88-.38,2.47.61,1.64,3.07.6,4.5-1.34-2.12-.37-.77-.03-2.22-.9-.82-2.77-.54-3.86-.4-2.52.31-15.6,6.43-16.58,8.12.36.72.55.46.96,1.94-1.88-.39-3.01-1.77-2.04-3.85.74-1.61,2.45-2.43,2.87-3.7-1.3.42-2.53,1.72-3.51,2.45-1.43-2.15-1.32-2.77,1.14-5.19,4.27-4.28,8.02-6.09,17.56-4.64"/>
      <path class="cls-25" d="M119.31,34.84s1.14-1.43.4-1.59c-.73-.17-1.14-.2-1.68.73-.53.93-1.09,2.67.47,5.67,1.56,2.99,1.75,1.03.99-1.24-.76-2.26-1.18-2.53-.18-3.57"/>
      <path class="cls-13" d="M164.11,175.52c.29-.94.92-4.53.56-6.67,0,0,2.97-1.2,3.43,2.71.45,3.91-3.99,3.96-3.99,3.96"/>
      <path class="cls-23" d="M141.53,237.8c2.25-1.54,4.89-2.65,7.99-3.25-1.05-.77-.55-.52-1.89-.89-2.95.55-5.5,1.49-7.48,3.15.84.49.57.24,1.37.98"/>
      <path class="cls-23" d="M138.43,236.19c2.25-1.54,4.89-2.65,7.99-3.24-1.04-.77-.55-.52-1.88-.89-2.95.55-5.5,1.49-7.48,3.15.85.49.57.24,1.37.98"/>
      <path class="cls-23" d="M97.8,242.46c-2.69-.43-5.55-.31-8.61.47.62-1.14.27-.7,1.32-1.61,2.91-.76,5.61-.99,8.11-.33-.55.81-.42.46-.83,1.47"/>
      <path class="cls-23" d="M99.92,239.69c-2.69-.44-5.55-.32-8.61.47.62-1.14.27-.7,1.33-1.61,2.91-.76,5.6-.99,8.11-.33-.55.8-.42.46-.82,1.47"/>
      <path class="cls-23" d="M101.88,237.43c-2.67-.54-5.54-.54-8.62.11.67-1.12.3-.7,1.39-1.56,2.94-.63,5.64-.76,8.12,0-.59.78-.44.44-.89,1.44"/>
      <path class="cls-24" d="M105.26,127.95c0,.17.01.14.06.28-.22.11-.14.11-.34.13-.23-.02-.06.03-.3,0-.07-.01-.18-.04-.27-.06-.23-.05-.39-.12-.58-.13l-.17.63c-.11.64.27,1.37.98,1.67.6.26,2.42.51,3.09.72.56.17,1.98.35,2.44.44l1.8.38c.63-.45.15-.34.47-.71l.25.08c.04.14.13.59.16.81.05.26.03.74.3.71.22.32,3.28,1.91,3.79,2.18l3.86,2.05c.34-.26.24-.32.43-.46.15-.13.05-.07.2-.08,0,1.12.11.91-.95,2.34-.57.77-1.16,1.56-1.73,2.37-1.18,1.67-2.44,3.16-3.76,4.79-2.54,3.13-4.85,6.34-7.13,9.57-1.11,1.58-2.14,3.19-3.26,4.74-3.45,4.76-6.68,9.55-10.05,14.36-4.06,5.81-5.59,8.48-8.85,14.31-1.08,1.92-2.35,3.3-4.28,3.12-1.64-.16-3.57-1.01-3.89-3.08-.09-.6.11-1.78.34-2.4.32-.86.76-1.63,1.34-2.43,1.87-2.59,3.31-4.39,5.07-7.12.29-.45,1.35-2.21,1.57-2.41.21-.05.19.07.48-.36.53-.79.8-.82,1.16-1.66.11-.28.51-.85.69-1.15l1.74-2.98c.15-.22.28-.33.41-.57.91-1.64,2.51-4.22,3.56-5.86l2.12-3.6c.24-.42.38-.75.65-1.16.15-.23.48-.75.79-.84.28-.09,0-.2.38.1-.02.12.15.07-.34.5l-.03.34c.27-.34-.04.2.46-.55.27-.41.95-1.01.97-1.24,0-.13-.11-.22-.03-.48.08-.26.24-.31.34-.54.12-.27-.11-.11.24-.49.14-.15.42-.36.52-.52.12-.19.03-.02.06-.2l.2-1.27c-.02-.16-.05-.41-.07-.52l-.05-.22s-.02-.08-.03-.11c0-.02,0-.04,0-.05,0-.02,0-.04-.01-.05,0-.02,0-.04,0-.05-.07-.24-.2-.35-.28-.55-.03-.08,0-.07-.09-.28-.13-.28-.39-.55-.61-.76-.08-.3-.33-.65-.45-.94-.41-.97-.22-.9.46-1.56.33.11.47.18.81.35.26.13.16.13.42.17l1.28.38c.55.25.32.04.82.16,0-.27-.11-.08.19-.39.84.03,1.06.14,1.99-1.3,1.09-1.67,1.94-1.98.52-2.64-.3-.14-.47-.25-.76-.21-.28-.19-1.33-.51-1.72-.67-.62-.25-1.23-.49-1.81-.72-1.66-.67-2.12-1.14-3.53-2.67l-.24-.55c.03-.29-.39-.78-.55-1.92-.09-.69-.08-1.31,0-1.92.16-1.43.59-2.43,1.39-3.86,1.07-1.91,3.03-3.62,5.38-3.59.52,0,1.44-.08,1.96.19M83.3,187.19c-.87.92-1.57.67-2.47.51l1.83-2.58.52-.65c.42.04,1.69.04,1.24.93-.29.57-.76,1.25-1.12,1.8"/>
      <path class="cls-7" d="M80.83,187.69c-.08.25.28.54.48.69.34.26.35.19.69.15.78-.09.73-.36,1.29-.98-.11-.07-.27-.07-.16,0,.33-.35.14-.23.16-.36.37-.56.84-1.23,1.13-1.8.46-.89-.82-.9-1.24-.93l-.52.65c-.1-.35-.1-.04.02-.41.05-.15.09-.17.2-.33.44-.67.91-1.46,1.39-2.05,1.04-1.31,1.66-2.7,2.79-4.14.37-.47.62-.92.87-1.36.27-.46.57-.93.89-1.41.38-.56.35-.82.83-1.31l-.03-.15s0-.03,0-.04c0-.02.05-.14.07-.15l.72-.94c.14-.14.08-.05.19-.22.13-.22.3-.69.68-1.15.31-.36.57-.64.8-.97l2.49-3.7c.45-.61.74-1.26,1.23-1.83l2.47-3.72c.41-.65.95-1.28,1.34-1.91.97-1.55,2.08-3.04,3.06-4.6.24-.37.43-.56.67-.93.64-.98,1.26-1.82,1.83-2.79.15-.27.42-.66.65-1,.23-.34.38-.57.62-.9.08-.1.29-.37.35-.47.45-.73,1.03-1.78,1.59-2.35.25-.26.31-.6.58-.92.19-.24.2-.22.29-.45,0-.01,0-.04.01-.05.01-.02.02-.04.03-.05l.22-.39c-.05-.16-.06-.02-.17-.25.17-.17.11-.14.3-.21.38-.15-.02.14.27-.07,0,0,.59-.86,1.02-1.25.3-.27.35-.41.6-.68.45-.47,1.3-.91,1.94-.79.28.05.39.27.42.27l.11-.02c.51-.05.57.35.7.74-.23.23-.59.31-.61.63-.02.29.03.06-.12.33l-.05.15s-.01.04-.01.05l-.36.78c-.17.23-.31.49-.36.71.14.12.15.07.29.09.49.08-.25-.13.1.01l-.79.89s-.05.06-.06.08l-.19.31c-.05.16.06-.06-.05.18l-1.42,1.92c-.81.8-.54,1.12-1.71,2.15l-.22.29s-.02.04-.03.06l-1.88,2.44c-.37-.42-.11-.32-.06-.7l.04-.32c.06-.29-.05-.04.18-.25.32-.31.44-.69.78-1.03.21-.22.22-.5.38-.7l.77-1.09c.2-.26.37-.26.51-.67.11-.31.23-.32.58-.65-.19-.3.03.01-.14-.25.23-.04.48-.27.46-.54l-.03-.02s-.01,0-.01.02c.12-.13.29-.32.36-.45.17-.32.15-.02.04-.39l.27-.1c.03-.14.03-.21.08-.33l.2-.58s.11,0,.08-.35c.02,0,.09.04.11.04l.25.03c-.12-.36-.12-.19.09-.41.35-.37.16-.04.21-.5.18.05.11.33.5-.14l-.26-.33c.34-.15.26.01.21-.22-.06-.23-.29-.21-.38-.13,0,0-.03.03-.04.04-.15.21-.06.3-.05.47-.11-.06-.12-.11-.32.07-.4.35-.02,0-.17.36l-.25.25c-.07.05-.14.1-.22.13-.37.15.21.13-.19.03.05.11.16.26.25.37-.27.26-.6.61-.67.96l-.81,1.25c-.19.32.05.09-.2.39.17.17.06.03.05.03,0,0-.02,0-.02,0l-.25.07s-.23.26.16.27c-.05,0,.22-.27-.07.06-.15.18-.42.09-.49.39l-.1.23s-.03.03-.04.04c-.16.15-.34.16-.44.33-.14.24,0,.13-.14.3-.11.13-.35.38-.39.57l-.18.65c-.21.4-.42.53-.68.9-.1.14-.07.09-.11.23l-.07.33c-.16.31.18-.18-.06.07l-.1.11c-.13.13.05.09-.27.03-.49.55-.03.46-.56,1.05-.4.45-.71,1.53-1.19,1.81-.18.06-.2-.04-.46.07-.21.09-.28.17-.47.18.03-.04.13-.16.14-.2.07-.22.11,0,0-.26-.15.03-.03-.05-.17.08l-.39.67c-.13.32-.13.46-.39.34.02.17.1.21.15.41-.33,0-.14.05-.47-.05-.29.26-.07.15-.14.21l-1.18,1.89c-.14-.01-.09-.03-.21.03l-.2.22c-.22.3-.2.2-.19.54l-.22-.06s-.04,0-.05-.01c.06.4.08.05-.14.38-.42.64-.28.32-.52.64-.15.2-.08.31-.28.6-.22.32.1.11-.26.49-.32.35-.61.56-.78.96-.12.28-.41.47-.48.74-.1.41-.48.66-.67,1l-2.12,3.11c-.19.31-.19.49-.37.65l-1.31,1.84c-.1.23-.03.14-.18.31-.32.36-.07.07-.19.36-.1.26-.48.57-.73.79.08.15.22.09-.05.49-.07.11-.1.15-.12.32-.02.09-.07.24-.13.34l-.18.36c-.26.36-.77.42-.88,1,.37.17.05-.04.33.05-.34.37-.04.48-.6.52h-.27c-.28.34-.17.04-.13.35-.34-.08.12-.13-.25-.06-.13.02-.21.05-.29.21.16.15.24.17.45.11.23-.06.18-.23.45-.04-.01.02-.06.01-.1.13,0,.01-.01.04-.02.05l-.02.1c-.04.2.1-.07-.02.14l-.41-.1c-.13.17-.22.27-.26.48l.1-.05s.04-.02.05-.02l.26-.12c-.08.24-.11.26-.32.26,0,.15-.01.04.03.2,0,.01.04.09.05.14-.82.79-.69-.13-1.82,1.7l-.33.52c-.68.77-.75,1.13-1.18,1.6l.1.17c-.56.58-.45.57-.36.86-.24.11-.04-.01-.37.05-.43.73-.16.36-.52.54.18.37.11.45-.14.77-.29.39-.36.44-.58.82-.1.18-.35.65-.38.8l.11.56c.08.15.12.11.18.3-.22-.16-.22-.27-.47-.19.05.18.4.68.55.76,0,0,.07.02.16.08.14-.14.31-.33.49-.37.19.19.21.17.17.39-.06.28-.09.14-.23.37-.46.75-.23.34-.56.62.11.03.16-.06.35.06-.28.27-.14.27-.45.63.08.17-.14-.04.06.02.15.04.02-.1.09.02-.31.35-.43.55-.63.91-.23.44-.7,1.16-1.26,1.4l-.38.14c-.33.11-.61.18-.95.09-.2.22-.21.35-.48.5-.15.08-.36.12-.58.03l-.67.6-.36-.53c-.06-.14-.06-.1-.08-.22-.04-.27.1-.56.2-.76.16-.34.53-1.26.95-1.3"/>
      <polygon class="cls-9" points="91.08 170.38 91.08 168.17 91.72 168.17 91.72 167.86 89.93 167.86 89.93 168.17 90.57 168.17 90.57 170.38 91.08 170.38"/>
      <polygon class="cls-9" points="89.68 170.38 89.68 167.86 88.97 167.86 88.46 169.79 87.96 167.86 87.25 167.86 87.25 170.38 87.76 170.38 87.76 168.39 88.27 170.38 88.66 170.38 89.17 168.39 89.17 170.38 89.68 170.38"/>
      <path class="cls-25" d="M121.91,115.11c-2.06,0-3.73,1.65-3.73,3.68s1.67,3.67,3.73,3.67,3.73-1.65,3.73-3.67c0-2.03-1.67-3.68-3.73-3.68"/>
      <path class="cls-15" d="M104.68,174.09c-.21.11-.15.15-.18-.08-.18.02-.09.04-.31,0-.04,0-.2-.05-.28-.08-.36-.1-.33-.1-.66-.22l-1.15-.74c-.06-.07-.31-.4-.36-.45-.33-.32.16-.2-.25-.13-.14.74-.35,2.36-1.03,2.92-.04.32.04.09-.12.47-.11.27.04-.02-.15.21-.2.21-.42.42-.62.63-1.14,1.13.03,2.23-3.16,4.24-2.96,1.87-6.43,1.26-9.58.4-1.79-.48-4.56-1.94-6.16-3.15-3.23-2.46-3.57-7.05-2.79-10.66,1.28-5.87,3.6-11.36,9.22-14.62,2.25-1.3,3.45-1.64,5.62-1.82,2.27-.19,3.34.81,5.06,2.28.64.55.61.27,1.26.51,1,.37,3.75,2.27,6.25,3.22,2.56.98,6.21,1.8,5.91,5.34-.22,2.61-1.38,2.87-2.15,5.09-.34.98-.98,4.26-1.77,5.01-.13.45-.55.84-.98,1.1l-1.09.4s-.07,0-.11,0l-.42.1Z"/>
      <path class="cls-20" d="M99.41,171.4c.27-.16.17-.21.32,0l1.18-.57c-.05-.6-.17-1.17-.27-1.79-.11-.75.13-1.19-.02-1.74-1.28-.07-1.4.05-2.69-.37l-.92-.28c-2.02-.92-4.7-2.31-6.31-4.49,2.02.7,3.91,2.41,6,3.15l1.97.82c.32.09.68.15.99.22.52.12.61.06,1.15-.03.73-1.11.95-2.62,2.77-4.48-.58-.79-1.83-2.82-2.56-3.13-.59-1.26-4.93-6.05-6.95-6.52-4.18-.97-10.18,3.56-12.46,7.77-.79,1.46-1.71,3.61-2.03,5.01-.22.92-.53,1.68-.67,2.55-.4,2.54-.69,5.89,1.06,8.37.8,1.13,3.9,3.32,4.85,3.37,1.28.77,1.89.84,3.26,1.25.37.11.35.15.78.23l2.62.29c2.43,0,5.55-.94,6.31-3.05.07-.19.06-.19.08-.33l-4.83.52c-1.81.02-3.93-1.35-4.63-1.45-.25-.27-1.28-.87-1.7-1.21-.55-.43-1.51-1.46-1.75-1.64,0-.05-.05-.16-.02-.13.02.02.02-.08.02-.12,0-.04.06.01.09.05.04.04.08.04.1.05l2.89,1.52c1.67,1.09,3.91,1.86,5.51,1.81.95-.02,1.9-.15,2.9-.29,1.65-.22,1.59-.4,2.95-1.36.03-.32-.06,0,.08-.32l1.05-1.94-.07.02c.06-.24.08-.35.14-.57,0-.03.01-.08.02-.11l.08-.3c-.43-.29.09-.11-.36-.1-.23,0-.1,0-.33.08-.44.14-.07.18-.59.14-.24-.17-.17-.29-.13.08h-.22c.02-.48-.15-.21-.76-.32-.52-.09-.44-.26-.84-.48l1.97-.24.02.05Z"/>
      <path class="cls-20" d="M106.11,172.43c.63-.62.94-1.61,1.21-2.37.16-.44.62-2.11.56-2.5.38-.45.22-.87.99-2.07.45-.71.92-1.39,1.17-2.07.62-1.72-.18-3.81-2.68-4.58-3.88-1.2-5.8-2.83-7.18-3.35-.23-.09-.17-.07-.35-.09l1.8,2.13,2.76,3.46c.55-.34.93-.76,1.47-.89-.73,1.57-4.42,4.21-4.29,8.47.03.98.24,2.14.87,3.14l.72,1.05.26.12.11-.05c.15.08.31.16.52.2l.48.07.7-.13.88-.52Z"/>
      <path class="cls-25" d="M92.42,170.31c.86.56,1.48.6,2.49.89.52.15.72.3,1.29.32.39.02.8-.03,1.22.08.4.21.32.39.84.48.61.11.78-.16.75.31-1.28.44-3.16.21-4.37-.1l-1.16-.36s-.07-.02-.09-.02l-.18-.04c-.61-.32-1.29-.53-1.94-.85-1.67-.83-3.97-2.56-5.12-4.21,2.05.83,4.19,2.86,6.27,3.51M99.38,172.31l-.14.08c-.04-.37-.11-.26.14-.08"/>
      <polygon class="cls-9" points="96.45 163.69 96.45 161.68 97.04 161.68 97.04 161.38 95.4 161.38 95.4 161.68 95.99 161.68 95.99 163.69 96.45 163.69"/>
      <polygon class="cls-9" points="95.18 163.69 95.18 161.38 94.53 161.38 94.07 163.15 93.61 161.38 92.96 161.38 92.96 163.69 93.42 163.69 93.42 161.87 93.89 163.69 94.24 163.69 94.71 161.87 94.71 163.69 95.18 163.69"/>
      <path class="cls-22" d="M129.19,124.61c-.07-.15-.02-.05-.06-.22-.2-1.08-1.2-1.28-2.07-1.71-.86-.42-1.83-.93-2.65-1.28-.93-.4-1.8-.76-2.65-1.23-.25-.14-.39-.13-.69-.29l-1.78-.74-.1-.26c.24-.68.12-.26.52-.74l.07-.11c.14-.04.08.07.45-.05-.11-.26-.12-.13-.2-.25l-.12-.31s-.05.02-.07.03l-.18.07c-.22.1.04.02-.13.07.17-.43.15-.61.46-.83l.3-.22c-.23,0-.32.04-.5-.06.11-.32-.04-.03.16-.13l.11-.03c-.47-.25-.08.08-.2-.41.01,0,.14.03.2.05.35.08.39.18.39.17,0,0,.02.03.03.03.14-.07.16-.11.18-.24.29.15.07.06.4.34.02-.04.08-.19.08-.2.01-.1-.06-.14-.08-.17l-.03-.04c-.11-.18-.03-.07-.03-.07l.56-.13c.2.26.21.25.25.53l.11.53.13-.09c.15-.15-.09.07.08-.14.31.18.02.07.3.09.26-.27.32-.39.15-.58-.03-.03-.38-.24-.48-.28l-.23-.08s-.04-.02-.05-.02l-.23-.15c-.15-.07-.42.01-.54-.18l-.06-.13c-.23-.34-.11-.15-.39-.25-.02-.01-.09-.03-.11-.04l-.76-.12c-.22,0,.15-.11-.25.02-.03,0-.16.03-.16.03l-.21-.03c-1.12-.26-.54-.04-1.34-.09-.61-.03-1.55.2-2.13.46-.41.18-.45.27-.81.47-.02,0-.04.02-.05.03-.02,0-.04.02-.05.03l-.22.12c-.16.16-.05.15-.24.27-.15.1-.49.12-.41.49-.24.24-.34.34-.5.58-.25.37-.1.23-.42.4-.52.27-1.42,1.94-1.7,2.59l-.9,1.44s-.02.03-.03.05c-.82,1.27-.23.34-.64,1.16-.41.83-.67.72-1.18,1.86l-.16.33c.25-.05.11.03.3-.18.24,0,.15-.01.4.13l-.28.23c-.07-.15-.02-.08-.12-.16-.88.45-.92.92-1.42,1.66-.1.16-.18.21-.27.37-.27.44-.49.9-.9,1.33-.07-.34.26-.82.45-1.1l1.72-3.01c.08-.2.08-.12.03-.32-.04.02-.02-.02-.15.1l-1.3,2.08c-.34.58-.97,1.86-1.49,2.17-.04-.14-.05-.11-.06-.28.43-.41,4.47-7.26,4.89-7.95,1.81-3.04,3.15-5.36,6.8-5.96,1.18-.19,2.76-.15,4,.24,2.87.91,5.87,3.65,7.41,6.26.69,1.16,1.66,2.58.83,4.07"/>
      <path class="cls-19" d="M119.5,114.76c.4-.13.03-.03.25-.02l.76.12s.08.03.11.04c.27.1.16-.09.38.25l.07.13c.13.19.39.11.54.18l.23.15s.03.02.05.02l.23.08c.1.04.45.25.48.28.17.19.11.3-.15.58-.28-.02,0,.08-.3-.09-.17.2.07-.02-.08.14l-.14.09-.11-.53c-.03-.28-.05-.27-.25-.53l-.56.13s-.08-.1.03.07l.03.04s.1.07.09.18c0,.01-.07.17-.08.2-.33-.28-.11-.19-.4-.34-.02.13-.04.17-.18.24-.01,0-.04-.03-.03-.03,0,0-.04-.09-.39-.17-.06-.02-.19-.04-.2-.05.12.49-.27.17.2.41l-.11.03c-.21.11-.05-.19-.17.13.19.1.28.05.51.06l-.3.21c-.31.22-.3.4-.46.83.17-.05-.08.03.13-.07l.18-.07s.04-.02.07-.03l.12.31c.08.12.09-.01.2.25-.37.12-.32.01-.45.05l-.07.11c-.39.48-.28.07-.52.75l.1.26c-.2,0-.2-.05-.39-.07-.36-.04-.14.02-.43.05-.47.05-.21-.2-.86.18-.55.32-.71.42-.73,1.03,0,.1,0,.11,0,.21l-.02.24c-.38-.44.03-.14-.36-.3-.35-.16-.27-.26-.7-.05-.27.13-.2.09-.43.15.06.22-.04.1.26.16l-.43.3c.25.11.39.36.51.55l.26.29s.02.03.03.04v.32s-.96,1.43-.96,1.43c-.1.13-.21.33-.33.48-.25.32-.25.16-.52.46-.18-.11-.09-.12-.23-.17-.2-.08-.25-.04-.31-.01l.33.4c-.19.19-.3.23-.47.32.08.3-.09-.29.06.15,0,.01.01.04.02.06,0,.02.01.05.01.06,0,.01.01.04.01.06-.05.05-.25.31-.25.31-.34.27-.24-.07-.73-.38l-.35-.12c.23.24.21.19.31.43.3.68.42.34.33,1.34-.07.84-.48,1.12-.76,1.63l-.12.27c-.48.62-.84,1.49-1.39,2.03l-.71-.04c.46-.83,1.02-1.76,1.52-2.53.55-.85,1.16-1.65.52-2.44-.66-.8-1.81-.75-2.49-.42-.68.32-1,1.12-1.37,1.74-.36.61-.38.43-.48.37-.01.45.16-.09.01.3-.06.15-.19.32-.26.42-.19.29-.33.56-.53.86.02-.19.03-.2-.14-.27-.41-.18-.35.29-.81.51-.12.06-.09.03-.2.05.04-.15.03-.11.24-.29.34-.3.84-1.35,1.2-1.93.38-.63.97-1.79,1.64-2.18l.29-.22c-.24-.14-.16-.13-.4-.13l.71-.07c.06.34-.02-.32-.05.18-.01.24-.14-.02.04.25.26-.06.22,0,.48-.18,0-.03-.02-.06-.03-.07l-.1-.14s-.09,0-.11,0c.33-.33.1-.04-.01-.47.35-.18.42-.51.55-.83.14-.3.4-.55.59-.79.18-.23.12-.32.23-.47.1-.14.25-.21.34-.33.12-.17.13-.36.17-.42.05-.07.26-.23.35-.35l.67-1.35c.08-.26-.05-.1.21-.3.25-.19.42-.46.5-.73l.05-.33c.04-.09.12-.24.14-.36.42.09.38-.07.72-.41.05-.05.51-.23.55-.49.23.16.11.06.27.15l-.15.46-.51-.15c.06.4-.23.33-.32.64l.12.09s.06.03.08.06c-.3.31-.39.23-.34.54.32.05.43-.18.67-.43.14-.15.05.05.16-.19.38.59.24-.41.56.41l-.31.43c.19.27.35.45.72.54l.38.04c.65.09.29-.19.82-.71-.16-.24-.12-.27-.14-.54l-.35-.39c.11-.26.08-.15.05-.38-.11,0-.27.07-.19.25l-.2-.12c.46-.24.14-.1.17-.24l-.5-.31c.06-.24.03-.16.14-.42l-.71.35.35.12c.06.07.03.12-.11.26-.13-.31-.38-.34-.21-.64.18-.34.42-.36.67-.39l.25-.06c.31-.15.8-.27.72-.7h.26c.28.01.35.09.48-.22.09.32.33.1.48.07l.75-.16c.24-.06.03-.06.1.04.35.45-.1,0,.1.2l.38-.39c.14.02.04-.05.04.09l-.03.17c.28-.19.2-.19.5-.16l.08-.21s0-.03.11-.12l-.24-.13c-.13-.1-.06-.09-.27-.2"/>
      <path class="cls-5" d="M97.32,139.6c-.07.3.14.55.28.81.14.26.04.21.18.34.2.17.15.19.36.26.66.23,1.62,1.53,3.96,2.34.16.06.89.24.95.27.28.17-.02.12.27.27.47.24.2,0,.53.14,0,.43,0,.53-.12.85l-.22-.21-.04.37c-.56.01-.65.35-.8.54,0,0-.07.08-.08.09-.19.18-.04,0-.38.21.25.15.42.11.27.75-.21.08-.07,0-.27-.05-.08.28-.02.24-.07.47-1.93.47-2.88-.45-2.71-.07-.14-.03-.13-.03-.3-.14l-.34-.2s-.05-.02-.07-.02c-.22-.08-.67.62-.79.8l.09.27c-.04.12-.09.13-.11.21-.05.25.09-.04,0,.29-.05.2-.15.24-.33.25-.15,0-.04,0-.2-.02l.13-.23c.1-.2.17-.37.16-.58-.18-.13-.71-.13-.98-.19-.25-.05-.07.12-.32-.18.29-.04,1.17.08,1.34-.03.01,0,.04-.04.05-.05,0,0,.02-.02.03-.02,0,0,.03-.02.03-.02.14-.05.15,0,.19.02-.45-.39-.33.09-.99-.58.34-.18.33-.16.65.02l.26-.33c-.28-.11-.41-.31-.7-.46-.21.12-.18.08-.28.25l-1.26,1.92c-.33.49.16.31-.39.83.14.63-.16.09.03.88.08.36-.1.15.2.75.12.24.03.1.26.22.02.01.04.02.06.03l.26.18c-.32.15-.09.07-.43.09-.63-.33-.96-.4-1.09-1.21-.05-.27,0-.43.15-.74l2.14-3.56-.3-.3-.39.36-.52-.12c-.12.33-.2.15.02.58.01.02.22.21.06.12-.01,0,.02.04.03.07-.52.43-.06-.13-.44.17,0,0,.23.21-.05.05-.01,0-.01.03-.02.03-.39-.19-.19-.08-.36-.38-.08.23.1-.03-.02.65.02.36.04-.04.18.48.09.36.07-.14,0,.12-.28.04-.39-.11-.6-.46-.4-.67-.08-.29-.03-.85.39-.22-.14.21.21-.04.29-.21.06.01.12-.21.08-.27.04-.44-.05-.63.15-.27.42-.41.52-.66l.23-.53c.26-.52-.73-.97.12-2.46.17-.28.81-1.03.87-1.17.14-.36.11-.7.59-1.17l.24.55Z"/>
      <path class="cls-4" d="M119.29,119.14l1.78.74c.3.16.44.15.69.29.85.47,1.72.83,2.65,1.23.82.35,1.78.86,2.65,1.28.88.43,1.87.63,2.07,1.71.03.17,0,.08.06.22,0,.02-.02.03-.01.06.09.18.1-.07-.16.32-.24.37-.93,1.62-1.2.89-.03-.08-.02-.1-.01-.14.03-.18-.04-.04.06-.09-.18-.02-.54.07-.7.16-.13-.23-.24-.3-.15-.48-.22.04-.39.06-.59.15-.27-.42-.08-.11-.16-.58-.28-.05-.16.07-.72.07l-.11-.47c-.23.05-.45.05-.65.08-.39-.48.03-.56-.41-.44-.55.15-.45.17-.6-.46l-.62.09s-.05,0-.07,0c-.09-.27-.03-.06,0-.49-.08.05-.45.27-.54.27-.48.02-.26-.2-.35-.49-.16.02-.37.08-.55.02-.36-.12-.29-.29-.15-.49-.23.01-.16.03-.35.11-.26.1-.23.09-.44.13-.34-.49-.07-.1-.13-.32-.05-.16.05-.07-.05-.26-.91-.17-.37.74-2.37-.3-.31-.16-.65-.21-.86-.32,0-.23.04-.02-.08-.25,0,0-.13-.19-.15-.21-.13-.22-.1-.23-.22-.4l.02-.24c0-.11,0-.12,0-.21.03-.61.18-.71.73-1.03.65-.38.39-.12.86-.18.29-.03.07-.09.43-.05.2.02.2.07.4.07"/>
      <path class="cls-5" d="M122.3,135.25c-.19-.44-.45-.32-.75-.34-.12,0-.15-.02-.26-.03-.18-.38.12-.02-.1-.41l-.58.02c-.12-.16-.09-.29-.12-.33-.02-.03,0-.04-.01-.06-.24-.01-.42-.04-.62-.03-.33-.46.24-.34-.76-.42-.32-.51.11-.37-.79-.39,0-.02,0-.05-.01-.06-.14-.6-.39-.2-.7-.36-.23-.12-.03-.5-.74-.35l-.1-.18c-.22-.34-.29-.23-.49-.26-.19-.03-.04.05-.2-.07-.37-.28-.07-.4-.73-.33-.24-.34.08-.24-.77-.64-.17.32-.08.32-.35.6-.22.24-.45.47-.69.7.11-.65.93-.74.48-1.2-.27-.27.02.06-.23-.13-.25-.18-.09-.08-.2-.33l-.23-.47c-.21-.27-.47-.36-.4-.73.22-.15-.05-.14.39.12.11.06.08-.05.24.22.16.25-.21-.05.21.24l.25.2c.19.12,0,0,.23.05.17.04,0-.08.18.07-.09-.2-.22-1.11-.27-1.4l-.11-.91c-.03-.27-.04-.07,0-.31.16-.14.32-.15.52-.09.36.11.21.18.37.51.62-.2.49-.2.72.31h.61c.07.2.09.26.1.43.11,0,.42.02.58,0l.18.46.6-.06.12.39.57-.04c.15.25.07.2.2.46l.54-.04c.2.34,0,.15.19.49.2-.05.38-.05.58-.08.08.22.04.23.12.43.65-.18.68.24.77.41.02,0,.04-.02.06,0,.05.03.68-.22,1.03.48l.4,2.3c.07.4.18.77-.02,1.14"/>
      <path class="cls-17" d="M122.3,135.25l-.14.36c-.06.1-.17.22-.25.32-.17.24-.29.44-.48.68-.14,0-.05-.05-.2.08-.18.14-.09.21-.43.46l-3.86-2.05c-.51-.27-3.57-1.86-3.79-2.18,0-.3.11-.32.36-.61.24-.23.47-.46.69-.7.27-.29.17-.29.35-.6.85.4.53.29.77.64.67-.07.35.05.73.33.16.12,0,.04.2.07.2.03.27-.07.49.26l.1.18c.71-.15.52.23.74.35.31.16.56-.24.7.36,0,.01,0,.04.01.06.9.02.47-.13.79.39,1,.08.43-.04.76.42.2,0,.37.02.62.03.01.02,0,.04.01.06.03.04,0,.17.12.33l.58-.03c.22.4-.08.04.1.41.11,0,.13.02.26.03.31.01.56-.11.75.34"/>
      <path class="cls-11" d="M85.85,174.77c.04-.3,1.63-2.81,1.8-3.09l5.46-9.36c1.24-2.16,2.39-4.09,3.59-6.24.63-1.12,1.3-1.98,1.85-3.12.23-.48.5-1.05.64-1.54.41-1.46.2-.94,0-1.6l-.11-.18c.22.21.48.48.61.76.1.21.06.19.09.28.08.2.21.32.28.55,0,.02,0,.04,0,.06,0,.01,0,.04.01.05,0,.01,0,.03,0,.05,0,.02.02.09.03.11l.05.22c.02.11.05.36.07.52l-.2,1.27c-.04.18.05,0-.06.2-.1.15-.39.37-.52.52-.34.38-.12.23-.24.49-.09.22-.26.28-.34.54-.08.26.03.35.02.48-.02.23-.7.83-.97,1.24-.49.74-.18.21-.46.55l.03-.34c.49-.43.32-.38.34-.5-.37-.3-.1-.18-.38-.1-.31.1-.65.61-.79.84-.27.42-.41.74-.65,1.16l-2.12,3.59c-1.05,1.64-2.65,4.21-3.56,5.86-.13.23-.26.35-.41.57l-1.74,2.97c-.18.3-.58.88-.69,1.15-.36.85-.63.87-1.16,1.66-.29.43-.27.32-.48.37"/>
      <path class="cls-8" d="M119.5,114.76c.22.11.14.1.27.21l.24.12c-.12.09-.1.1-.11.12l-.08.2c-.29-.03-.23-.03-.5.16l.04-.17c0-.14.1-.07-.04-.09l-.38.39c-.2-.19.25.26-.1-.2-.07-.1.14-.1-.1-.04l-.75.16c-.15.03-.39.25-.48-.07-.13.31-.2.24-.48.23h-.26c.08.42-.42.54-.72.69l-.25.06c-.24.03-.48.06-.67.39-.16.3.09.33.21.64.14-.14.17-.2.11-.26l-.35-.12.71-.35c-.11.26-.08.17-.14.42l.5.31c-.03.13.29,0-.17.24l.2.12c-.09-.18.08-.24.19-.25.04.23.07.13-.05.39l.35.39c.01.27-.02.3.13.54-.52.51-.17.8-.82.71l-.38-.05c-.37-.08-.53-.27-.72-.53l.31-.43c-.32-.83-.18.18-.56-.41-.11.24-.02.04-.16.19-.24.25-.35.48-.67.43-.05-.32.04-.22.34-.54-.02-.03-.06-.04-.08-.06l-.12-.09c.09-.31.37-.24.32-.64l.51.15.15-.47c-.17-.09-.05.01-.27-.15-.04.26-.5.44-.55.49-.35.34-.3.5-.72.41,0,.12-.1.26-.14.36l-.05.33c-.08.27-.25.55-.5.73-.26.19-.13.04-.21.3l-.67,1.34c-.09.12-.3.29-.35.35-.04.05-.05.25-.17.42-.09.12-.24.19-.34.33-.11.15-.06.25-.23.47-.19.25-.45.49-.59.79-.14.31-.2.64-.55.83.11.44.34.15.01.47.02,0,.1,0,.11,0l.1.14s.02.05.03.07c-.25.17-.21.12-.48.18-.18-.27-.05,0-.04-.25.03-.51.1.17.05-.18l-.7.07c-.2.2-.06.13-.31.18l.16-.33c.51-1.14.77-1.03,1.18-1.85.41-.82-.19.11.64-1.16.01-.02.02-.04.02-.05l.91-1.44c.27-.65,1.18-2.32,1.7-2.59.33-.17.17-.03.42-.4.16-.24.26-.33.5-.58-.07-.37.26-.39.41-.49.18-.13.07-.11.23-.27l.22-.12s.04-.02.05-.03c.02-.01.03-.02.05-.03.36-.2.4-.29.81-.47.58-.26,1.51-.49,2.13-.46.8.04.22-.17,1.34.09l.21.03s.13-.03.16-.03"/>
      <path class="cls-21" d="M104.98,128.37c-.31.46-.26.53-.18.95.06.32.13.73.23.95l.63-.02c.21.02.31.05.55.06l.64-.59c0,.16-.02.08,0,.17.07.19.08.14.25.07.4-.1.27.05.6.17.22.07.46-.05.5-.34.18-.03-.02-.17.2.02-.1.22-.19.28-.09.43.24.38.04-.14.13.13v.14s-.02.04-.02.06c.2-.11.08-.05.28-.04l.21.03c.25.07.26.14.47.37l.49-.3c-.02.21-.03.08.04.31l.71.03c.56-.54.92-1.41,1.39-2.03.09-.05.14-.1.21-.13l.24-.06-.29.4c.14.3.24.35.48.57l.1-.23c.1-.11.04-.11.17-.01-.07.37.19.46.39.73l.24.46c.11.25-.05.14.2.33.26.18-.04-.15.23.12.46.46-.36.55-.48,1.2-.25.29-.36.3-.36.61-.27.02-.26-.45-.3-.71-.04-.22-.13-.66-.16-.81l-.24-.08c-.32.37.15.26-.47.71l-1.8-.38c-.46-.1-1.89-.26-2.44-.44-.67-.22-2.49-.46-3.09-.72-.72-.31-1.09-1.03-.98-1.66l.17-.64c.19,0,.35.07.58.13.08.01.19.05.27.06.24.03.07-.02.3,0"/>
      <path class="cls-5" d="M108.77,125.12c-.67.39-1.26,1.55-1.64,2.18-.35.58-.86,1.62-1.19,1.92-.22.19-.21.15-.24.3.12-.02.07,0,.2-.06.46-.22.39-.68.81-.51.17.07.15.09.14.27.2-.3.34-.57.53-.86.07-.1.21-.27.26-.41.15-.4-.02.14-.01-.3.1.04.12.23.48-.38.37-.61.69-1.41,1.37-1.74.68-.33,1.82-.38,2.49.42.65.78.03,1.59-.52,2.44-.5.76-1.06,1.7-1.52,2.53-.07-.22-.07-.1-.04-.31l-.49.3c-.2-.23-.22-.3-.48-.37l-.2-.03c-.2,0-.08-.06-.28.04,0-.02,0-.07.01-.06v-.14c-.08-.27.11.26-.12-.12-.09-.16,0-.21.1-.43l.11.1c-.05-.29-.09-.06.01-.31.21.12.21.07.35.13.23.09.16.04.16.21.2-.25.07-.17.52-.23.26-.04.02-.13.26,0-.31.49-.43.24-.27.8l2.11-3.11c.71-1.11-1.13-2.19-1.9-1.63-.45.33-.8,1.38-1.67,2.02.24.18.45.19.69.25.44.11.3.1.68-.07-.02.29-.41.33-.53.3-.01,0-.1-.05-.11-.06-.39-.18-.27,0-.58-.19l-.15.38c-.1-.01-.27-.06-.33-.04.16.21,1.97.53,2.67.51.01,0,.04,0,.06,0-.18.38-.4.26-1.29.06l-.7-.21c-.65-.15-.8-.14-.99.49-.13.45.19.32-.31.7l.02-.5c-.49.53-.16.53-.13.57-.17.06-.19.12-.25-.07-.02-.08,0,0,0-.17l-.63.58c-.24,0-.35-.03-.55-.05l-.63.02c-.1-.22-.17-.63-.23-.95-.08-.42-.13-.48.18-.95.2-.02.12-.02.34-.13.51-.31,1.15-1.59,1.48-2.17l1.31-2.08c.12-.12.1-.08.14-.1.05.2.05.12-.03.32l-1.72,3.01c-.18.27-.51.76-.44,1.1.41-.43.63-.89.9-1.33.1-.16.17-.21.28-.37.51-.75.54-1.21,1.42-1.66.09.08.05.01.12.16"/>
      <path class="cls-22" d="M108.41,129.8c-.23-.18-.02-.05-.21-.01-.04.28-.29.41-.5.33-.33-.12-.2-.26-.6-.17-.03-.03-.36-.03.13-.56l-.02.5c.5-.38.18-.24.31-.69.19-.64.34-.65.99-.5l.7.2c.89.2,1.11.33,1.29-.05-.02,0-.05,0-.06,0-.71.03-2.52-.29-2.67-.5.06-.03.22.02.33.03l.16-.39c.31.2.19.02.58.2.01,0,.09.05.11.06.12.04.51,0,.53-.3-.38.17-.24.18-.69.07-.23-.06-.45-.07-.69-.25.87-.64,1.22-1.68,1.67-2.02.76-.56,2.6.52,1.9,1.63l-2.11,3.11c-.15-.56-.04-.3.27-.8-.24-.13,0-.04-.26,0-.44.07-.33-.02-.52.23,0-.18.07-.12-.16-.21-.14-.06-.14-.01-.35-.13-.1.25-.07.02-.01.31l-.11-.1Z"/>
      <path class="cls-21" d="M104.37,143.66c.34.21.48.17.8.56-.09.28-.47.55-.55.94-.05.24,0,.04.06.16-.05.14-.11.22-.17.38-.21.48-.68,1.9-1.51,1.91h-.11l-1.07-.12c-.63.07-.03.42-1.54-.14-.58-.22-.43-.08-.84-.37-.16-.38.78.54,2.71.07.05-.23,0-.19.07-.47.19.05.05.14.27.05.15-.64-.02-.6-.27-.75.34-.21.19-.03.38-.21,0-.01.07-.08.08-.09.15-.19.24-.53.8-.54l.04-.37.22.21c.12-.32.12-.42.12-.85-.33-.14-.06.09-.53-.14-.3-.15,0-.1-.27-.27-.06-.04-.79-.21-.95-.27-2.34-.81-3.31-2.11-3.96-2.33-.21-.07-.16-.09-.36-.26-.14-.12-.05-.08-.17-.33-.14-.27-.35-.52-.28-.81,1.41,1.53,1.87,1.99,3.53,2.66.58.24,1.19.47,1.81.72.39.16,1.44.48,1.72.67"/>
      <path class="cls-22" d="M98.04,147.67l-.09.1.66,1.23c-.25.45-.69,1.23-1.23,1.6-.21.14-.57.33-.84.34-.43.02-.34-.14-.86-.03.34-.02.11.06.43-.09l-.26-.18s-.04-.01-.06-.03c-.22-.12-.14.02-.26-.22-.3-.6-.12-.39-.2-.75-.19-.79.1-.24-.03-.88.55-.52.06-.35.39-.83l1.26-1.92c.1-.17.07-.12.28-.24.3.15.43.35.7.46l-.25.33c-.32-.18-.32-.2-.66-.02.66.67.55.2.99.57-.04-.02-.05-.07-.19-.02,0,0-.03.01-.03.02,0,0-.02.02-.03.03,0,0-.04.04-.05.05-.17.11-1.05,0-1.34.03.25.31.07.14.32.19.28.05.8.06.98.19.01.2-.07.37-.16.58l-.13.23c.16.02.05.03.2.02.19,0,.28-.05.34-.25.08-.34-.05-.04,0-.29.02-.08.06-.1.11-.21"/>
      <path class="cls-19" d="M95.69,150.9c.51-.1.43.05.85.04.27-.02.63-.2.84-.34.54-.37.97-1.15,1.23-1.6.2.24.04.14.17.43.12.26.19.23.27.49-.41.32-.05.28-.38.68-.19.24-.42.26-.63.39-1.06.61-2.24.84-3.45.18-.19-.27-.46-.34-.61-.6-.47-.8-.03-1.22-.03-1.42,0-.19-.07-.26-.15-.4l-.04-.35c.2-.06.24-.02.41,0,.25.02.21.1.39-.2-.1-.16-.44-.54-.26-.7.02-.01.03-.04.05-.05l.15-.11c.22-.12.1.09.56.11l.23-.26-.39-.56c.12-.68-.06-.42.01-.65.17.3-.04.19.36.38.01,0,.01-.04.02-.03.27.15.04-.05.05-.05.38-.3-.08.26.44-.17,0-.02-.04-.06-.03-.06.17.08-.05-.1-.06-.12-.22-.43-.14-.26-.02-.58l.52.12.39-.36.3.3-2.13,3.55c-.15.31-.2.47-.16.74.14.81.46.88,1.1,1.21"/>
      <path class="cls-5" d="M116.86,120.77c.12.17.08.19.22.4.01.02.14.21.14.21.11.23.08.03.08.26-.44-.1-1.12,1.25-1.34,1.6l-3.48,5.51-.24.06c-.07.02-.12.08-.21.13l.12-.28c.28-.51.68-.78.76-1.63.09-1-.04-.65-.33-1.34-.1-.24-.08-.19-.31-.43l.35.12c.49.31.39.66.73.38,0,0,.21-.26.26-.31,0-.02-.01-.05-.02-.06,0-.01-.01-.04-.02-.06,0-.01-.01-.04-.01-.06-.14-.45.02.15-.06-.15.17-.1.28-.14.47-.33l-.33-.4c.06-.02.11-.07.32.01.14.06.05.06.23.17.27-.3.27-.13.52-.45.12-.14.23-.35.33-.47l.98-1.44v-.31s-.03-.03-.04-.04l-.26-.29c-.12-.19-.25-.44-.51-.55l.43-.31c-.29-.05-.2.06-.26-.16.23-.06.15-.02.43-.15.44-.21.36-.1.7.05.39.17-.02-.13.36.31"/>
      <path class="cls-26" d="M99.45,146.96c.41.29.25.15.84.37,1.51.56.92.21,1.54.14l1.07.12h.11c.83-.01,1.31-1.42,1.51-1.91.07-.16.12-.23.17-.38-.07-.13-.11.08-.06-.16.09-.39.47-.65.55-.94-.32-.39-.47-.34-.81-.56.29-.04.46.07.76.21,1.42.66.57.97-.52,2.64-.94,1.44-1.15,1.33-1.99,1.3-.29.3-.19.12-.18.38-.51-.12-.27.1-.83-.16l-1.28-.38c-.26-.04-.17-.03-.42-.16-.34-.18-.48-.24-.81-.35-.69.66-.87.59-.46,1.56.12.29.36.64.45.94l.11.18-.13.1c-.08-.26-.15-.23-.28-.49-.13-.29.03-.19-.17-.43l-.67-1.23.09-.1-.09-.27c.12-.18.57-.88.79-.8.02,0,.05.01.07.02l.34.2c.17.11.15.11.3.14"/>
      <path class="cls-1" d="M99.8,134.1c-.17.05-.28-.14-.64.51l-1.04,1.95c-.08.21.01-.01-.08.2l-.09.17c-.15.31.67,1.34.72,1.42l.33.96c.05.26.12.11-.09.36-.4-.14-.87-1.03-1.03-1.4-.13-.31-.18-.46-.19-.75l.22-1.48c.11-.31.15-.42.32-.75.21-.41.1-.33.42-.75.66-.88.85-1.37,1.99-2.21.32-.24.77-.67,1.16-.73.14-.02.32,0,.44.13.39.45-.62.34-1.19.84l-1.13,1.1c-.31.43.05-.04-.12.42"/>
      <path class="cls-22" d="M94.91,146.63l.38.56-.22.26c-.46-.03-.34-.23-.56-.11l-.15.11s-.04.04-.05.05c-.17.16.16.54.26.7-.18.29-.14.22-.39.2-.16-.01-.21-.05-.41,0l.04.35c.08.13.15.21.14.4,0,.2-.44.62.03,1.43.15.26.42.33.61.6-1.36-.51-1.9-2.03-1.65-2.94.16-.58.18.12.38-.79.08-.34.28-.54.52-.84.22-.28.2-.53.43-.81.16-.22.2-.16.28-.32.07-.12.07-.22.2-.44.09.19.13.36.05.63-.06.23.16,0-.12.21-.35.25.18-.18-.21.04-.05.56-.38.18.03.85.21.35.31.5.6.46.07-.26.09.24,0-.12-.14-.51-.16-.11-.18-.48"/>
      <path class="cls-22" d="M112.94,129.47c-.13-.09-.07-.1-.18.01.04-.42.59-1.01.89-1.38.02-.02.16-.2.17-.21l.24-.15c-.04.24-.03.05,0,.31l.12.91c.05.3.18,1.21.27,1.4-.17-.15,0-.04-.18-.07-.23-.04-.04.06-.23-.05l-.25-.2c-.42-.3-.06.01-.21-.24-.16-.27-.13-.16-.24-.22-.44-.26-.17-.27-.39-.12"/>
      <path class="cls-14" d="M83.3,187.19c-.02.13.16,0-.17.36-.1-.07.06-.07.17.01-.56.61-.52.88-1.29.97-.34.04-.36.11-.7-.16-.2-.15-.56-.44-.48-.68.9.16,1.6.41,2.47-.51"/>
      <path class="cls-21" d="M118.45,137.52c-.46,1.22-1.36.48-1.44.25-.12-.39.6-1.23,1.44-.25"/>
      <path class="cls-15" d="M104.68,174.09c-.21.11-.15.15-.18-.08-.18.02-.09.04-.31,0-.04,0-.2-.05-.28-.08-.36-.1-.33-.1-.66-.22l-1.15-.74c-.06-.07-.31-.4-.36-.45-.33-.32.16-.2-.25-.13-.14.74-.35,2.36-1.03,2.92-.04.32.04.09-.12.47-.11.27.04-.02-.15.21-.2.21-.42.42-.62.63-1.14,1.13.03,2.23-3.16,4.24-2.96,1.87-6.43,1.26-9.58.4-1.79-.48-4.56-1.94-6.16-3.15-3.23-2.46-3.57-7.05-2.79-10.66,1.28-5.87,3.6-11.36,9.22-14.62,2.25-1.3,3.45-1.64,5.62-1.82,2.27-.19,3.34.81,5.06,2.28,2.77,2.35,4.6,6.46,6.26,7.21.48.23,2.16-3.17,2.57-3.01,2.56.98,4.9,1.32,4.59,4.87-.22,2.61-1.38,2.87-2.15,5.09-.34.98-.98,4.26-1.77,5.01-.13.45-.55.84-.98,1.1l-1.09.4s-.07,0-.11,0l-.42.1Z"/>
      <path class="cls-20" d="M99.37,171.34c.27-.16.17-.21.33,0l1.17-.57c-.05-.61-.17-1.17-.27-1.79-.11-.74.13-1.19-.01-1.74-1.29-.07-1.41.04-2.7-.37l-.91-.28c-2.03-.93-4.7-2.31-6.31-4.49,2.01.69,3.91,2.41,5.99,3.14l1.97.82c.32.09.68.15.98.22.52.12.61.07,1.15-.02.73-1.12.95-2.63,2.77-4.48-.58-.79-1.82-2.82-2.55-3.13-.6-1.26-4.93-6.05-6.96-6.52-4.18-.97-10.18,3.56-12.46,7.77-.79,1.46-1.71,3.61-2.04,5-.21.92-.53,1.68-.67,2.56-.4,2.54-.7,5.89,1.06,8.37.8,1.13,3.9,3.31,4.84,3.36,1.28.77,1.89.85,3.27,1.26.37.11.35.15.79.23l2.61.29c2.43,0,5.56-.93,6.31-3.05.07-.19.06-.18.08-.32l-4.83.52c-1.81.02-3.93-1.35-4.63-1.45-.25-.26-1.28-.87-1.71-1.2-.55-.43-1.5-1.46-1.75-1.65,0-.05-.05-.16-.03-.13.03.02.02-.08.02-.12,0-.04.06,0,.09.05.03.03.07.04.1.05l2.89,1.52c1.67,1.09,3.91,1.86,5.51,1.81.95-.03,1.9-.16,2.9-.29,1.65-.22,1.59-.4,2.95-1.36.02-.32-.06,0,.08-.32l1.05-1.94-.07.02c.06-.24.09-.35.14-.57,0-.03.02-.08.02-.11l.08-.31c-.42-.29.09-.11-.36-.1-.23,0-.1.01-.34.08-.44.14-.07.18-.58.15-.24-.18-.18-.29-.13.08h-.23c.02-.48-.14-.21-.75-.32-.52-.09-.44-.26-.84-.47l1.97-.25.02.05Z"/>
      <path class="cls-25" d="M92.38,170.24c.86.56,1.48.6,2.49.89.52.15.72.3,1.29.32.39,0,.8-.03,1.22.08.41.21.32.39.84.47.61.11.78-.16.75.3-1.28.44-3.16.21-4.37-.09l-1.16-.36s-.07-.02-.09-.02l-.18-.04c-.61-.32-1.29-.53-1.94-.86-1.66-.82-3.97-2.56-5.11-4.21,2.05.84,4.19,2.86,6.27,3.51M99.35,172.25l-.13.08c-.04-.37-.11-.25.13-.08"/>
      <path class="cls-20" d="M106.33,172.55c.63-.62.94-1.61,1.21-2.36.16-.44.61-2.11.57-2.51.38-.44.21-.87.98-2.07.45-.71.93-1.39,1.17-2.07.62-1.72-.18-3.81-2.68-4.58-.39-.13-.93-.71-1.11-.38l-1.03,1.87c-.11.21.41-.22.64-.24-.73,1.57-4.42,4.21-4.29,8.47.03.98.24,2.14.87,3.14l.72,1.05.26.12.11-.05c.15.08.31.15.52.2l.48.07.7-.13.88-.53Z"/>
      <path class="cls-25" d="M134.47,14.16s-4.43-19.46-29.38-11.92c-24.95,7.54-28.77,27.13-17.67,40.69,0,0,6.65-20.36,47.05-28.77"/>
      <path class="cls-25" d="M87.62,43.96l.29-.89c.01-.05,1.73-5.09,8.3-11.08,6.07-5.53,17.66-13.04,38.36-17.35l.5-.1-.11-.5c-.04-.16-.95-4-4.15-7.66-2.96-3.39-8.52-7.21-18.2-6.22-2.4.24-4.98.79-7.68,1.6-12.03,3.63-20.16,10.43-22.92,19.12-2.37,7.44-.54,15.58,5.01,22.36l.59.73Z"/>
      <path class="cls-10" d="M133.84,13.83c-20.65,4.38-32.27,11.95-38.38,17.55-5.21,4.76-7.41,8.88-8.17,10.6-4.9-6.37-6.47-13.89-4.29-20.75,2.66-8.37,10.56-14.93,22.25-18.46,2.63-.79,5.14-1.32,7.48-1.56,7.42-.76,13.24,1.22,17.32,5.87,2.4,2.74,3.45,5.63,3.79,6.75Z"/>
      <path class="cls-25" d="M106.64,2.31s-13.11,7.03-8.66,26.72l-.75.69s-5.45-15.49,6.51-26.84l2.9-.57Z"/>
      <path class="cls-25" d="M131.47,14.26s24.64-1.1,32.84,7.77c8.19,8.88-11.92,9.28-11.92,9.28,0,0-10.02-7.74-19.48-10.09,0,0-22.02,12.45-35.04,8.58,0,0,10.95-9.18,33.6-15.54"/>
      <path class="cls-25" d="M155.56,31.6c4.37-.45,9.82-1.6,10.99-4.56.61-1.54-.01-3.34-1.87-5.34-3.48-3.77-10.14-6.25-19.81-7.37-7.14-.83-13.36-.56-13.43-.56h-.06s-.06.02-.06.02c-22.49,6.32-33.68,15.55-33.79,15.65l-.7.59.88.26c2.52.76,5.56.95,9.01.6h0c11.46-1.18,24.54-8.19,26.24-9.12,9.19,2.35,18.99,9.87,19.1,9.95l.14.11h.18c.06,0,1.34-.03,3.16-.22"/>
      <path class="cls-10" d="M131.61,14.75c1.35-.05,24.63-.79,32.38,7.61,1.57,1.7,2.14,3.15,1.68,4.32-.76,1.91-4.46,3.34-10.15,3.92-1.39.14-2.48.19-2.89.2-1.29-.96-10.68-7.88-19.52-10.07l-.2-.06-.18.1c-.14.08-14.02,7.86-26.03,9.1-2.88.3-5.45.19-7.65-.31,2.87-2.14,13.67-9.51,32.56-14.82Z"/>
      <path class="cls-25" d="M133.59,21.19s6.02-5.06,7.48-6.97l-.89-.12s-3.98,4.41-8.5,7.33l1.91-.23Z"/>
      <path class="cls-10" d="M103.06,2.23s-3.31-2.27-6.55-1.54c-3.24.72-4.13,6.98-4.13,6.98,0,0,6.03-4.26,10.68-5.44"/>
      <path class="cls-25" d="M101.8,2.09c-3.32,1.11-6.95,3.34-8.69,4.49.47-1.98,1.59-4.97,3.52-5.4.2-.04.41-.08.62-.1,1.76-.18,3.5.49,4.55,1.01h0ZM91.71,8.76l.96-.68c.07-.04,6.02-4.21,10.52-5.36l1.07-.27-.9-.61c-.12-.08-3.05-2.06-6.21-1.74-.25.03-.5.07-.75.12-3.54.79-4.49,7.13-4.52,7.4l-.17,1.15Z"/>
    </g>
    <g>
      <path class="cls-9" d="M237.84,96.59l.05-.16c.68-2,1.59-3.88,2.82-5.41.92-1.16,1.99-2.11,3.14-2.89.87-.59,1.76-1.15,2.64-1.69.9-.55,1.8-1.11,2.71-1.61l.32-.18.34-.1c.77-.22,1.55-.35,2.35-.35,2.72,0,5.03,1.68,6.86,4.16l.04.05.04.06c.62.89,1.26,1.77,1.9,2.64l1.07,1.42v1.96c0,3.58-.64,7.04-1.71,10.33-.99,3.03-2.39,5.93-3.87,8.61-1.74,3.15-3.64,6.2-5.56,9.18-1.11,1.71-2.21,3.43-3.33,5.12l-6.9,11.15h7.56l-4.92,7.96c-3.92,6.35-9.11,9.99-15.49,9.99h-1.03l-.89-.65c-1.35-.98-2.7-1.96-4.02-2.99-1.54-1.2-2.96-2.75-3.86-4.72-3.77,5.33-8.6,8.36-14.41,8.36h-1.03l-.89-.65c-1.35-.98-2.7-1.96-4.02-3-1.48-1.16-2.85-2.63-3.75-4.49-1.44,1.67-3.11,3.03-4.84,4.16-2.42,1.58-4.98,2.77-7.62,3.62l-.24.07-.25.04c-1.07.17-2.15.27-3.23.27s-2.08-.08-3.08-.32c-1.17-.28-2.28-.87-3.32-1.58l-.18-.13c-.1-.06-.21-.11-.31-.16-.33-.18-.65-.33-.98-.49-1.1-.52-2.21-1.02-3.32-1.5-2.78-1.21-5.27-3.32-6.41-6.84-.23-.5-.43-1.02-.58-1.56l-1.5,1.06-1.92-1.47c-.07-.06-.22-.16-.31-.18-.24-.05-.54-.1-.78-.11-1,0-2-.15-2.96-.55-.66-.28-1.27-.68-1.82-1.2-1.8,2.17-3.58,4.37-5.35,6.56-1.92,2.37-3.87,4.73-5.93,6.92l-.06.08-.07.06c-1.22,1.19-2.69,1.7-4.21,1.7-1.73,0-3.36-.74-4.58-2.34l-.68-.89s0,0,0,0c-.5-.21-1.02-.43-1.53-.61l-.07-.02-.07-.03c-1.08-.43-2.12-1.03-3.03-1.88-1.5-1.4-2.31-3.52-2.31-5.88,0-.56.05-1.1.13-1.63-.05.04-.09.07-.14.1l-1.95,1.38-1.92-1.47c-.07-.06-.23-.17-.31-.19-.24-.04-.53-.1-.78-.1-1,0-2.01-.15-2.96-.55-.67-.28-1.27-.68-1.82-1.2-1.8,2.17-3.58,4.37-5.36,6.56-1.91,2.37-3.88,4.74-5.93,6.92l-.06.07-.06.06c-1.22,1.19-2.69,1.71-4.21,1.71-1.73,0-3.36-.75-4.58-2.34l-.68-.9h0c-.5-.21-1.02-.43-1.53-.61l-.07-.02-.07-.03c-1.08-.43-2.11-1.03-3.03-1.88-1.14-1.07-1.89-2.56-2.18-4.26-.89,1.53-1.86,3.02-2.94,4.32-2.38,2.87-5.2,4.79-8.39,5.75l-2.24.67-1.53-2.2c-.08-.12-.19-.22-.31-.31-.64-.31-1.28-.63-1.9-1-1.15-.62-2.21-1.48-3.05-2.68-.13-.19-.25-.37-.36-.56-.49.43-.99.83-1.5,1.23-1.37,1.13-2.84,2.03-4.39,2.69-1.73.73-3.54,1.06-5.36,1.06-.97,0-1.95-.1-2.91-.28l-.88-.16-.73-.63c-1.14-.97-2.28-1.95-3.42-2.93-2.84-2.44-5.61-5.91-5.61-10.59,0-1.72.38-3.36,1-4.86.62-1.94,1.38-3.77,2.25-5.49-.92.22-1.85.39-2.78.54-1.87.3-3.75.5-5.63.65-1.69.13-3.38.28-5.07.46-.58.06-1.17.13-1.75.2-.03.05-.06.11-.09.15-.56.92-1.12,1.85-1.69,2.77-.13.22-.28.46-.43.69.21-.06.43-.11.64-.17l10.57-2.8-6.77,10.71c-4.28,6.77-9.72,11.47-16.45,13.15l-.85.22-.84-.27c-1.95-.62-3.84-1.85-5.54-3.21-1.44-1.15-2.87-2.33-4.29-3.54l-1.7-1.47v-2.62c0-5.3,1.65-10.25,3.92-14.6l.05-.1.06-.1c.22-.37.43-.74.64-1.11-1.49-1.12-2.68-2.76-3.03-5.08-.06-.43-.1-.86-.1-1.3,0-1.8.51-3.47,1.29-4.96l.25-.47.32-.38c.2-.26.43-.72.58-1.02.38-.75.76-1.5,1.16-2.22l.05-.08.05-.08c.7-1.15,1.5-2.25,2.44-3.09l.04-.04.05-.04c1.42-1.2,3.11-1.75,4.79-1.95l5.23-.62-.15.9c.32-.6.66-1.19.99-1.78-1.44-1.17-2.57-2.81-2.81-5.13-.1-.92-.16-1.86-.16-2.8,0-1.95.29-3.86.88-5.65.56-1.66,1.3-3.24,2.1-4.72l.69-1.28,1.11-.53c.2-.11.42-.27.61-.41.49-.35.97-.72,1.44-1.1,1.64-1.29,3.45-1.96,5.38-1.96h1.42l1.08,1.17c.83.89,1.46,2,1.78,3.27,3.27-.02,6.53-.07,9.8-.18,4.3-.15,8.61-.29,12.9-.42,4.01-.13,8.02-.23,12.04-.23h7.23l-4.01,7.66c-.2.39-.46.88-.62,1.29-.14.37-.26.76-.36,1.15-.54,1.94-1.26,4.31-2.25,5.95-1.53,2.54-3.7,3.94-6.15,4.39-1.69.5-3.45.82-5.17,1.06-2.31.32-4.64.5-6.96.62-2.13.11-4.26.24-6.38.48-.57.07-1.15.13-1.73.21.17,0,.34-.02.51-.03h.11s.11,0,.11,0c1.82,0,3.69,0,5.5.17.83.08,1.66.23,2.47.4,1.04.22,2.08.48,3.11.77l6.19,1.71c2.12-1.36,4.3-2.56,6.49-3.63,2.35-1.16,4.83-1.71,7.36-1.71,2.1,0,4.16.43,6.11,1.42,1.35.68,2.54,1.64,3.55,2.87.14-.08.3-.16.45-.23l.58-.23h2.4c1.09,0,2.22.04,3.29.25,1.18.24,2.35.8,3.43,1.45l.72.43c.88-.86,1.8-1.64,2.76-2.37,2.64-1.98,5.6-3.44,8.7-3.44,1.67,0,3.28.45,4.78,1.38,1.63,1.02,2.94,2.59,3.98,4.48l.24.43v.05c1.74-1.64,3.57-3.11,5.49-4.36l.26-.17.28-.11c.97-.41,1.99-.71,3.01-.71,1.89,0,3.64.99,5.16,2.34.43.38.87.76,1.32,1.11.16.12.35.28.53.38l1.57.57c.75-.7,1.53-1.35,2.34-1.96,2.64-1.98,5.6-3.44,8.7-3.44,1.67,0,3.28.45,4.78,1.38,1.63,1.02,2.94,2.59,3.98,4.48l.24.44v.04c1.75-1.63,3.57-3.11,5.49-4.35l.26-.17.27-.11c.97-.41,1.99-.71,3.02-.71,1.88,0,3.64.99,5.16,2.34.43.38.87.76,1.32,1.11.16.12.35.28.53.38l1.97.71.58,2.64c.05.22.09.44.13.66,1.92-1.9,4.03-3.47,6.31-4.66,1.21-.63,2.42-1.26,3.64-1.86.83-.41,1.68-.82,2.53-1.16,2.5-1.01,5.15-1.69,7.79-1.69s5.31.79,7.67,2.48l.58.42.35.51c.12.12.26.23.38.32.37.29.76.54,1.14.79,1.84,1.17,3.56,2.83,4.39,5.32l.15.42c1.22-2.01,2.47-4.01,3.74-5.98,1.42-2.21,2.85-4.4,4.29-6.59l-2.89,1.59,3.92-11.43c.68-2,1.6-3.87,2.82-5.41.92-1.16,1.99-2.12,3.14-2.9.87-.59,1.76-1.15,2.65-1.69.9-.55,1.8-1.11,2.72-1.61l.32-.18.34-.1c.77-.23,1.56-.35,2.35-.35,2.72,0,5.03,1.68,6.86,4.15l.04.05.03.05c.62.89,1.26,1.78,1.91,2.64l1.06,1.43v1.96c0,.71-.02,1.41-.07,2.11M235.37,107.1c-.72,1.81-1.57,3.56-2.46,5.24,1.31-2.03,2.63-4.04,3.95-6.06l-1.49.82ZM225.36,124.77c-.64.98-1.28,1.96-1.92,2.94l-6.91,11.15h1.64c.67-2.24,1.65-4.34,2.74-6.26,1.48-2.61,2.96-5.23,4.45-7.84"/>
      <path class="cls-27" d="M60.02,104.07c-2.65.82-6.51,1.36-11.58,1.61-5.07.26-8.76.66-11.07,1.22-.22,1.53-.72,3.08-1.51,4.64-.79,1.56-1.57,3.06-2.34,4.48,1.24.16,2.44.23,3.59.23h2.05c.68,0,1.37-.02,2.05-.08,2.36,0,4.1.05,5.23.15,1.13.11,2.81.46,5.04,1.07-1.24.87-2.03,1.54-2.37,1.99-.51.92-1.02,1.87-1.51,2.84-.49.97-1,1.71-1.51,2.22-.73.76-1.65,1.25-2.76,1.45-2.14.66-5.25,1.17-9.34,1.49-4.09.33-6.86.63-8.31.89-.38.3-.85.91-1.41,1.84-1.45,2.4-2.22,3.65-2.31,3.76-.98,1.68-1.97,3.34-2.95,4.98-1.03,2.04-1.54,3.96-1.54,5.75.17.05.43.07.77.07.68,0,1.47-.23,2.38-.68.38-.2,1.11-.63,2.18-1.3.43-.26.89-.48,1.38-.69.49-.2,1.32-.45,2.47-.76-3.94,6.22-8.66,10.03-14.18,11.41-1.29-.42-2.76-1.28-4.43-2.61-1.41-1.13-2.81-2.28-4.17-3.45,0-3.73,1.09-7.69,3.27-11.88,1.63-2.81,2.8-4.9,3.53-6.29-1.37-.61-2.42-1.1-3.15-1.45-1.41-.71-2.12-1.61-2.12-2.68,0-.66.21-1.4.64-2.22.34-.41.74-1.06,1.19-1.95.45-.9.8-1.58,1.05-2.04.56-.92,1.09-1.6,1.61-2.07.73-.61,1.73-.99,3.02-1.15-.04.26-.06.49-.06.69v.46c0,.57.26.9.77,1,.51.1,1.05.15,1.6.15,2.14,0,3.93-1.25,5.39-3.76,1.24-2.25,2.5-4.5,3.78-6.75-.13-.15-1.03-.72-2.69-1.69-1.28-.72-1.97-1.49-2.05-2.3-.09-.82-.13-1.54-.13-2.15,0-1.34.19-2.58.58-3.72.39-1.15.96-2.44,1.73-3.87.43-.2,1.33-.84,2.69-1.92,1.03-.82,2.14-1.23,3.34-1.23.42.46.64.92.64,1.38,0,.41-.16.87-.48,1.38-.32.51-.38.84-.16,1l1.86.69c4.41,0,8.51-.06,12.32-.19,3.81-.13,8.1-.27,12.9-.42,4.79-.16,8.77-.23,11.93-.23-.43.82-.73,1.45-.9,1.92-.17.46-.34,1-.51,1.6-.64,2.3-1.2,3.84-1.67,4.6-.85,1.43-2.12,2.28-3.78,2.53"/>
      <path class="cls-27" d="M53.54,141.18l-.39,1.61.19-.15c.85-.15,1.36-.2,1.54-.15,2.48-1.64,4.97-3.3,7.45-4.99,2.87-1.99,5.39-3.91,7.57-5.75,2.61-2.2,4.77-4.4,6.48-6.59.13-.41.2-.74.2-1,0-.92-.56-1.38-1.67-1.38-4.57,1.79-8.66,4.29-12.26,7.51-3.17,2.86-6.21,6.49-9.11,10.89M84.85,138.19c-2.01,4.45-3.85,7.67-5.52,9.66-1.84,2.25-4.04,3.76-6.61,4.52-.42-.62-.96-1.13-1.6-1.53-.85-.41-1.5-.74-1.93-1-.77-.41-1.34-.9-1.73-1.46-.51-.71-.77-1.63-.77-2.76l.38-3.07c-.6.46-1.92,1.64-3.98,3.53-.89.82-1.71,1.51-2.44,2.07-1.11.92-2.3,1.65-3.56,2.19-1.26.53-2.64.8-4.14.8-.73,0-1.52-.07-2.38-.23-1.5-1.27-2.63-2.25-3.4-2.91-2.61-2.25-3.91-4.42-3.91-6.52,0-.87.21-1.79.64-2.76,1.62-5.21,4.53-9.89,8.73-14.03,3.64-3.58,8.21-6.72,13.73-9.43,1.88-.92,3.87-1.38,5.97-1.38,1.71,0,3.27.36,4.69,1.07,1.41.71,2.5,1.84,3.27,3.37-.13.77-.02,1.27.32,1.53.35,0,.69-.15,1.03-.46,1.2-1.07,1.86-1.64,1.99-1.69h1.79c1.16,0,2.06.06,2.7.19.64.12,1.43.47,2.37,1.04-1.2,3.32-2.89,6.78-5.07,10.35-5.99,9.76-9.15,15.03-9.49,15.8v.84c1.15-.36,2.31-1.02,3.46-1.99,1.41-1.18,3.23-3.09,5.45-5.75"/>
      <path class="cls-27" d="M98.94,151.53c-.47.46-1.09.69-1.86.69-.77,0-1.37-.28-1.8-.84-.17-.87-.92-1.58-2.25-2.15-.86-.36-1.43-.58-1.73-.69-.77-.31-1.4-.69-1.89-1.15-.49-.46-.74-1.1-.74-1.91,0-.72.21-1.51.64-2.38.81-2.2,2.03-4.83,3.66-7.9,1.37-2.5,2.74-5.03,4.11-7.59,1.54-3.01,2.65-5.73,3.34-8.13-.85,0-1.82.29-2.89.84-.56.36-1.11.69-1.67,1-.13.05-.5.19-1.13.42-.62.23-1.5.48-2.66.73,1.63-2.25,3.47-4.14,5.52-5.68,2.44-1.84,4.69-2.76,6.74-2.76,1.11,0,2.14.29,3.08.88.94.59,1.77,1.55,2.5,2.87.3.92.45,1.84.45,2.76,0,.87-.04,1.49-.13,1.88-.08.38-.51,1.7-1.28,3.95,2.44-2.61,4.26-4.52,5.45-5.75,2.06-2.09,4.11-3.81,6.16-5.14.73-.31,1.32-.46,1.79-.46.86,0,1.84.49,2.95,1.46,1.37,1.23,2.33,1.94,2.89,2.14.17.77.26,1.56.26,2.38,0,1.33-.3,2.74-.9,4.22-1.63,4.04-2.48,6.26-2.56,6.67-.38.56-.99,1.92-1.8,4.07-.6,1.64-1.47,2.86-2.63,3.68-.6-.46-1.19-.74-1.77-.84-.57-.1-1.02-.16-1.31-.16-.69,0-1.27-.1-1.76-.31-.49-.2-.95-.63-1.38-1.27-.43-.64-.65-1.29-.65-1.95,0-.36.09-.85.26-1.46-1.32,1.43-4.43,5.16-9.3,11.19-2.22,2.76-4.13,4.98-5.71,6.67"/>
      <path class="cls-27" d="M136.59,151.53c-.47.46-1.09.69-1.86.69-.77,0-1.37-.28-1.8-.84-.17-.87-.92-1.58-2.25-2.15-.86-.36-1.44-.58-1.73-.69-.77-.31-1.4-.69-1.9-1.15-.49-.46-.73-1.1-.73-1.91,0-.72.21-1.51.64-2.38.81-2.2,2.03-4.83,3.65-7.9,1.37-2.5,2.74-5.03,4.11-7.59,1.54-3.01,2.65-5.73,3.34-8.13-.85,0-1.82.29-2.89.84-.56.36-1.11.69-1.67,1-.13.05-.5.19-1.12.42-.62.23-1.51.48-2.66.73,1.62-2.25,3.46-4.14,5.52-5.68,2.44-1.84,4.69-2.76,6.74-2.76,1.11,0,2.14.29,3.08.88.94.59,1.77,1.55,2.5,2.87.3.92.45,1.84.45,2.76,0,.87-.04,1.49-.13,1.88-.09.38-.51,1.7-1.28,3.95,2.44-2.61,4.26-4.52,5.45-5.75,2.05-2.09,4.1-3.81,6.16-5.14.72-.31,1.32-.46,1.79-.46.86,0,1.84.49,2.95,1.46,1.37,1.23,2.33,1.94,2.89,2.14.17.77.26,1.56.26,2.38,0,1.33-.3,2.74-.9,4.22-1.63,4.04-2.48,6.26-2.57,6.67-.38.56-.98,1.92-1.79,4.07-.6,1.64-1.48,2.86-2.63,3.68-.6-.46-1.19-.74-1.77-.84-.58-.1-1.01-.16-1.31-.16-.69,0-1.27-.1-1.76-.31-.49-.2-.95-.63-1.38-1.27-.43-.64-.64-1.29-.64-1.95,0-.36.08-.85.26-1.46-1.33,1.43-4.43,5.16-9.31,11.19-2.23,2.76-4.13,4.98-5.71,6.67"/>
      <path class="cls-27" d="M184.12,125.85c-.13.15-.83.79-2.12,1.91-.94.87-1.49,1.61-1.67,2.22.47.15.92.23,1.35.23.85,0,1.79-.26,2.82-.77,1.24-.71,2.14-1.23,2.69-1.53,1.88-1.64,3.08-2.78,3.6-3.45.72-.97,1.2-1.94,1.41-2.91-1.41.15-3.12.92-5.13,2.3-1.63,1.12-2.61,1.79-2.95,2M179.37,136.74c-.13-.46-.53-.99-1.22-1.61-.68-.62-1.11-1.13-1.29-1.53-1.37,1.38-2.44,2.9-3.21,4.56-.77,1.66-1.16,3.44-1.16,5.33.86.67,1.84.99,2.95.99,1.24,0,2.81-.41,4.69-1.23.85-.41,1.73-.82,2.63-1.23l8.28-4.61c.38.67.72,1.34,1.03,2,.55,1.23.83,2.4.83,3.53-1.24,2.09-3.08,3.93-5.52,5.52-2.01,1.33-4.28,2.4-6.8,3.22-.98.15-1.9.23-2.76.23-.94,0-1.74-.08-2.38-.23-.64-.16-1.37-.52-2.18-1.08-.34-.31-2.14-1.18-5.39-2.61-2.27-.97-3.66-2.43-4.17-4.37-.52-.97-.77-2.09-.77-3.37,0-.86.16-2.15.48-3.83.32-1.69.48-2.88.48-3.6,3.42-4.98,5.39-7.8,5.9-8.47,2.31-2.87,4.87-5.04,7.67-6.5,2.8-1.47,4.76-2.43,5.87-2.89,2.44-.98,4.64-1.47,6.61-1.47,2.14,0,4.07.62,5.78,1.85.38.56,1.26,1.29,2.63,2.15,1.37.87,2.23,1.82,2.57,2.85.04.36.06.9.06,1.62,0,3.03-1.05,5.82-3.15,8.38-1.7,2.1-4.06,3.98-7.05,5.62-1.37.57-2.59.99-3.66,1.27-1.07.28-2.25.42-3.53.42-.89,0-1.62-.05-2.19-.15-.55-.1-1.23-.35-2.05-.76"/>
      <path class="cls-27" d="M220.44,124.61l-12.97,20.93v1h.78c.74,0,1.63-.28,2.67-.84.52-.26,1.02-.51,1.5-.76.48-.26,1.02-.46,1.63-.61,1.35-.35,2.04-.53,2.09-.53-3.34,5.41-7.49,8.11-12.45,8.11-1.75-1.27-3.06-2.24-3.91-2.91-1.63-1.28-2.59-2.64-2.88-4.07,0-2.81.98-5.95,2.95-9.43,1.63-2.86,3.25-5.72,4.87-8.59,2.14-3.73,4.36-7.37,6.64-10.92,2.29-3.55,4.61-7.12,6.96-10.69,2.69-4.19,4.98-7.84,6.87-10.96v-.31l-7.96,4.37c.55-1.62,1.22-2.91,1.99-3.88.6-.76,1.35-1.44,2.25-2.05.51-.35,1.35-.89,2.5-1.6,1.16-.71,2.01-1.21,2.57-1.52.51-.15,1-.23,1.47-.23,1.41,0,2.76.87,4.04,2.61.64.92,1.3,1.84,1.99,2.76,0,2.76-.47,5.57-1.41,8.43-.73,2.25-1.88,4.81-3.46,7.67-1.32,2.4-3.12,5.36-5.39,8.89-1.12,1.74-2.22,3.45-3.34,5.13"/>
      <path class="cls-27" d="M244.65,124.61l-12.97,20.93v1h.78c.74,0,1.63-.28,2.67-.84.52-.26,1.02-.51,1.5-.76.48-.26,1.02-.46,1.63-.61,1.35-.35,2.04-.53,2.08-.53-3.34,5.41-7.49,8.11-12.45,8.11-1.75-1.27-3.06-2.24-3.91-2.91-1.63-1.28-2.59-2.64-2.89-4.07,0-2.81.98-5.95,2.95-9.43,1.62-2.86,3.25-5.72,4.88-8.59,2.14-3.73,4.35-7.37,6.64-10.92,2.29-3.55,4.61-7.12,6.96-10.69,2.7-4.19,4.98-7.84,6.87-10.96v-.31l-7.96,4.37c.56-1.62,1.22-2.91,1.99-3.88.6-.76,1.35-1.44,2.24-2.05.51-.35,1.35-.89,2.5-1.6,1.16-.71,2.01-1.21,2.56-1.52.52-.15,1.01-.23,1.48-.23,1.41,0,2.76.87,4.04,2.61.64.92,1.3,1.84,1.99,2.76,0,2.76-.47,5.57-1.41,8.43-.73,2.25-1.88,4.81-3.46,7.67-1.32,2.4-3.12,5.36-5.39,8.89-1.11,1.74-2.22,3.45-3.34,5.13"/>
      <path class="cls-9" d="M214.04,168.46c2.45-1.69,5.19-3.1,8.21-4.15l.35-.12.37-.08c.76-.16,1.52-.28,2.29-.4.97-.15,1.98-.28,2.97-.28,1.37,0,2.71.2,3.96.64,1.42.49,2.58,1.29,3.44,2.29.93.43,2.06.96,2.72,1.53l.07.06.07.06c.71.67,1.26,1.43,1.67,2.24.47.91.71,1.87.71,2.86,0,.81-.16,1.61-.51,2.37-.51,1.33-1.18,2.64-2.12,3.82-.4.5-.85.98-1.35,1.41,1.04,1.01,1.6,2.23,1.6,3.54,0,.55-.1,1.08-.27,1.61-.13.38-.27.77-.41,1.15-.02.08-.06.17-.07.25v3.05l-4.02.48c-.46.06-.94.11-1.41.12-.59,1.8-1.81,3.46-3.31,4.93-.93.92-2.07,1.81-3.12,2.64l-1.4,1.11h-.85c-.69.46-1.44.89-2.29,1.16-.65.2-1.33.35-2.03.41-.48.04-.97.07-1.45.07-1.43,0-2.85-.2-4.18-.61-.7-.21-1.36-.48-2-.77-1.01-.03-2.04-.11-3-.31-1.84-.4-3.44-1.18-4.63-2.34-.73-.72-1.36-1.47-1.87-2.28-1.14,1.47-2.35,2.92-3.62,4.33l-.39.44-.54.33c-1.27.78-2.78,1.25-4.42,1.25-1.99,0-3.71-.72-5.06-1.81-.42-.34-.83-.68-1.24-1.03l-1.92-.28-.96-1.89c-.07-.15-.15-.3-.22-.46-.41.64-.83,1.28-1.26,1.91l-.31.45-.5.41c-1.12,1.17-2.78,1.92-4.7,1.92-.8,0-1.57-.13-2.31-.35l-2.48-.73-.29-1.19c-.24-.12-.47-.26-.68-.39-.02.02-.04.03-.07.04-.55.4-1.13.8-1.7,1.19-1.88,1.4-4.23,2.21-6.86,2.21h-1.22l-.28-.07h-.83l-1.23-.67c-1.21-.65-2.34-1.43-3.21-2.35l-.02-.04-.03-.03c-.22-.25-.42-.51-.6-.77-.04.03-.07.05-.11.07-2.7,1.72-5.82,2.79-9.28,3.16l-.32.03h-.32c-.44,0-.88.02-1.31.03-.55.02-1.1.05-1.65.08h-.14s-.14,0-.14,0c-1.5,0-3.03-.13-4.43-.54-.37-.11-.72-.23-1.06-.38-.28.23-.57.45-.88.66l-3.23,2.16-3.12-2.25c-.89-.65-1.65-1.38-2.32-2.16-.49-.59-.99-1.17-1.49-1.76l-.26-.32c-.8.88-1.67,1.72-2.64,2.44-1.79,1.33-3.95,2.26-6.43,2.49l-.58.05-.58-.05c-1.76-.17-3.35-.75-4.69-1.64-1.08-.72-1.97-1.57-2.63-2.54-.87.84-1.76,1.67-2.67,2.49l-1.42,1.27h-2.17c-2.16,0-3.9-.85-5.29-2.01h-1.28l-1.36-1.87c-.07-.09-.13-.18-.19-.27-.97,1.26-2.01,2.5-3.17,3.64l-2.74,2.69-3.67-1.93c-.89-.46-1.68-1.08-2.39-1.7,0,0,0,0,0,0l-.68-.15c-1.45,1.16-3.58,1.62-5.6,1.16l-1.09-.25-.82-.61c-.27-.21-.6-.43-.94-.68-1.2.79-2.5,1.48-3.91,2.04l-1.04.4h-1.16c-1.97-.02-3.81-.55-5.38-1.46-.65-.38-1.3-.76-1.96-1.13-.16-.09-.33-.19-.51-.28l-.49-.09c-.71.7-1.58,1.29-2.62,1.75l-.54.23-.6.11c-1.9.38-3.85.63-5.81.76-2.03.13-4.08.18-6.12.18h-4.93c-2.24,0-4.24-.75-5.68-2.07-1-.93-1.65-2.01-1.99-3.17-.18-.25-.4-.51-.59-.74-.79-.96-1.25-2.04-1.25-3.18,0-.05,0-.1,0-.14-.34.15-.69.29-1.05.43h-.04s-.04.03-.04.03c-.71.27-1.46.46-2.22.58l-2.84,3.14c-1.19,1.32-2.59,2.59-4.25,3.57-1.9,1.13-4.11,1.84-6.53,1.84h-.91l-.29-.03c-2.25-.21-4.05-1.23-5.44-2.55-.39-.37-.88-.85-1.34-1.2l-1.58-.85-.23-1.65c-.08-.58-.13-1.17-.13-1.77,0-2.89,1.5-5.76,3.28-8.25.68-.95,1.56-2.13,2.04-3.14v-.03c-1.39-.76-2.43-1.82-2.97-3.09-.44-1.04-.6-2.13-.6-3.22v-2.62l.59-.83c2.19-3.05,5.45-5.31,9.56-6.77,3.61-1.27,7.48-1.82,11.43-1.82,2.6,0,5.49.14,7.97.79,3.51.91,6.19,2.74,7.67,5.37l.04.07.03.07c.21.42.36.85.46,1.29,1.18-1.37,2.36-2.72,3.54-4.1l.17-.2.2-.18c.54-.48,1.12-.95,1.72-1.38.93-.67,1.98-1.27,3.18-1.62l.18-.05.18-.04c.59-.13,1.19-.17,1.8-.17,1.22,0,2.55.3,3.71.59l1.68-.3,1.79,1.09c1.48.91,2.36,2.23,2.36,3.69,0,.77-.24,1.51-.69,2.19l-.07.1-.23.3-.03.04-.12.19-.06.09c-1.7,2.4-3.5,4.78-5.29,7.14-1.72,2.28-3.49,4.58-5.09,6.91-.53.76-1.04,1.53-1.53,2.31.1,0,.19,0,.29-.01,1.9-.06,3.82-.12,5.72-.14.06-.39.13-.77.22-1.16.25-1.06.59-2.1.98-3.14,1.26-3.24,2.85-6.4,4.83-9.42,1.98-3.03,4.38-5.93,7.33-8.45.71-.62,1.56-1.12,2.54-1.47.94-.33,1.94-.51,2.97-.51.93,0,1.85.15,2.74.34.14.03.3.06.44.1l2.84-.66,1.97,2.13c.37.4.66.84.88,1.29.14.28.25.57.32.87.09-.11.17-.22.26-.33.57-.75,1.14-1.5,1.74-2.23l.88-1.08,1.56-.42c.64-.17,1.3-.24,1.98-.24,1.59,0,3.02.5,4.12,1.33.7.23,1.35.55,1.96.93.96.61,1.66,1.39,2.14,2.26.56-.43,1.19-.81,1.87-1.12,1.47-1.19,3.44-1.83,5.66-1.83h1.05l1.25-.45h1.05c.2,0,.43,0,.63-.01.25-.03.49-.04.73-.07l.3-.03h.3c.94,0,1.87.12,2.75.38,1.25.38,2.27,1.06,3,1.93l.75.9v1.2s.08-.06.12-.09c2.49-1.78,5.25-3.37,8.29-4.55l.21-.08.22-.06c.76-.22,1.56-.35,2.38-.35,2.09,0,3.95.75,5.25,2,.54.51,1.02,1.19,1.46,1.79l.04.05c2.1-1.11,4.41-1.96,6.91-2.58,4.16-1.02,8.64-1.37,12.98-1.37,2.09,0,4.1.38,5.95,1.12,2.37.95,4.17,2.42,5.21,4.32l.37.68v.74c0,.2.16.55.24.75.11.25.23.52.35.8.8-1.03,1.64-2.04,2.54-3.01,1.52-1.64,3.25-3.16,5.21-4.49l1.34-.92h1.79c1.13,0,2.24.11,3.33.34,1,.21,1.98.5,2.93.82l3.68,1.22c.17-.08.34-.14.52-.21.31-.11.64-.2.96-.26l.04-.09,2.34-.57c1.05-.25,2.11-.5,3.16-.75l.68-.16h.71c.99,0,1.95.15,2.85.48.83.3,1.55.73,2.19,1.23l.97.75s.01-.02.01-.03l.37-.63,6.3-4.68,2.94,4.32s.08.12.13.16c.43.3.85.59,1.28.88.81.56,1.5,1.21,1.98,1.97.05.08.1.17.14.25M130.24,181.22c-1.12,1.75-2.24,3.49-3.35,5.24-.22.37-.45.74-.66,1.12l.66-.19c.17-.29.36-.58.56-.87l.03-.04.03-.05c1.17-1.59,2.33-3.18,3.51-4.77-.27-.14-.53-.28-.79-.44"/>
      <path class="cls-27" d="M10.47,177.46c.11.18.33.3.66.36.32.06.63.12.93.17.3.05.5.08.62.12.3.12.55.22.76.29-.34.35-.7.61-1.06.76-.35.16-.7.25-1.05.25-.3,0-.66-.04-1.07-.12-.42-.07-.83-.15-1.24-.22-.71-.32-1.19-.77-1.43-1.34-.24-.57-.36-1.27-.36-2.09v-1.67c1.68-2.34,4.14-4.07,7.39-5.22,2.8-1,5.95-1.49,9.45-1.49,2.78,0,4.93.2,6.45.6,2.3.6,3.91,1.71,4.83,3.35.17.32.25.63.25.93s-.11.78-.31,1.45c-.12.38-.17.66-.17.86,0,.24.04.46.12.63.08.17.2.34.37.49,0,3.01-1.14,5.76-3.41,8.27-2.05,2.23-4.63,3.96-7.76,5.18-.73.27-1.59.41-2.58.41-1.24,0-2.39-.19-3.45-.6-.41-.2-.76-.52-1.03-.97-.14-.22-.35-.68-.65-1.38-.88.89-1.83,2.26-2.86,4.1-.51.89-1,1.79-1.48,2.68-.34.45-.52.89-.52,1.31,0,.1.02.25.07.45.32.17.67.26,1.03.26.32,0,.7-.07,1.14-.22.07-.03.44-.17,1.1-.45.18-.08.43-.16.76-.26.6-.18,1.13-.31,1.59-.41-1.11,1.22-2.19,2.14-3.24,2.76-1.22.72-2.44,1.08-3.65,1.08h-.62c-.78-.07-1.56-.48-2.34-1.23-1.08-1.02-1.78-1.62-2.1-1.78-.07-.5-.1-.96-.1-1.38,0-1.82.89-3.97,2.69-6.48,1.19-1.67,1.98-2.88,2.34-3.65,2.21-2.91,4.41-5.82,6.62-8.76-1.59.35-2.81.7-3.69,1.05-1.17.49-2.16,1.14-2.97,1.93M24.3,173.8c0,1.52-.65,3.17-1.93,4.96-1.84,2.56-2.86,4.06-3.07,4.51.09.3.41.45.96.45.19,0,.44-.03.76-.08,2.25-.8,4.15-1.86,5.72-3.21,1.79-1.57,2.86-3.3,3.21-5.22-.23-.38-.55-.66-.95-.86-.4-.2-.85-.33-1.35-.39-.49-.06-1.04-.11-1.65-.13-.61-.03-1.18-.04-1.7-.04"/>
      <path class="cls-27" d="M55.65,169.26l-.14.19-.14.22c-1.04,1.47-2.78,3.82-5.22,7.05-2.45,3.23-4.18,5.58-5.19,7.05-1.79,2.6-3.31,5.11-4.55,7.53l.82.3c1.4,0,3.69-.05,6.86-.15,3.17-.1,5.56-.14,7.17-.14,0,1.74-.21,2.99-.64,3.74-.43.76-1.04,1.31-1.84,1.66-1.63.32-3.31.54-5.03.65-1.72.11-3.63.17-5.72.17h-4.92c-.8,0-1.48-.26-2.03-.76-.55-.51-.91-1.15-1.07-1.92-.02-.17-.4-.71-1.14-1.6-.35-.43-.52-.84-.52-1.23,0-.17.04-.37.1-.6.76-2.61,2.05-5.33,3.86-8.16,1.31-2.06,3.16-4.51,5.55-7.34,1.95-2.26,3.91-4.52,5.86-6.78.51-.45.96-.82,1.38-1.12.62-.45,1.15-.73,1.59-.86.12-.03.29-.04.52-.04.39,0,1.15.14,2.28.42.55.14,1.01.21,1.38.21.26,0,.45-.01.58-.04.37.22.56.5.56.82,0,.17-.06.35-.17.52l-.17.23Z"/>
      <path class="cls-27" d="M77.89,195.9s-.26.21-.66.56c-.25.22-.54.3-.86.22-1.15-.84-1.77-1.32-1.86-1.42-.69-.67-.99-1.39-.9-2.17,0-.24.08-.58.24-1.01.16-.44.25-.7.27-.8-1.42,1.54-2.58,2.68-3.48,3.42-1.45,1.2-2.96,2.1-4.55,2.72-.89,0-1.74-.24-2.55-.71-2.11-1.23-3.31-1.88-3.59-1.93-.64-.64-1.09-1.38-1.36-2.2-.26-.82-.4-1.73-.4-2.72s.1-1.86.31-2.74c.21-.89.49-1.8.86-2.74,1.24-3.2,2.74-6.15,4.52-8.82,1.95-3.01,4.17-5.57,6.65-7.68.28-.25.59-.43.95-.56.36-.12.69-.19,1.02-.19.35,0,.84.07,1.48.2.64.14,1.06.22,1.26.24.2.02.38.04.57.04.23,0,.51-.04.83-.11.11.12.22.28.31.47.09.19.14.39.14.62,0,.35-.15.73-.45,1.15-.09.12-.26.35-.52.67-.6,1.06-1.95,3.18-4.07,6.33-1.76,2.63-3.1,4.84-3.99,6.63-1.29,2.56-2.09,4.95-2.41,7.18.74,0,1.52-.29,2.36-.88.84-.58,1.63-1.15,2.4-1.69,1.88-1.89,3.9-4.12,6.07-6.71,1.47-1.76,3.35-4.13,5.65-7.11,3.36-4.38,5.22-6.79,5.58-7.23.09-.02.23-.04.41-.04.35,0,.66.14.95.43.29.28.61.47.97.53.36.06.74.22,1.15.48.42.26.73.68.96,1.25-.78,2.29-1.73,4.6-2.86,6.93-.92,1.91-2.09,4.1-3.51,6.56-.71,1.22-1.56,2.63-2.55,4.26-.3.49-1.19,1.91-2.65,4.24-1.33,2.13-2.23,3.58-2.69,4.32"/>
      <path class="cls-27" d="M101.38,196.98c-.69,0-1.47-.45-2.35-1.34-.44-.45-.92-.67-1.45-.67-.25-.35-.42-.7-.52-1.06-.09-.36-.14-.74-.14-1.14,0-.25.03-.68.07-1.29.05-.61.07-.96.07-1.06,1.04-3.73,2.08-7.47,3.14-11.22-.62.77-1.4,1.83-2.34,3.16-1.29,1.82-2.56,3.62-3.83,5.44-1.65,2.36-2.87,4.08-3.65,5.17-1.4,1.99-2.74,3.62-4.03,4.88-.39-.21-.89-.57-1.5-1.1-.61-.54-1.19-.87-1.74-.99-.09-.4-.14-.84-.14-1.34,0-1.51.55-3.18,1.65-4.99.94-1.49,1.9-2.99,2.86-4.51,1.24-1.61,2.16-2.82,2.76-3.61,1.17-1.51,2.13-2.67,2.89-3.46.6-1.12,1.63-2.45,3.1-3.98.69-.72,1.37-1.44,2.05-2.14.68-.71,1.12-1.15,1.33-1.32.46-.38,1-.66,1.62-.86.62-.72,1.49-1.08,2.62-1.08h.69c.23.07.4.14.5.19.1.05.23.08.36.08.16,0,.33-.05.52-.15.19-.1.37-.2.55-.3l.72-.26c.46,0,.84-.01,1.14-.04.3-.02.57-.05.83-.07.39,0,.73.05,1.02.13.28.09.53.26.74.5,0,.8-.12,1.59-.38,2.38-.39,1.22-.77,2.43-1.13,3.62-.14.15-.24.43-.31.84-.07.41-.18.72-.35.91l-1.93,6.07c1.98-1.91,3.95-3.83,5.93-5.77,2.39-2.26,4.48-4.04,6.27-5.33,2.39-1.72,4.78-3.03,7.17-3.95.25-.07.48-.11.69-.11.59,0,1.12.21,1.55.63.18.17.56.66,1.14,1.45l.34.37c.09.25.16.52.21.8.05.28.07.55.07.8,0,.72-.18,1.45-.55,2.2-.14.27-.55.95-1.24,2.01-.37.55-.64,1.1-.83,1.64-1.65,2.58-3.31,5.17-4.96,7.75-1.89,3.13-3.22,5.93-4,8.38-.04.21.05.34.28.42l3.65-1.08c-1.22,1.51-2.31,2.63-3.27,3.35-1.17.87-2.41,1.37-3.72,1.49-.78-.08-1.51-.33-2.19-.78-.68-.45-1.21-.99-1.6-1.6-.2-.67-.31-1.32-.31-1.94,0-1,.24-2.1.72-3.32.18-.47.67-1.49,1.45-3.06.39-.99.97-2.06,1.75-3.21.72-.99,1.42-1.98,2.14-2.98-1.42,1.34-3.18,3.13-5.27,5.37-1.74,1.86-3.48,3.71-5.2,5.55-2.04,2.14-3.93,3.97-5.65,5.52"/>
      <path class="cls-27" d="M153.04,182.88c.37.09.7.19.98.28.29.09.51.22.67.39.71.5,1.23,1.11,1.55,1.86.32.75.48,1.56.48,2.43,0,.35-.01.62-.03.82-.02.2-.07.52-.14.97-.92,2.02-2.39,3.67-4.43,4.96-2.03,1.3-4.34,2.08-6.91,2.36-.51,0-1.04.01-1.59.04-.55.02-1.1.05-1.65.08-1.15,0-2.05-.1-2.72-.3-.92-.28-1.68-.77-2.28-1.49-.18-.22-.37-.48-.55-.77-.18-.29-.32-.56-.41-.84-.23.17-.48.44-.74.82-.26.38-.47.66-.6.86-.37.54-.65.95-.86,1.19-.39.45-.83.83-1.31,1.16-.56-.4-1.08-.9-1.59-1.49-.5-.6-1-1.18-1.48-1.75,0-2.01.74-4.08,2.21-6.22,1.31-1.78,2.63-3.58,3.96-5.37,2.18-2.88,4.37-5.76,6.55-8.64-.99,0-2.18.29-3.58.86-.71.3-1.41.6-2.1.9-.16.17-.36.33-.59.48-.23.15-.4.26-.51.33-.23.2-.35.38-.35.52l2.72,1.38c-.8.22-1.5.34-2.1.34-.67,0-1.23-.1-1.69-.28-.46-.18-.94-.48-1.44-.88-.26-.7-.38-1.5-.38-2.43,0-.82.13-1.62.38-2.39,2.46-2.22,5.61-3.8,9.47-4.75,3.22-.8,7.06-1.2,11.54-1.2,1.34,0,2.59.24,3.76.71,1.42.57,2.43,1.41,3.03,2.5,0,.52.16,1.15.48,1.9.73,1.69,1.1,2.74,1.1,3.14s-.08.76-.24,1.1c-.16.33-.44.7-.83,1.07-.46.67-.98,1.26-1.55,1.76-.57.49-1.25.97-2.03,1.42-.37.22-1.22.67-2.55,1.34-.48.25-1.03.54-1.65.86M149.25,173.03c0,1.23-.45,2.56-1.35,3.96-.76,1.21-1.52,2.41-2.27,3.6,3.19-1.12,5.45-2.13,6.75-3.01,1.31-.89,2.33-1.92,3.07-3.09-.07-.23-.22-.42-.45-.58-.23-.16-.49-.32-.79-.48-1.15-.27-2.34-.41-3.58-.41h-1.37M143.25,184.5c-1.1.57-2.09,1.45-2.96,2.64-.53.72-1.23,1.9-2.1,3.54.16.17.48.32.96.43.48.11.93.2,1.34.28,1.77,0,3.39-.27,4.86-.8,1.47-.54,2.7-1.35,3.69-2.44.41-.4.62-.86.62-1.38,0-.25-.07-.47-.21-.67-.34-.37-.75-.66-1.22-.86-.47-.2-1.14-.34-2-.43-.86-.09-1.86-.2-2.98-.32"/>
      <path class="cls-27" d="M166.83,191.99c0,.12-.03.32-.1.6-.07.27-.1.46-.1.56,0,.15.05.26.14.34.41,0,.83-.14,1.24-.41.16-.1.4-.26.72-.48.21-.12.42-.24.66-.34.23-.1.46-.2.69-.3-.11,1.07-.56,1.96-1.34,2.68-.16.15-.98.73-2.45,1.75-1.08.82-2.29,1.23-3.62,1.23-.14,0-.27,0-.41,0-.18-.05-.32-.08-.41-.08-.92-.5-1.61-.99-2.07-1.49-.53-.6-.9-1.36-1.1-2.3.32-1.74.91-3.53,1.76-5.37.18-.4,1.72-3.08,4.62-8.04,1.12-1.64,2.26-3.28,3.41-4.92,1.28-1.78,2.48-3.27,3.58-4.47,1.38-1.49,2.87-2.78,4.48-3.87.74,0,1.43.07,2.07.2.64.14,1.41.35,2.31.65-.6,1.39-1.31,2.84-2.14,4.33-.6,1.11-1.4,2.47-2.41,4.06-.39.62-1.24,1.93-2.55,3.94-.83,1.27-1.65,2.54-2.48,3.8-.83,1.26-1.62,2.56-2.38,3.89-.76,1.33-1.46,2.68-2.11,4.04"/>
      <path class="cls-27" d="M205.21,167.73l1.1-.82c.33.47.71.86,1.16,1.17.45.31.88.61,1.29.89.41.29.71.56.88.84.17.27.26.61.26,1,0,.35-.11.74-.31,1.15-1.77,4.77-3.83,9.17-6.17,13.19-2.53,4.32-5.45,8.32-8.76,12-.48.3-.96.45-1.45.45-.53,0-1.07-.23-1.62-.67-.55-.45-1.07-.89-1.58-1.34-.25-.2-.49-.35-.71-.45-.22-.1-.5-.17-.85-.22-.39-.77-.69-1.67-.91-2.68-.22-1.02-.33-2.51-.33-4.47v-1.04c.14-.79.24-1.83.31-3.11.07-1.28.11-2.42.11-3.41l-.18.22c-.82,1.42-1.8,3.13-2.93,5.14-1.61,2.91-2.59,4.66-2.93,5.25-1.13,1.94-2.21,3.67-3.24,5.18l-.28.22-.14.15c-.27.3-.57.45-.89.45-.16,0-.37-.04-.62-.11-.11-.47-.71-.98-1.79-1.53-.57-.3-.99-.68-1.24-1.15.5-2.34.99-4.1,1.45-5.29.69-1.79,1.62-3.42,2.79-4.88,1.54-2.61,3.16-5.1,4.86-7.45,1.91-2.66,3.82-5,5.75-7.01.18-.22.4-.38.66-.47.25-.09.54-.13.86-.13.37.02.63.03.79.03.3,0,.54-.04.72-.13.19-.09.33-.27.45-.54,1.03-.25,2.08-.5,3.14-.75.32,0,.6.04.84.13.24.09.52.26.84.5-.34,2.83-.61,4.95-.79,6.34-.42,3.1-.68,5.19-.79,6.26-.3,2.61-.52,4.68-.66,6.22.53-.9,1.73-3,3.58-6.34,1.72-3.08,2.93-5.23,3.62-6.44,1.33-2.37,2.56-4.49,3.69-6.38"/>
      <path class="cls-27" d="M227.67,179.03c-.16-.06-.49-.08-1-.08h-.62c.34-.71.67-1.28,1-1.69.09-.12.5-.59,1.24-1.4.42-.47.73-.87.95-1.24.22-.35.36-.75.43-1.19.02-.15-.1-.3-.38-.42-.27-.14-.45-.22-.52-.24-3.4.85-6.5,2.57-9.3,5.17-2.48,2.31-4.5,5.06-6.07,8.26-.32,1.31-.63,2.63-.93,3.95,0,.44.09.83.26,1.18.17.35.48.67.91.97,1.68,0,3.2-.52,4.55-1.56.85-.65,1.98-1.85,3.38-3.61-.11-.17-.39-.26-.83-.26h-1c-.41,0-.74-.03-.98-.09-.24-.06-.5-.24-.78-.54.21-.37.33-.75.36-1.11.04-.36.07-.77.12-1.2.05-.44.18-.82.4-1.14.22-.32.6-.56,1.16-.71,1.56-.22,3.16-.34,4.78-.34,2.92,0,5.65.39,8.2,1.17.48.4.72.86.72,1.39,0,.22-.04.45-.12.7-.08.23-.21.6-.39,1.11-.09.27-.16.49-.19.67-.04.18-.05.33-.05.45-.41.05-.7.07-.87.07-.34,0-.7-.01-1.07-.04-.37-.02-.73-.05-1.1-.07-.39,0-.78,0-1.15.02-.38.01-.72.07-1.02.17.12.45.17.86.17,1.23,0,1.59-.9,3.27-2.69,5.03-.48.47-1.41,1.25-2.8,2.34-.46,0-.99.22-1.6.65-.61.43-1.05.7-1.33.78-.27.09-.54.14-.81.17-.26.03-.56.04-.88.04-.85,0-1.66-.12-2.43-.35-.77-.23-1.52-.57-2.26-1.02h-.72c-1.08,0-1.91-.06-2.52-.19-.92-.2-1.64-.56-2.17-1.08-.85-.82-1.47-1.7-1.85-2.66-.38-.96-.57-1.98-.57-3.07,0-1.96.63-4.23,1.89-6.81.39-.8,1.06-1.99,2-3.57,2.09-2.61,4.27-4.8,6.55-6.59,2.6-2.01,5.4-3.54,8.41-4.58.48-.1,1.15-.21,2.01-.35.86-.14,1.53-.2,2.02-.2.74,0,1.41.11,2.01.32.61.21,1.12.58,1.53,1.09.19.3.51.56.97.78,1.26.6,1.95.94,2.06,1.04.37.35.68.77.93,1.27.25.49.38,1,.38,1.52,0,.45-.09.85-.27,1.23-.46,1.21-1.01,2.22-1.66,3.04-.8.99-1.81,1.75-3.03,2.27-.32.07-.59.11-.82.11-.37,0-.81-.09-1.31-.27-.81-.29-1.26-.44-1.35-.47"/>
    </g>
  </g>
</svg>