<?xml version="1.0" encoding="UTF-8"?>
<svg id="Layer_2" data-name="Layer 2" xmlns="http://www.w3.org/2000/svg" viewBox="0 0 118.07 266.96">
  <defs>
    <style>
      .cls-1 {
        fill: #fc5557;
      }

      .cls-1, .cls-2, .cls-3, .cls-4, .cls-5, .cls-6, .cls-7, .cls-8, .cls-9, .cls-10, .cls-11, .cls-12, .cls-13, .cls-14, .cls-15, .cls-16, .cls-17, .cls-18, .cls-19, .cls-20, .cls-21, .cls-22, .cls-23, .cls-24, .cls-25, .cls-26, .cls-27 {
        fill-rule: evenodd;
      }

      .cls-2 {
        fill: #5f3a16;
      }

      .cls-3 {
        fill: #010101;
      }

      .cls-4 {
        fill: #c4d3cc;
      }

      .cls-5 {
        fill: #3b4641;
      }

      .cls-28 {
        stroke: #231f20;
      }

      .cls-28, .cls-29 {
        fill: none;
        stroke-miterlimit: 2.61;
        stroke-width: .18px;
      }

      .cls-6 {
        fill: #986333;
      }

      .cls-7 {
        fill: #dc230b;
      }

      .cls-8 {
        fill: #7d918c;
      }

      .cls-9 {
        fill: #fff;
      }

      .cls-10 {
        fill: #258dc6;
      }

      .cls-11 {
        fill: #d24b51;
      }

      .cls-12 {
        fill: #090a09;
      }

      .cls-13 {
        fill: #9ba0a2;
      }

      .cls-14 {
        fill: #95595f;
      }

      .cls-15 {
        fill: #040404;
      }

      .cls-16 {
        fill: #764e2a;
      }

      .cls-17 {
        fill: #b5c3bb;
      }

      .cls-18 {
        fill: #174b93;
      }

      .cls-19 {
        fill: #62736c;
      }

      .cls-29 {
        stroke: #000002;
      }

      .cls-20 {
        fill: #c4a76d;
      }

      .cls-21 {
        fill: #2a231c;
      }

      .cls-22 {
        fill: #54625c;
      }

      .cls-23 {
        fill: #aa703a;
      }

      .cls-24 {
        fill: #f52d19;
      }

      .cls-26 {
        fill: #8f2514;
      }

      .cls-27 {
        fill: #08439c;
      }
    </style>
  </defs>
  <g id="Layer_1-2" data-name="Layer 1">
    <g>
      <path class="cls-25" d="M100.63,176.6s.28-2.5.84-8.66c0,0,4.4-1.72,5,3.43.6,5.16-5.84,5.23-5.84,5.23"/>
      <path class="cls-27" d="M58.29,235.84c.49.31-5.49-7.88-5.49-7.88l1.95-28.06-17.17-33.37c-4.3-8.35-9.55-8.85-8.81-8.89.75-.04-.81,38.7-.81,38.7,0,0,.63,9.58.07,9.5-.56-.09-1.15,4.62-1.15,4.62l1.5,2.11-1.33,12.14-3.82,4.8.51,1.5s-1.67,2.51-.84,2.71c.83.19.44,3.16.44,3.16l1.32,1.6,2.44,1.64s2.76.87,2.9.37c.13-.48,3.18-4.02,3.18-4.02l22.53,8.43,4.95-2.96s-2.35-6.07-2.37-6.08"/>
      <rect x="16.89" y="171.56" width="7.89" height="38.19"/>
      <path class="cls-10" d="M96.69,162.32c-1.38-.1-4.08-40.38-4.58-41.16-.49-.79-14.46-23.16-14.46-23.16l-12.98,2.21-13.75-5.31-4.54-6.36-8.42,13.74-4.64,25.49-3.32,7.86s1.57,14.05.45,13.71c-1.13-.35-3.18,4.94-3.18,4.94l1.5,3.35s8.1,4.54,8.38,3.89c.28-.65,24.73,9.2,24.73,9.2l19.77-3.51,11.48-1.32,3.56-3.58Z"/>
      <path class="cls-28" d="M96.69,162.32c-1.38-.1-4.08-40.38-4.58-41.16-.49-.79-14.46-23.16-14.46-23.16l-12.98,2.21-13.75-5.31-4.54-6.36-8.42,13.74-4.64,25.49-3.32,7.86s1.57,14.05.45,13.71c-1.13-.35-3.18,4.94-3.18,4.94l1.5,3.35s8.1,4.54,8.38,3.89c.28-.65,24.73,9.2,24.73,9.2l19.77-3.51,11.48-1.32,3.56-3.58Z"/>
      <path class="cls-27" d="M28.76,157.64c2.96,4.51,11.88,15.76,18.04,28.71,6.21,13.07,9.71,27.94-.19,39.95-2.01,2.45,13.38,9.58,11.16,11.54,2.64,1.93,12.92-2.28,15.28-3.38,3.56-1.69,6.47-3.65,10.87-3.68,1.01-.02,1.41-1.18,2.02,0-.22.3-.09.24-.54.4-.18.08-.54.08-.76.11-.51.03,1.3.99.76,1.04.63.3,2.8,1.48,3.27,1.45.75-.03,1.85-1.61,1.78-2.68-.1-2.18-1.47-3.33-5.66-4.62.96-.78,1.44.54,2.58.64,1.35-1.82.87-4.8-.6-6.23-2.55-2.49-3.77-1.58-4.68-2.38.2-1.59,1.45-.08,2.84.19-1.4-10.38,4.02-18.44,5.73-28.95.24-1.37.47-2.74.69-4.1.44,0,.86-.03,1.3-.06-.01-.99.43-3.73.62-4.64.28-1.34.2-3.19.42-4.8-.29.21-.59.4-.91.59-1.51-1.21.14-5.88.31-7.75.74-9.18,7.14-6.52-20.69-1.69-5.09.88-11.55.32-17.92-.89-6.35-1.21-12.65-3.11-17.38-4.88-5.79-2.17-8.52-4.86-8.38-3.89"/>
      <path class="cls-12" d="M103.2,73.32c-.45.43-.2.21-.79.75-1.67,1.55-3.74,3.38-5.16,4.16-.89-.59-2.11-2.01-4.08-1.42-.79.24-1.31.92-1.72,1.34-1.48,1.61-3.63.08-5.81,2.82-1.26,1.59-1.03,2.85-1.81,4.21-.41.14-2.66.78-3.03.81-1.6.11-1.68-2.41-5.53-1.9-1.48.19-1.81.91-2.65.13-23.88,3.01-21.95-9.31-30.29-5.34-.17,3.19-.34,6.39-.55,9.58-1.18-.03-2.36-.06-3.54-.08-.3.57-.59,1.1-.89,1.64-1.26.03-1.64.14-2.81-.19-1.72-.48-3.44-.05-4.44,1.39-.51.73-.43,1-.73,1.69-.72,1.74-5.04.46-8.68,6.28-1.64,2.63-1.36,4.37-1.81,5.37-1.81,2.93-3.61,5.85-5.42,8.75-1,1.88-.17,1.07-1.95,1.69-1.2.4-.69,1.29-1.26,2.15-.27.43-1.42,1.39-2.02,1.58-1.13.35-1.47.59-1.97,1.42-1.31,2.22.42,3.89,1.36,4.85-18.77,40.26,29.58,30.85,15.78,53,3.6-6.57,1.68-16.34-3.53-19.03-.5-.46-.04-.88-.54-1.56.07-4.83-7.22-12.17-6.17-16.68,1.34-5.53,10.19-3.58,11.28-7.45,1.62-.13,2.89-.48,3.64-1.76,1.43-2.5-.83-2.58.84-3.92,1,1.26.91,1.77.91,3.76-.01,1.42.13,2.84.18,4.26.99,16.45-2.39,14.44-2.73,18.65-.09,1.07.13,1.1.18,1.93.09,1.23-.54,4.42-.59,6.06-.07,1.78.17,1.8-.19,3.71-.96,5.1-.36,11.89-.36,17.34-.48,4.08.93,7.89,1.64,13.02.78,5.17-1.38,12.8-1.09,14.11.37,1.78.68.75.49,3.03-.09,1.21-.19,2.44-.24,3.68-.12,2.57-.14,4.91-.08,7.54-1.35.54-2.07,1.42-2.86,2.36-1.32,1.61-1.19,2.07-.45,3.94-3.16,2.58-2.18,6.82,2.16,9.66-1.4,4.05-9.86,2.28-11.33,13.63-2.77.48-3.03,1.42-2.84,4.42.16,2.82.87,3.87,2.65,4.97,1.73,1.07,3.1,1.58,5.23,2.09,1.59.38,5.06,1.16,6.59.83.8-.11,1.82.32,3.02.35,1.25,0,2.09-.32,3.1-.32,1.68.43,6.8-.86,8.49-1.42,8.2-2.66,8.65-7.33,11.21-8.62,1.22-.62,2.46-.7,3.58-1.47.61-.43.83-.54,1.36-1.16.82-.94.31-1.02.75-1.63,1.28.45,3.23.8,4.64,1.07,3.28.65,1.91.62,4.32-.45.29.51.05.22.18.59.03.05.05.11.07.16.09.18.17.35.23.51,9.88,1.36,19.33,4.02,29.65,3.81,8.07-.15,16.1-.45,14.73-9.44-.35-2.23-1.04-1.72-1.34-3.22-.36-1.77-.3-1.79-1.18-3.32-.89-.99-1.79-2.02-2.67-3.03-.44-.32-1.05-.77-1.55-1.13-.62-.43-1.25-.67-1.72-1.07-2.02-.67-3.66-1.58-5.95-2.17-2.07-.54-5.36-.57-6.81-.99-.17-.72,1.6-1.34,1.27-4-.28-2.12-1.72-1.96-3.25-2.74,1.41-2.42,1.14-5.13-1.31-7.3-1.11-.97-1.08-.7-.96-2.42.97-13.13,1.68-10.74,4.75-20.9,1.09-3.65,1.3-6.92,1.97-10.95-.58.03-1.14.05-1.72.08-.24,1.36-.46,2.74-.68,4.07-1.68,10.36-7,18.3-5.62,28.53-1.37-.27-3.47-.72-3.65.86.9.78,2.6-.54,5.11,1.91,1.42,1.42,2.26,3.75.93,5.55-1.11-.11-1.89-.91-2.83-.13.98,1.39,5.74,1.9,5.85,4.05.05,1.05-1.01,2.6-1.76,2.63-.46.03-2.57-1.13-3.2-1.42.53-.05.91-.03,1.42-.05.21,0,.57-.02.75-.08.43-.16.29-.11.51-.4-.6-1.15-3.12-1.02-4.11-1.02-4.32.05-7.17,1.99-10.68,3.65-2.31,1.07-12.39,5.23-14.97,3.33,1.83-1.61.72-3.11-.18-5.1,1.26-1.32,1.25-2.07.83-4.54,2.05-.4,8.17-3.06,10.64-4.13,1.6-.7,2.82-.99,3.02-1.96-2.3-.75-11.68,4.13-13.81,5.18-.46-2.58.07-9.58.28-12.86.08-1.15.1-.54.61-1.5-.17-1.28-.79-1.85-.5-3.19.21-.91.6-1.8.88-2.76.64-3.03,1.3-6.06,1.98-9.13.17-.99.26-2.47.48-3.38.23-.91,1-1.2,1.45-2.14.71-1.45.38-1.91-.34-2.98,4.35.75,7.11-.75,9.72-3.75.54-.64.67-.41.78-1.34-1.05-.03-1.93,1.21-2.88,1.82-.69.46-2.4,1.1-2.86,1.53.07-.38.85-3.54,1.06-4.16.87-.67,2.49-.86,3.53-1.21-.6-.62-1.86.03-3.28.18.37-2.3.51-2.89.21-5.36,4.38-.59,7.93-.65,12.11-1.88,2.32-.7,8.53-3.17,9.44-4.59-.67.06-3.27,1.56-4.37,1.96-6.28,2.33-13.16,3.27-20.01,3.27s-13.72-1.02-20.05-2.63c.92-2.12.05-4.7.01-7.19,1.51.24,3.66.99,5.26,1.39,5.95,1.5,11.63,2.34,17.27,2.31,5.63-.03,11.29-.94,17.23-3.01,1.18-.4,4.42-1.26,4.45-2.12-3.43.91-6.38,1.98-10.13,2.63-7.43,1.32-16.27,1.55-23.7.02-3.23-.81-6.45-1.61-9.67-2.41-.83-.32-.37-.08-.67-.43-1.79-.43-3.59-.89-5.38-1.34-5.02-.72-9.53-4.56-10.75-4.7-.52,1.1,2.8,3.22,4.13,3.86,2.12,1.02,4.01,1.42,6.29,2.2.35,1.64-.5,2.68.34,7.03-3.04-.97-7.58-4.02-10.38-4.43.6,2.23,7.82,4.8,10.5,5.98,1.51.67,1.27,2.39,3.65,1.72,1.08-.29,6.31,1.18,8.52,1.56,3.31.54,6.58.7,9.95.86-.1,1.69-.22,3.36-.33,5.02-.77.24-1.47-.05-2.24-.35-.74-.3-1.39-.83-2.11-.94.61,1.31,2.66,1.45,4.07,2.15-.33,1.47-.64,2.95-.97,4.43-1.71-1.13-5.12-5.12-9.44-6.68-1.01-.35-3.15-1.32-3.93-1.02.03.27.1.33.68.67,1.16.59,2.29,1.15,3.43,1.72,3.18,1.5,5.68,3.6,8.3,5.74,1.45,1.18,1.99,2.93.76,4.64-.75,1.04-.8.88-.87,2.09-.02.78-.39,1.93-.6,2.74-.51,1.88-.95,3.65-1.38,5.5-.59,2.6-2.14,6.68-1.96,8.16.11.86.35.94.41,1.37.1.56-.18.53-.46,1.21-.12,1.45.97-1.15.08,4.05-.27,1.61-.8,8.05-.5,9.47.4,1.85.8,2.63.59,4.85-.74-1.07-3.08-2.68-4.96-3.19-.41-.11-.8-.27-1.16-.38-1.05-.27-.89-.03-1.09.16,1.86.65,9,4.7,7.28,8.46-.92-.38-1.25-1-2.38-1.05.11.88.09.64.65,1.13,1.05.91,2.01,1.8,2.5,3.24.75,2.07-.77,3.84-1.94,4.4-.12-.51-.22-1.02-.34-1.56.77.46.41.54,1.32.56-.11-.86-.49-1.12-1.01-1.69-.47-.51-.88-.91-1.45-1.37-3.58-2.87-6.6-4.13-11.17-5.45-4.28-1.26-9.53-2.49-13.97-1.26-1.26.35-3.05.97-3.7,1.8.67,1.58-.75-1.18.3.41.5.77-.1-.35.25.4.53,1.15-.26.78,1.33,2.63-.3.59-.52.94-.88,1.42-1.98-1.93-5.21-4.62-1.6-8.24,1.8-1.8,2.04-.94,2.16-2.33-.81-.02-2.61.73-2.63.7-.77-1.02,1.06-2.63,1.69-3.14.79-.64,2.53-1.29,3.76-1.64,1.46-.38,2.95-.7,4.55-.83,1.01-.08,4.37.13,4.95-.16-.11-.41.5-.46-1.59-.92-3.19-.7-4.07-.29-7.04.03.29-1.18.25-3.03.62-4.48.33-1.26.21-3.08-.34-4.4-.01-.05-.04-.14-.08-.19-.14.21-.32.3-.35.94-.06,1.31.78,1.23.08,3.62-.27,1.02-1.09,3.78-.22,4.64-.85.27-1.71.54-2.58.81.24-3.78.46-6.63.46-10.52.5.35.55.51,1.08.43-.09-1.29-2.65-2.2-1.3-5.18,2.14-4.83,1.05-16.21.77-21.6-.23-4.93-.52-10.14-.54-15.05-.01-4.88.87-9.45.94-14.43.33-.27.46-.08.82-.59-.2-.13-.41-.29-.62-.46-.43-4.48,3.9-2.76,1.96-24.34-.04-.51-.16-1.31-.17-1.77-.01-.83-.09-.51.2-.86.37-.46-.13.03.59-.35.04-.03.12-.03.17-.07-1.78-.78-3.4-3.49-1.63-4.62.21,1.05-.81.86.28,1.88.35.32,1.38,1.02,2.07,1.23,18.03,5.82.47-.81,3.01-11.03,5.66,4.29,9-10.4,9.63-18.67,3.21,2.52,17.25,16.94,17.81,16.73.17-.07,10.1-11.75,11.82-14.4.09.59,7.56,5.04,9.99,16.74,1.83,3.12,4.05,8.43,5.06,11.99,3.61,12.72,3.79,26.17,2.17,39.85-.2,2.12-.39,4.21-.58,6.3,0,.91.11,1.32.64,1.72.33-.32.66-.64.97-.97.15-.94.08-1.47.17-2.36.1-.77.3-1.48.38-2.41,2.39-17.93,1.71-35.32-5.47-50.77-.6-1.23-1.09-2.33-1.75-3.43-.51-.86-.77-.64-.36-1.69,1.84-4.53.7-7.89-.29-11.89,1.73-.05,1.43,1.77,3.68,2.41.96.27,1.7.11,2.62-.21,1.1-.38,1.66-.22,2.86-.54,1.48-.4,2.94,1.15,5.08-.59,1.41-1.16,1.82-3.09,1.51-5.18.43-8.67.74-17.36.95-26.06"/>
      <path class="cls-25" d="M93.25,38.2s-4.15,12.88-3.05,16.15c1.12,3.27,2.3,7.97-1.98,12.64-2.23-1.93-4.48-3.86-6.72-5.79,0,0-5.73-3.65-22.26-1.1,0,0-3.74.11-2.86,3.97.88,3.86-1.99,11.51,13.41,14.7,15.31,3.22,15.77-8.69,15.77-8.69,0,0,1.45,10.3-1.62,17.38-3.09,7.08-10.17,7.27-10.17,7.27,0,0-.54-3.11,6.1-.43,5.02,2.55,3.14,7.38,5.21,10.52,2.04,3.16,2.89,7.21.7,10.51,2.15,3.49,6.26,16.1,6.26,16.1-.02,0,12.71-3.68,12.54-8.43-.19-4.72.58-9.93-2.15-26.78,0,0,5.78-36.12-9.18-58.04"/>
      <path class="cls-23" d="M39.27,240.21c-.84,2.04.11,3.14-.2,4.96-2.01.62-2.04-.48-3.14-1.04-.39,0-.09.29-1.3.13-.69-.11-1.16-.22-1.88-.27-1.49-.1-2.94-.1-4.42.05-2.44.27-4.92,1.02-6.75,2.1-6.57,3.78-5.56,8.02-6.43,10.97,2.23,1.1,12.28,2.23,15.25,2.01,3.47-.24,11.71-1.93,14.01-3.41,1.98-1.32,2.13-3.19,3.7-4.89,1.42-1.55,3.57-2.09,4.92-3.65,1.11-1.26,1.79-5.39.04-6.62-1.57-1.1-3.83-2.12-5.74-2.96-4.54-1.1-4.87-2.18-8.06,2.6"/>
      <path class="cls-23" d="M78.72,238.94c-4.36-1.68-4.14-3.73-8.56-2.39-3.44.89-.98,1.64-4.66,3.3-.99.46-2.3.62-3.51.4-1.22-.22-1.88-.86-2.81-1.29.72,2.31.17,3.81-1.37,5.26-.46.4-1.25.64-1.4.99,1.54.78,19.18,2.04,23,2.63,8.29,1.31,15.65,1.56,24.1.77,1.05-.1,4.78-.4,5.11-1.12.61-1.31-.92-4.13-1.65-5.07-3.65-4.56-13.9-7.68-19.07-6.9-7.56,1.13-5.87,3.79-9.18,3.41"/>
      <path class="cls-16" d="M51.44,96.7c.64.75,1.06,1.77,1.61,2.71.88,1.53,3.86,3.06,6.03,3.73,2.85.91,5.57.67,8.34-.4,1.08-.43,2.29-1.16,2.94-2.04,1.19-1.69.8-2.36-.05-3.6-.67-.94-1.34-1.77-2.08-2.68-.59-.73-.49-.54-1.68-.4-3.07.37-1.69-.78-2.99.46-.38.37-.05.29-.64.4-.73-2.01,2.62-1.69,3.97-1.83-.7-1.99-1.98-1.39-2.35-1.82-.71-.78-.84-4.4-.92-4.45-.61-.4-4.83-.4-6.05-.65-1.85-.35-3.58-.93-5.19-1.59-4.17-1.63-7.98-4.05-9.07-4.48.12,2.93.5,6.15-.46,8.81.54.45,1.76.99,2.43,1.42,1.11.94,2.23,1.85,3.33,2.76.63.83,1.23,1.72,2.32,1.85,1.48.18.51-.32,1.58.48-.34.27-.71.51-1.07.75-.04,0-.1.03-.15.05.07.19.11.35.16.51"/>
      <path class="cls-23" d="M67.79,252.84c1.69.43,4.03.59,5.77.92,7.28,1.31,10.18,2.12,18.16,2.55,6.92.35,20.38,1.02,18.19-7.54-12.63,2.71-18.57,2.82-31.51.46-3.79-.7-7.25-.7-11.04-1.08.17,1.58.29,3.14.44,4.69"/>
      <path class="cls-6" d="M13.28,257.32c.64-1.32.71.7.68-1.85-1.68.38-1.86.91-1.65,2.87.14,1.13.48,2.98,1.11,3.68,1.04,1.1,4.58,2.28,6.58,2.68,5.07,1.02,12.19.91,17.16-.19,5.75-1.26,8-2.79,11.2-7.03,3.19-4.32,7.01-1.82,7.22-6.2.08-1.56.16-2.74-.29-4.24-1.31,1.74-.38,1.61-3.61,3.51-1.8,1.07-2.57,1.96-3.56,3.81-.67,1.21-.49,1.16-1.44,2.09-.69.67-1.3,1.13-2.28,1.5-8.73,3.33-16.18,3.97-25.4,1.39-1.05-.29-1.94-.53-2.99-.88-.5-.16-.97-.32-1.45-.48-.42-.22-.84-.43-1.28-.68"/>
      <path class="cls-6" d="M57.3,251.13c1.76.29,4,1.15,5.97,1.15-.23-1.59-.48-3.17-.71-4.75-1.1-.3-4.69-1.18-5.62-1.13.12,1.58.25,3.17.36,4.73"/>
      <path class="cls-20" d="M68.79,18.13s5.62,1.88,8.79,4.32c0,0-6.43,9.04-6.93,14.52-.48,5.44.77,13.82,10.82,23.5,0,0,6.95,6.9,4.24,21.26-2.86,14.35-14.55,14.11-18.57,14.62-4,.54-10.62-2.07-13.41-7.59,0,0-6.66,2.49-8.59-.91-1.94-3.38-4.28-19.59-4.28-19.59,0,0,20.1-24.44,17.87-38.13-.92-2.12-1.82-4.24-2.74-6.36,4.27-1.88,8.52-3.76,12.79-5.64"/>
      <path class="cls-25" d="M67.68,95.84c-.2.03-.39.05-.57.08h-.18c-3.62.4-10.06-1.96-12.79-7.38-.06-.11-.11-.22-.18-.35-.12.06-.24.11-.37.14-.01.02-1.64.62-3.45.8-2.35.24-3.9-.26-4.61-1.5-1.75-3.09-3.9-17.41-4.18-19.24.81-1.02,5.38-6.76,9.69-13.84,6.35-10.5,9.1-18.73,8.14-24.5,0,0,0-.03-.01-.05-.85-1.99-1.71-4-2.57-6.01,4.07-1.77,8.14-3.57,12.21-5.37.91.32,5.35,1.93,8.14,3.94-1.21,1.74-6.3,9.39-6.75,14.38-.73,8.13,2.97,16.15,10.94,23.86.01,0,1.7,1.71,3.08,5.12,1.25,3.17,2.43,8.45,1.06,15.75-2.22,11.16-9.76,13.37-16.04,14.01-.3.02-.59.08-.87.11-.24,0-.47.03-.69.05M66.97,96.8h.2c.37-.05.78-.11,1.24-.13.29-.03.57-.06.88-.11,3.86-.4,14.2-1.47,16.87-14.78,1.42-7.51.18-12.98-1.12-16.26-1.44-3.54-3.19-5.31-3.26-5.37-7.8-7.51-11.4-15.29-10.69-23.16.47-5.28,6.77-14.19,6.84-14.3.1-.11.17-.21.25-.35-.1-.08-.22-.16-.34-.24-3.18-2.47-8.69-4.29-8.93-4.37-.05,0-.1-.03-.17-.06-4.42,1.96-8.9,3.92-13.35,5.88.97,2.26,1.93,4.48,2.89,6.71,2.11,13.34-17.57,37.49-17.77,37.73-.04.05-.08.11-.13.16,0,.08.02.13.03.18.09.67,2.37,16.31,4.33,19.75.88,1.56,2.76,2.22,5.44,1.93,1.44-.14,2.71-.51,3.32-.72,2.84,5.23,9.11,7.97,13.46,7.51"/>
      <path class="cls-16" d="M56,23.77s7.3,14.54,3.91,21.98c-3.4,7.4-5.85,10.92-19.42,22.64,0,0-14.65-25.57-13.75-31.09.91-5.51,1.55-16.48,29.26-13.52"/>
      <path class="cls-16" d="M78.19,22.18s-7.81,9.45-7.47,16.5c.32,7.03,1.33,13.87,20.44,31.67,0,0,4.88-22.81,2.09-32.14-2.85-9.34-15.06-16.02-15.06-16.02"/>
      <path class="cls-9" d="M53.91,40.83c.59,6.65-1.74,12.34-5.16,12.69-3.44.38-7.31-4.53-7.94-11.19-.63-6.68,2.28-12.56,5.74-12.94,3.44-.35,6.75,4.78,7.37,11.43"/>
      <path class="cls-25" d="M46.58,29.86c3.15-.32,6.29,4.72,6.87,11.03.58,6.28-1.61,11.89-4.74,12.21-3.02.32-6.86-4.24-7.46-10.82-.62-6.63,2.36-12.13,5.33-12.42M48.78,53.98c3.74-.37,6.2-6.17,5.57-13.2-.63-7-4.1-12.21-7.85-11.81-1.85.19-3.6,1.77-4.78,4.35-1.18,2.6-1.67,5.82-1.37,9.05.61,6.6,4.53,12.02,8.42,11.62"/>
      <path class="cls-10" d="M51.97,44.15c.38,4.3-.95,8.59-3.55,8.86-2.61.27-6.42-3.92-6.81-8.21-.39-4.32,1.96-8.29,4.57-8.56,2.62-.27,5.4,3.6,5.79,7.91"/>
      <path class="cls-25" d="M46.23,36.7c2.28-.24,4.92,3.46,5.28,7.49.41,4.4-1.01,8.16-3.14,8.37-2.29.24-5.93-3.76-6.3-7.81-.39-4.26,1.9-7.83,4.17-8.05M48.46,53.44c3.08-.32,4.33-5.05,3.95-9.34-.42-4.65-3.41-8.58-6.28-8.29-3,.29-5.38,4.62-4.99,9.02.42,4.35,4.28,8.93,7.31,8.61"/>
      <path class="cls-25" d="M42.25,47.13c.24,2.47,1.96,4.32,3.85,4.14,1.89-.22,3.27-2.36,3.05-4.86-.24-2.46-1.96-4.32-3.86-4.13-1.89.19-3.24,2.37-3.03,4.86"/>
      <path class="cls-9" d="M47.24,43.73s-.29,2.31,1.17,2.84c0,0-.08-1.61-1.17-2.84"/>
      <path class="cls-25" d="M44.92,52.23s-3.18.86-3.89,1.48c-.69.59-2.25-1.26,2.51-2.39.46.32.93.61,1.38.91"/>
      <path class="cls-9" d="M72.43,42.41c.55,6.33,4.39,11.11,8.65,10.65,4.22-.43,7.27-5.9,6.72-12.24-.54-6.33-4.44-11.11-8.7-10.68-4.24.43-7.21,5.93-6.67,12.26"/>
      <path class="cls-25" d="M79.16,30.58c3.99-.4,7.68,4.21,8.21,10.28.5,6.09-2.35,11.38-6.33,11.78-3.96.4-7.62-4.22-8.14-10.28-.52-6.09,2.26-11.35,6.26-11.78M81.1,53.52c4.51-.46,7.71-6.17,7.17-12.75-.55-6.57-4.7-11.54-9.19-11.08-4.5.46-7.67,6.2-7.09,12.75.57,6.57,4.62,11.54,9.11,11.08"/>
      <path class="cls-10" d="M73.7,44.4c.35,4.13,3.11,7.22,6.21,6.9,3.07-.32,5.31-3.92,4.96-8.05-.33-4.13-3.12-7.22-6.24-6.89-3.08.32-5.31,3.92-4.93,8.05"/>
      <path class="cls-25" d="M78.69,36.8c2.83-.3,5.41,2.6,5.73,6.5.34,3.86-1.72,7.24-4.53,7.54-2.83.29-5.39-2.6-5.73-6.5-.33-3.86,1.7-7.24,4.54-7.54M79.93,51.72c3.34-.32,5.77-4.16,5.4-8.53-.37-4.35-3.38-7.62-6.71-7.27-3.34.32-5.75,4.16-5.38,8.53.38,4.35,3.37,7.62,6.69,7.27"/>
      <path class="cls-25" d="M74.42,46.49c.23,2.47,1.9,4.32,3.76,4.13,1.88-.19,3.21-2.36,3.02-4.83-.23-2.47-1.89-4.32-3.78-4.11-1.85.19-3.2,2.33-2.99,4.8"/>
      <path class="cls-9" d="M79.2,43s-.58.08-.54.64c.05.56.34,2.71,1.84,2.25,0,0-.05-1.66-1.3-2.89"/>
      <path class="cls-25" d="M82.76,53.14s.51.94.84.89c.34-.03,3.43.75,4.67,0,1.23-.73-3.37-.97-4.36-.86-.94.08-.55-.43-.55-.43-.2.13-.39.27-.6.4"/>
      <path class="cls-25" d="M26.73,37.15s6.5,0,7.18,4.16c.36,2.09,4.05,14.26,7.6,29.03,3.55,14.74,6.79,32.14,7,44.65.06,25.06-18.01,17.44-19.11,17.55-1.08.13-16.33-2.47-16.69-7.51-.38-5.05-2.66-5.93-4.04-5.8-1.38.16-2.87-1.1-2.51-6.79.37-5.72,2.12-30.81,3.25-37.16,1.12-6.33,6.53-6.9,6.65-11.99.09-5.12,3.45-18.68,10.67-26.14"/>
      <path class="cls-25" d="M68.71,50.03c-1.25.11-2.49.22-3.74.29,0,0-.84.06-.83-.48-.01-.53,1.46-.4,2.22-.53.8-.11,2,.11,2.64-.08.62-.16.55.89-.29.8"/>
      <path class="cls-25" d="M69.85,52.64c.04.24.08.45.11.67-1.97.13-3.97.27-5.95.38,0,0-.91-.24-.92-.92,0-.69.68-.8,1.71-.24,1.05.56,5.05.11,5.05.11"/>
      <path class="cls-25" d="M70.89,56.26s1.64.14,1.43.49c-.23.37-.32.56-4.36.64,0,0-3.7-.62-5.74-1.88-2.02-1.24,2.46-.3,3.11.03.67.32,5.02.81,5.56.72"/>
      <path class="cls-25" d="M74.14,57.33s.88.02,1.05.3c.17.27.26.78-1.65,1.04-1.9.24-9.7.7-10.99.3-1.25-.4-.82-1.02.71-1,1.53.03,6.42.51,10.88-.64"/>
      <path class="cls-25" d="M70.63,78.77s.09,2.42-1.49,4.56c0,0,7.97,8.69,12.35,7.41,0,0-4.85,6.12-18.58,5.1,0,0-7.07-1.77-9.34-7.59,0,0,5.38-3.81,7.39-4.45,2.01-.65,6.25-1.61,6.54-2.42.3-.8.71-1.9-.26-3.4,1.13.26,2.25.53,3.39.8"/>
      <path class="cls-20" d="M66.37,84.41s1.92,1.04,5.55,4.43c.72.75,1.44,1.5,2.16,2.25,0,0-4.4,4.67-11.03,3.14-6.64-1.53-7.12-5.45-7.12-5.45,2.34-1.42,4.69-2.87,7.05-4.32,0,0,2.09-.32,3.38-.06"/>
      <path class="cls-25" d="M95.4,41.61s-5.19-11.19-9.3-14.57c-4.12-3.36-1,.62-1,.62,0,0,4.87,4.43,9.05,14.08.42-.02.84-.08,1.25-.13"/>
      <path class="cls-25" d="M93.25,38.2s-4.15,12.88-3.05,16.15c1.12,3.27,2.3,7.97-1.98,12.64-2.23-1.93-4.48-3.86-6.72-5.79,0,0-5.73-3.65-22.26-1.1,0,0-3.74.11-2.86,3.97.88,3.86-1.99,11.51,13.41,14.7,15.31,3.22,15.77-8.69,15.77-8.69,0,0,1.45,10.3-1.62,17.38-3.09,7.08-10.17,7.27-10.17,7.27,0,0-.54-3.11,6.1-.43,7.24-7.19,7.9-32.33,15.44-19.78.85-11.25,8.47,6.65,8.31-.97-.24-11.43-3.22-24.98-10.37-35.37"/>
      <path class="cls-18" d="M64.1,181.71c1.18.08,2.85.46,3.91.02.84-1.23,1.01-3.69.82-5.52-1.51.05-3.01.11-4.5.13-.08,1.8-.16,3.6-.24,5.37"/>
      <path class="cls-18" d="M62.96,187.21c2.15.27,2.86.67,3.66-.77.48-.86,1.25-2.63,1.39-3.84-1.31-.13-2.64-.26-3.97-.4-.37.48-.85,4-1.09,5.02"/>
      <path class="cls-10" d="M80.2,103.28c6.52,1.16,11.38,2.98,24.07,10.06.44,0,.75-.03,1.15-.03.77-.03.75-.19.93.48-8.32,1.53-10.05,2.76-18.25,6.39-.34-7.86-4.39-13.47-7.9-16.91"/>
      <polygon class="cls-10" points="71.89 103.31 65.55 106.04 64.09 112.75 71.89 103.31"/>
      <polygon class="cls-10" points="49.9 100.56 57.86 103.72 61.09 111.48 49.9 100.56"/>
      <path class="cls-25" d="M37.88,197.22c11.3,4.89,25.4,4.62,37.25,2.14h.02s9-1.98,9-1.98c1.09-.11,2.22-.47,3.15-.95,2.4-1.21,4.06-3.31,5-5.8.74-1.95,1.14-4,1.17-6.08.02-1.01-.08-1.86-.21-2.82.03-.25.06-.5.12-.66h0c2.05-.47,3.48-.7,5.62-.38l-1.36-.1h.11c2.72.67,3.76-2.08,3.86-5.44l-.22-9.67-8.65,2.52c-5.95.18-11.92.29-17.88.34-3.16.03-6.33.04-9.49-.02-2.13-.03-4.4-.06-6.51-.29-3.61-.4-7.34-1.11-10.91-1.79-3.18-.6-6.36-1.24-9.54-1.89-1.07-.22-2.13-.44-3.2-.66-.43-.09-.92-.21-1.37-.29-1.13-.28-2.3-.64-3.42-.96-1.19-.33-2.38-.67-3.57-1.02-2.63-.99-5.8-.44-7,2.49-.48,1.15-.83,2.69-1.13,3.96-.08.26-.15.52-.19.78l-.97,4.04,2.6.3c.65.57,1.47.99,2.4,1.2.63.14,1.85.32,2.77.58-.25,1.85-.48,3.71-.72,5.56-.33,2.57-.66,5.15-.98,7.72l-.29,2.25,1.73,1.47c.97.82,2.16,1.62,3.29,2.18.07.03,9.33,3.22,9.49,3.26"/>
      <path class="cls-16" d="M88.12,185.11c-.09.27-.15,4.32-6.77,7.26-6.61,2.94-17.89,2.1-21.62,2.29-3.74.19-3.58-2.61-3.58-2.61-1.1-9.32,3.63-16.41,3.63-16.41,0,0,.95-.95,2.26-.34,1.31.61,7.5,1.3,10.58,1.05,3.07-.25,11.99-2.38,13.53-3.08,1.54-.7,1.64.46,1.64.46,1.28,2.47.41,11.1.32,11.38M93.2,172.19s-27.46.82-34.78.02c-7.3-.81-25.04-4.63-25.35-4.67-.3-.04-7.55-2.13-7.55-2.13,0,0-1.47-.63-1.77.11-.3.73-.98,3.57-.98,3.57,0,0-.93,3.43.22,3.69.98,1.7.56,3.84,1.78,14.73,0,0,5.87,3.48,7.7,3.29,0,0-1.78-2.57-1.48-4.88.3-2.31,2.62-16.99,2.62-16.99,0,0,12.47,3.15,18.55,3.12,0,0,.3,16.34-4.25,19.25-4.55,2.92-8.65,1.97-8.65,1.97,0,0,7.26,3.57,19.04,4.46,4.65,0,17.92-.59,25.26-4.49,3.82-.11,8.34-8.62,7.14-11.77.05-.38-1.68-3.69,1.77-4.47-11.92,6.08,24.25-6.96.73-4.79"/>
      <path class="cls-2" d="M61.12,178.4s.29-1.12,1.97-.46c1.67.64,13.05,1.78,21.47-1.5,0,0,1.54-.75,1.42.15-.11.9.24,8.32.41,9,.17.69-6.25,9.76-27.74,7.1-.99.5-.78-11.86,2.48-14.29"/>
      <path class="cls-2" d="M35.38,172.39s-.17-.64.87-.39c1.05.25,11.02,1.98,13.75,1.66,0,0-.68,13.49-3.94,15.2-3.26,1.71-4.97,2.97-9.36,1.84-4.38-1.12-2.93-6.17-2.93-6.17l1.61-12.14Z"/>
      <polygon class="cls-25" points="100.63 177.23 92.74 179.71 92.74 206.69 100.63 206.69 100.63 177.23"/>
      <polygon class="cls-9" points="28.87 169.56 28.87 167.46 29.48 167.46 29.48 167.16 27.77 167.16 27.77 167.46 28.38 167.46 28.38 169.56 28.87 169.56"/>
      <path class="cls-25" d="M38.57,156.5s3.42,3.06,3.07,8.49c-.34,5.43-.23,6.17-.23,6.17,0,0-3.47-.64-3.59-.01-.11.62-2.16-6.38-2.67-6.04-.51.34-1.54,3.81-1.54,3.81,0,0-1.48,3.99-3.14,3.82-1.66-.17-.63,8.72-1.59,7.09,0,0-2.4,2.37-5.01.11-2.62-2.26-2.96-4.75-2.96-4.75l-20.91-4.41,13.33-5.61,3.3-1.59s4.96-5.6,8.72-7.47c3.76-1.87,11.68-.91,13.22.4"/>
      <path class="cls-13" d="M17.6,172.24s-.12-2.32-.74-3.34c0,0,.35-1.18-.68-1.18s-1.21-.68-1.95-.77c-.25-.03-7.13,2.66-7.68,2.9,0,0,10.2,2.35,11.05,2.4"/>
      <polygon class="cls-9" points="27.54 169.56 27.54 167.16 26.86 167.16 26.38 168.99 25.9 167.16 25.22 167.16 25.22 169.56 25.71 169.56 25.71 167.66 26.2 169.56 26.56 169.56 27.05 167.66 27.05 169.56 27.54 169.56"/>
      <path class="cls-20" d="M26.06,126.85l-6.49-4.61-9.4,2.76c-.36.51-1.75-.44-2.01-.03-6.62,10.21,1.07-6.67-3.34,5.62-2.35,6.52-4.42,15.96-.66,22.13,1.24,2.04,4.14,5.19,5.8,7.04l6.63,6.3c1.18-1.96,1.83-5.66,5.77-8.98l1.11-1.21c-.97-.57-10.3-9.3-6.17-14.46,2.68-3.36,7.06-8.07,7.76-12.63.19-1.22.07-1.61,1-1.92"/>
      <path class="cls-3" d="M26.06,126.85c-.93.3-.81.7-1,1.92-.69,4.56-5.08,9.27-7.76,12.63-4.12,5.17,5.2,13.89,6.17,14.46l-1.11,1.21c-3.94,3.31-4.6,7.02-5.78,8.98l-6.63-6.31c-1.66-1.84-4.56-5-5.8-7.04-3.75-6.17-1.68-15.61.66-22.13,4.42-12.28,10.36-22.16,16.98-32.38.26-.4.32-.52.67-1.03l.71-.86c.33-.55.74-1.07.89-1.72-.51-.9-.54-.81-1.33-1.31-1.41,2.49-3.58,5.26-5.46,8.49l-3.91,6.39c-.48.86-.91,1.46-1.36,2.32l-6.88,14.15c-2.13,5.03-4.4,11.56-4.81,17.74v3.68c.2,2.78.89,5.4,2.28,7.7,2.28,3.77,5.89,6.93,7.88,9.31.6.72,1.15,1.19,1.8,1.8.77.72,3,2.86,3.8,3.11,4.77,8.26,9.48-20.75,9.53-1.49.68-1.35-.98,3.28-.37,1.85,5.21-12.21,7.19-13.43,4.71-13.82-2.3-.36-2.98.13-4.77.62-.47-.82-1.57-1.72-2.61-2.95-1.63-1.95-3.94-3.95-4.45-6.81-.42-2.3.82-2.92,1.67-3.93,2.68-3.16,6.56-8.16,7.12-12.59.18-1.42.03-1.76-.85-2"/>
      <path class="cls-25" d="M2.2,131.07l1.48,2.19,1.49-2.19c.4-.58.86-1.21,1-1.89,3.21.32,12.82,4.39,15.57,7.17-.22.4-.37.83-.52,1.3l-.87,2.8,2.89-.49c2.88-.49,4.5-2.74,3.8-5.43l.22-.3c.69-.97,1.34-1.99,1.33-3.23-.01-1.7-1.35-3.1-2.44-4.27-1.35-1.45-2.8-2.79-4.5-3.83-4.35-2.65-8.26-2.23-13.15-1.67-5.19.94-9.91,4.47-6.29,9.83"/>
      <path class="cls-10" d="M7.45,122.7c1.03.67,3.2.84,4.03,1.81-1.83.29-4.12-1.58-5.69-.41,1.14.87,3.78.76,4.52,2.07-1,.5-3.76-1.02-5.86-.59-2.49.52-1.74,3.01-.76,4.47,1.42-2.07.4-.76.12-2.22.93-.79,2.79-.44,3.88-.26,2.51.41,15.36,6.98,16.29,8.71-.39.7-.57.44-1.03,1.9,1.89-.32,3.07-1.66,2.17-3.77-.69-1.63-2.36-2.51-2.73-3.79,1.29.47,2.47,1.81,3.42,2.57,1.5-2.1,1.41-2.72-.96-5.23-4.12-4.43-7.8-6.37-17.38-5.26"/>
      <path class="cls-25" d="M58.23,116.94c-1.96,0-3.55,1.56-3.55,3.5s1.59,3.5,3.55,3.5,3.55-1.57,3.55-3.5-1.59-3.5-3.55-3.5"/>
      <path class="cls-25" d="M56.72,130.64c-1.96,0-3.55,1.57-3.55,3.5s1.59,3.5,3.55,3.5,3.55-1.57,3.55-3.5-1.59-3.5-3.55-3.5"/>
      <path class="cls-25" d="M56.02,141.44c-1.96,0-3.55,1.57-3.55,3.5,0,1.93,1.59,3.51,3.55,3.51,1.96,0,3.55-1.57,3.55-3.51,0-1.93-1.59-3.5-3.55-3.5"/>
      <path class="cls-25" d="M55.83,156.94c-1.96,0-3.55,1.57-3.55,3.5s1.59,3.5,3.54,3.5,3.55-1.56,3.55-3.5c0-1.93-1.59-3.5-3.55-3.5"/>
      <path class="cls-25" d="M60.74,167.36l-.61-4.62s.5-2.7,1-3.8c.5-1.1,1.6-1.3,1-2.7-.6-1.4-1.7-3.8-1.7-4.9s2.3-3.9,2.3-6.1v-4.7c0-1.2.6-2.6.5-4.11-.1-1.5-1.19-5.21-1.25-6.8-.05-1.59.35-2.49.75-3.99.4-1.5,1.84-.18.8-3.2-1.04-3.02-.2-4.5-.3-5.3-.1-.8-.26-2.91-.26-2.91l.8.57.26,1.04s0,1.35-.15,1.85c-.15.5-.4.15-.15,1.7.25,1.55.35,1.35.4,1.9.05.55.45.75.45,2s.45.95-.15,1.9c-.6.95-.6,1.05-.85,1.55-.25.5-.2.15-.3,1.3-.1,1.15-.15,1.15-.15,2.05s0,.95.05,1.4c.05.45.25,1.1.45,1.9.2.8.25.45.35,1.4.1.95.3,1.4.25,1.7-.05.3-.05,1.15-.05,1.75,0,.6,0,1.1,0,1.1,0,0,.25-.4-.15.55-.4.95.1,2.5.1,2.75,0,.25-.35,1.8-.55,2.8-.2,1-.2,1.25-.45,1.85-.25.6-.6,1.4-.85,2.2-.25.8-.4.75-.4,1.85,0,1.1.3,2.85.3,3.15,0,.3.7,1.6.9,2.2.2.6,0,1-.1,1.35-.1.36-.9,1.31-1.2,1.85-.3.55-.75,1.65-.75,2s-.15.8-.15,1.55c0,.75.3,2.1.45,2.55.15.45.81,2.26.81,2.26l-1.4-.89Z"/>
      <path class="cls-29" d="M60.74,167.36l-.61-4.62s.5-2.7,1-3.8c.5-1.1,1.6-1.3,1-2.7-.6-1.4-1.7-3.8-1.7-4.9s2.3-3.9,2.3-6.1v-4.7c0-1.2.6-2.6.5-4.11-.1-1.5-1.25-5.21-1.25-6.8s.35-2.49.75-3.99c.4-1.5,1.84-.18.8-3.2-1.04-3.02-.2-4.5-.3-5.3-.1-.8-.26-2.91-.26-2.91l.8.57.26,1.04s0,1.35-.15,1.85c-.15.5-.4.15-.15,1.7.25,1.55.4,1.35.4,1.9s.45.75.45,2,.45.95-.15,1.9c-.6.95-.6,1.05-.85,1.55-.25.5-.2.15-.3,1.3-.1,1.15-.15,1.15-.15,2.05s.05.95.05,1.4.25,1.1.45,1.9c.2.8.25.45.35,1.4.1.95.25,1.4.25,1.7s-.05,1.15-.05,1.75v1.1s.25-.4-.15.55c-.4.95.1,2.5.1,2.75s-.35,1.8-.55,2.8c-.2,1-.2,1.25-.45,1.85-.25.6-.6,1.4-.85,2.2-.25.8-.4.75-.4,1.85s.3,2.85.3,3.15.7,1.6.9,2.2c.2.6,0,1-.1,1.35-.1.36-.9,1.31-1.2,1.85-.3.55-.75,1.65-.75,2s-.15.8-.15,1.55.3,2.1.45,2.55c.15.45.81,2.26.81,2.26l-1.4-.89Z"/>
      <path class="cls-15" d="M41.81,173.09c-.2.1-.15.14-.17-.08-.17.02-.08.04-.3,0-.04,0-.2-.05-.27-.08-.34-.1-.32-.1-.62-.22l-1.09-.7c-.06-.07-.3-.38-.34-.42-.32-.3.15-.19-.25-.12-.14.71-.33,2.25-.98,2.78-.04.3.04.09-.12.45-.11.26.03-.03-.14.2-.2.2-.4.41-.59.6-1.08,1.08.03,2.12-3.01,4.04-2.81,1.78-6.12,1.2-9.12.38-1.71-.46-4.34-1.84-5.86-3-3.08-2.34-3.4-6.72-2.66-10.15,1.22-5.58,3.43-10.82,8.78-13.92,2.14-1.24,3.28-1.56,5.35-1.73,2.16-.18,3.18.77,4.82,2.17.61.52.58.25,1.2.48.95.35,3.58,2.16,5.95,3.06,2.44.93,5.91,1.71,5.63,5.09-.21,2.48-1.32,2.72-2.05,4.85-.32.93-.94,4.05-1.68,4.77-.12.43-.53.81-.93,1.05l-1.04.38s-.07,0-.1,0l-.4.09Z"/>
      <path class="cls-20" d="M36.8,170.53c.26-.15.16-.2.3,0l1.12-.54c-.05-.58-.17-1.11-.26-1.7-.11-.71.13-1.13,0-1.66-1.22-.07-1.34.04-2.57-.36l-.87-.26c-1.93-.88-4.48-2.2-6.01-4.27,1.92.66,3.73,2.29,5.7,2.99l1.88.78c.3.08.64.14.94.21.5.12.58.06,1.1-.02.69-1.06.9-2.5,2.63-4.26-.55-.75-1.73-2.69-2.43-2.97-.56-1.2-4.7-5.76-6.62-6.2-3.99-.92-9.7,3.39-11.86,7.4-.75,1.39-1.63,3.44-1.94,4.77-.2.88-.51,1.6-.64,2.43-.38,2.41-.66,5.61,1,7.96.76,1.08,3.71,3.16,4.61,3.21,1.22.74,1.8.8,3.11,1.2.35.1.33.14.74.22l2.49.28c2.31,0,5.29-.9,6.01-2.91.06-.18.05-.18.07-.31l-4.6.5c-1.73.02-3.75-1.29-4.41-1.39-.23-.25-1.21-.83-1.62-1.14-.53-.41-1.44-1.4-1.67-1.57,0-.04-.05-.15-.02-.13.02.02.01-.07.01-.11,0-.03.06.01.09.05.04.03.07.03.09.04l2.75,1.45c1.59,1.03,3.72,1.77,5.25,1.73.91-.03,1.81-.15,2.76-.28,1.57-.21,1.51-.38,2.81-1.29.02-.3-.06,0,.07-.31l1-1.84h-.07c.06-.22.08-.33.13-.53,0-.03.01-.07.02-.1l.07-.29c-.4-.28.08-.11-.34-.1-.22,0-.1.01-.32.08-.42.14-.06.18-.56.14-.23-.17-.16-.28-.13.08h-.22c.02-.46-.13-.2-.72-.3-.49-.09-.41-.25-.8-.45l1.87-.24.02.05Z"/>
      <path class="cls-20" d="M43.18,171.51c.6-.59.89-1.53,1.15-2.25.15-.42.58-2.01.54-2.38.35-.42.21-.83.94-1.97.43-.68.88-1.33,1.12-1.97.58-1.64-.18-3.62-2.56-4.36-3.68-1.14-5.53-2.69-6.83-3.19-.21-.08-.16-.07-.33-.09l1.71,2.03,2.63,3.29c.52-.32.88-.73,1.4-.85-.69,1.5-4.21,4.01-4.09,8.07.03.93.22,2.04.83,2.98l.68,1,.25.12.11-.05c.15.07.29.15.49.19l.46.06.66-.12.84-.5Z"/>
      <path class="cls-25" d="M30.14,169.49c.83.52,1.42.57,2.37.85.5.14.69.29,1.23.31.37,0,.76-.03,1.16.07.39.21.31.37.8.46.59.1.74-.16.72.29-1.22.42-3.01.2-4.16-.09l-1.11-.34s-.07-.02-.08-.03l-.17-.04c-.58-.3-1.23-.5-1.85-.81-1.59-.79-3.78-2.43-4.87-4.01,1.95.8,3.99,2.72,5.96,3.34M36.77,171.39l-.13.08c-.04-.35-.1-.24.13-.08"/>
      <polygon class="cls-9" points="94.81 183.94 94.81 181.84 94.2 181.84 94.2 181.53 95.9 181.53 95.9 181.84 95.29 181.84 95.29 183.94 94.81 183.94"/>
      <polygon class="cls-9" points="96.14 183.94 96.14 181.53 96.81 181.53 97.3 183.37 97.78 181.53 98.45 181.53 98.45 183.94 97.96 183.94 97.96 182.04 97.48 183.94 97.12 183.94 96.63 182.04 96.63 183.94 96.14 183.94"/>
      <path class="cls-3" d="M92.32,126.85c.93.3.81.7,1,1.92.7,4.56,5.08,9.27,7.76,12.63,4.12,5.17-5.2,13.89-6.17,14.46l1.12,1.21c3.93,3.31,4.6,7.02,5.77,8.98l6.62-6.31c1.66-1.84,4.56-5,5.8-7.04,3.75-6.17,1.68-15.61-.66-22.13-2.26-6.29-13.99-16.92-7.86-17.34l1.95-.13,5.61,11.54c2.13,5.03,4.41,11.56,4.81,17.74v3.68c-.2,2.78-.89,5.4-2.28,7.7-2.28,3.77-5.89,6.93-7.88,9.31-.59.72-1.15,1.19-1.8,1.8-.76.72-3.01,2.86-3.8,3.11-4.77,8.26-9.48-20.75-9.53-1.49-.68-1.35.98,3.28.37,1.85-5.21-12.21-7.19-13.43-4.71-13.82,2.3-.36,2.98.13,4.77.62.46-.82,1.56-1.72,2.6-2.95,1.64-1.95,3.94-3.95,4.45-6.81.41-2.3-.82-2.92-1.68-3.93-2.68-3.16-6.56-8.16-7.12-12.59-.18-1.42-.03-1.76.85-2"/>
      <path class="cls-15" d="M76.57,173.09c.2.1.15.14.16-.08.17.02.09.04.3,0,.04,0,.19-.05.27-.08.34-.1.32-.1.62-.22l1.09-.7c.06-.07.3-.38.35-.42.32-.3-.15-.19.24-.12.14.71.33,2.25.97,2.78.05.3-.03.09.12.45.11.26-.03-.03.14.2.2.2.4.41.6.6,1.08,1.08-.04,2.12,3,4.04,2.81,1.78,6.12,1.2,9.12.38,1.71-.46,4.34-1.84,5.87-3,3.07-2.34,3.4-6.72,2.66-10.15-1.21-5.58-3.42-10.82-8.77-13.92-2.14-1.24-3.29-1.56-5.35-1.73-2.16-.18-3.17.77-4.82,2.17-.61.52-.58.25-1.2.48-.95.35-3.58,2.16-5.95,3.06-2.44.93-5.91,1.71-5.62,5.09.21,2.48,1.31,2.72,2.04,4.85.32.93.94,4.05,1.68,4.77.12.43.54.81.94,1.05l1.04.38s.07,0,.1,0l.4.09Z"/>
      <path class="cls-20" d="M81.58,170.53c-.25-.15-.16-.2-.31,0l-1.12-.54c.05-.58.16-1.11.26-1.7.11-.71-.13-1.13.01-1.66,1.22-.07,1.33.04,2.56-.36l.87-.26c1.93-.88,4.48-2.2,6.01-4.27-1.92.66-3.73,2.29-5.7,2.99l-1.88.78c-.3.08-.64.14-.94.21-.5.12-.58.06-1.09-.02-.69-1.06-.91-2.5-2.64-4.26.55-.75,1.74-2.69,2.43-2.97.56-1.2,4.7-5.76,6.62-6.2,3.98-.92,9.69,3.39,11.86,7.4.75,1.39,1.63,3.44,1.94,4.77.2.88.51,1.6.64,2.43.39,2.41.67,5.61-1,7.96-.77,1.08-3.71,3.16-4.61,3.21-1.22.74-1.81.8-3.11,1.2-.35.1-.34.14-.75.22l-2.49.28c-2.31,0-5.29-.9-6.01-2.91-.06-.18-.05-.18-.07-.31l4.59.5c1.73.02,3.75-1.29,4.41-1.39.24-.25,1.21-.83,1.62-1.14.53-.41,1.44-1.4,1.67-1.57,0-.04.05-.15.02-.13-.02.02-.01-.07-.01-.11,0-.03-.06.01-.1.05-.03.03-.07.03-.09.04l-2.75,1.45c-1.58,1.03-3.72,1.77-5.24,1.73-.91-.03-1.82-.15-2.76-.28-1.57-.21-1.51-.38-2.81-1.29-.02-.3.06,0-.07-.31l-1-1.84h.07c-.06-.22-.08-.33-.13-.53,0-.03-.01-.07-.03-.1l-.07-.29c.4-.28-.08-.11.34-.1.22,0,.1.01.32.08.41.14.06.18.55.14.23-.17.17-.28.13.08h.21c-.02-.46.14-.2.72-.3.49-.09.42-.25.8-.45l-1.87-.24-.02.05Z"/>
      <path class="cls-20" d="M75.2,171.51c-.6-.59-.89-1.53-1.15-2.25-.15-.42-.58-2.01-.53-2.38-.36-.42-.21-.83-.94-1.97-.43-.68-.89-1.33-1.12-1.97-.59-1.64.18-3.62,2.56-4.36,3.69-1.14,5.53-2.69,6.83-3.19.22-.08.16-.07.34-.09l-1.71,2.03-2.64,3.29c-.52-.32-.88-.73-1.4-.85.69,1.5,4.21,4.01,4.09,8.07-.02.93-.22,2.04-.83,2.98l-.68,1-.25.12-.11-.05c-.15.07-.29.15-.49.19l-.46.06-.66-.12-.84-.5Z"/>
      <path class="cls-25" d="M88.23,169.49c-.82.52-1.41.57-2.38.85-.49.14-.69.29-1.22.31-.37,0-.76-.03-1.16.07-.38.21-.3.37-.8.46-.58.1-.74-.16-.72.29,1.21.42,3,.2,4.16-.09l1.11-.34s.06-.02.08-.03l.17-.04c.58-.3,1.23-.5,1.85-.81,1.58-.79,3.78-2.43,4.87-4.01-1.95.8-3.99,2.72-5.97,3.34M81.61,171.39l.13.08c.04-.35.1-.24-.13-.08"/>
      <path class="cls-20" d="M92.32,126.85l6.49-4.61,6.46-3.58c.36.5,4.03-1.1,4.29-.71,6.62,10.21-.4.35,4.01,12.63,2.35,6.52,4.42,15.96.66,22.13-1.24,2.04-4.14,5.19-5.8,7.04l-6.63,6.3c-1.18-1.96-1.84-5.66-5.77-8.98l-1.12-1.21c.97-.57,10.29-9.3,6.17-14.46-2.69-3.36-7.07-8.07-7.76-12.63-.18-1.22-.06-1.61-1-1.92"/>
      <path class="cls-25" d="M113.09,122.93l-.99,2.67c-.43-1.66-2.17-4.44-2.91-4.7-3.22.21-13.2,4.04-16.04,6.72.05.09.71,3.09,1.04,4.02l-2.43-.58c-2.87-.59-4.4-2.89-3.61-5.55l-.2-.31c-.66-.99-1.27-2.04-1.22-3.27.07-1.7,1.46-3.05,2.59-4.18,1.4-1.39,2.9-2.69,4.63-3.66,4.44-2.49,8.34-1.94,13.21-1.2,5.16,1.13,9.74,4.82,5.93,10.04"/>
      <path class="cls-10" d="M108.15,114.38c-1.05.63-3.23.74-4.1,1.67,1.82.36,4.17-1.43,5.7-.21-1.17.83-3.8.62-4.59,1.92.98.53,3.79-.89,5.88-.38,2.47.61,1.64,3.07.6,4.5-1.34-2.12-.37-.77-.03-2.22-.9-.82-2.77-.54-3.86-.4-2.52.31-15.6,6.43-16.58,8.12.36.72.55.46.96,1.94-1.88-.39-3.01-1.77-2.04-3.85.74-1.61,2.45-2.43,2.87-3.7-1.3.42-2.53,1.72-3.51,2.45-1.43-2.15-1.32-2.77,1.14-5.19,4.27-4.28,8.02-6.09,17.56-4.64"/>
      <path class="cls-25" d="M56.83,34.84s1.14-1.43.4-1.59c-.73-.17-1.14-.2-1.68.73-.53.93-1.09,2.67.47,5.67,1.56,2.99,1.75,1.03.99-1.24-.76-2.26-1.18-2.53-.18-3.57"/>
      <path class="cls-13" d="M101.63,175.52c.29-.94.92-4.53.56-6.67,0,0,2.97-1.2,3.43,2.71.45,3.91-3.99,3.96-3.99,3.96"/>
      <path class="cls-23" d="M79.06,237.8c2.25-1.54,4.89-2.65,7.99-3.25-1.05-.77-.55-.52-1.89-.89-2.95.55-5.5,1.49-7.48,3.15.84.49.57.24,1.37.98"/>
      <path class="cls-23" d="M75.95,236.19c2.25-1.54,4.89-2.65,7.99-3.24-1.04-.77-.55-.52-1.88-.89-2.95.55-5.5,1.49-7.48,3.15.85.49.57.24,1.37.98"/>
      <path class="cls-23" d="M35.32,242.46c-2.69-.43-5.55-.31-8.61.47.62-1.14.27-.7,1.32-1.61,2.91-.76,5.61-.99,8.11-.33-.55.81-.42.46-.83,1.47"/>
      <path class="cls-23" d="M37.44,239.69c-2.69-.44-5.55-.32-8.61.47.62-1.14.27-.7,1.33-1.61,2.91-.76,5.6-.99,8.11-.33-.55.8-.42.46-.82,1.47"/>
      <path class="cls-23" d="M39.41,237.43c-2.67-.54-5.54-.54-8.62.11.67-1.12.3-.7,1.39-1.56,2.94-.63,5.64-.76,8.12,0-.59.78-.44.44-.89,1.44"/>
      <path class="cls-24" d="M42.79,127.95c0,.17.01.14.06.28-.22.11-.14.11-.34.13-.23-.02-.06.03-.3,0-.07-.01-.18-.04-.27-.06-.23-.05-.39-.12-.58-.13l-.17.63c-.11.64.27,1.37.98,1.67.6.26,2.42.51,3.09.72.56.17,1.98.35,2.44.44l1.8.38c.63-.45.15-.34.47-.71l.25.08c.04.14.13.59.16.81.05.26.03.74.3.71.22.32,3.28,1.91,3.79,2.18l3.86,2.05c.34-.26.24-.32.43-.46.15-.13.05-.07.2-.08,0,1.12.11.91-.95,2.34-.57.77-1.16,1.56-1.73,2.37-1.18,1.67-2.44,3.16-3.76,4.79-2.54,3.13-4.85,6.34-7.13,9.57-1.11,1.58-2.14,3.19-3.26,4.74-3.45,4.76-6.68,9.55-10.05,14.36-4.06,5.81-5.59,8.48-8.85,14.31-1.08,1.92-2.35,3.3-4.28,3.12-1.64-.16-3.57-1.01-3.89-3.08-.09-.6.11-1.78.34-2.4.32-.86.76-1.63,1.34-2.43,1.87-2.59,3.31-4.39,5.07-7.12.29-.45,1.35-2.21,1.57-2.41.21-.05.19.07.48-.36.53-.79.8-.82,1.16-1.66.11-.28.51-.85.69-1.15l1.74-2.98c.15-.22.28-.33.41-.57.91-1.64,2.51-4.22,3.56-5.86l2.12-3.6c.24-.42.38-.75.65-1.16.15-.23.48-.75.79-.84.28-.09,0-.2.38.1-.02.12.15.07-.34.5l-.03.34c.27-.34-.04.2.46-.55.27-.41.95-1.01.97-1.24,0-.13-.11-.22-.03-.48.08-.26.24-.31.34-.54.12-.27-.11-.11.24-.49.14-.15.42-.36.52-.52.12-.19.03-.02.06-.2l.2-1.27c-.02-.16-.05-.41-.07-.52l-.05-.22s-.02-.08-.03-.11c0-.02,0-.04,0-.05,0-.02,0-.04-.01-.05,0-.02,0-.04,0-.05-.07-.24-.2-.35-.28-.55-.03-.08,0-.07-.09-.28-.13-.28-.39-.55-.61-.76-.08-.3-.33-.65-.45-.94-.41-.97-.22-.9.46-1.56.33.11.47.18.81.35.26.13.16.13.42.17l1.28.38c.55.25.32.04.82.16,0-.27-.11-.08.19-.39.84.03,1.06.14,1.99-1.3,1.09-1.67,1.94-1.98.52-2.64-.3-.14-.47-.25-.76-.21-.28-.19-1.33-.51-1.72-.67-.62-.25-1.23-.49-1.81-.72-1.66-.67-2.12-1.14-3.53-2.67l-.24-.55c.03-.29-.39-.78-.55-1.92-.09-.69-.08-1.31,0-1.92.16-1.43.59-2.43,1.39-3.86,1.07-1.91,3.03-3.62,5.38-3.59.52,0,1.44-.08,1.96.19M20.82,187.19c-.87.92-1.57.67-2.47.51l1.83-2.58.52-.65c.42.04,1.69.04,1.24.93-.29.57-.76,1.25-1.12,1.8"/>
      <path class="cls-7" d="M18.36,187.69c-.08.25.28.54.48.69.34.26.35.19.69.15.78-.09.73-.36,1.29-.98-.11-.07-.27-.07-.16,0,.33-.35.14-.23.16-.36.37-.56.84-1.23,1.13-1.8.46-.89-.82-.9-1.24-.93l-.52.65c-.1-.35-.1-.04.02-.41.05-.15.09-.17.2-.33.44-.67.91-1.46,1.39-2.05,1.04-1.31,1.66-2.7,2.79-4.14.37-.47.62-.92.87-1.36.27-.46.57-.93.89-1.41.38-.56.35-.82.83-1.31l-.03-.15s0-.03,0-.04c0-.02.05-.14.07-.15l.72-.94c.14-.14.08-.05.19-.22.13-.22.3-.69.68-1.15.31-.36.57-.64.8-.97l2.49-3.7c.45-.61.74-1.26,1.23-1.83l2.47-3.72c.41-.65.95-1.28,1.34-1.91.97-1.55,2.08-3.04,3.06-4.6.24-.37.43-.56.67-.93.64-.98,1.26-1.82,1.83-2.79.15-.27.42-.66.65-1,.23-.34.38-.57.62-.9.08-.1.29-.37.35-.47.45-.73,1.03-1.78,1.59-2.35.25-.26.31-.6.58-.92.19-.24.2-.22.29-.45,0-.01,0-.04.01-.05.01-.02.02-.04.03-.05l.22-.39c-.05-.16-.06-.02-.17-.25.17-.17.11-.14.3-.21.38-.15-.02.14.27-.07,0,0,.59-.86,1.02-1.25.3-.27.35-.41.6-.68.45-.47,1.3-.91,1.94-.79.28.05.39.27.42.27l.11-.02c.51-.05.57.35.7.74-.23.23-.59.31-.61.63-.02.29.03.06-.12.33l-.05.15s-.01.04-.01.05l-.36.78c-.17.23-.31.49-.36.71.14.12.15.07.29.09.49.08-.25-.13.1.01l-.79.89s-.05.06-.06.08l-.19.31c-.05.16.06-.06-.05.18l-1.42,1.92c-.81.8-.54,1.12-1.71,2.15l-.22.29s-.02.04-.03.06l-1.88,2.44c-.37-.42-.11-.32-.06-.7l.04-.32c.06-.29-.05-.04.18-.25.32-.31.44-.69.78-1.03.21-.22.22-.5.38-.7l.77-1.09c.2-.26.37-.26.51-.67.11-.31.23-.32.58-.65-.19-.3.03.01-.14-.25.23-.04.48-.27.46-.54l-.03-.02s-.01,0-.01.02c.12-.13.29-.32.36-.45.17-.32.15-.02.04-.39l.27-.1c.03-.14.03-.21.08-.33l.2-.58s.11,0,.08-.35c.02,0,.09.04.11.04l.25.03c-.12-.36-.12-.19.09-.41.35-.37.16-.04.21-.5.18.05.11.33.5-.14l-.26-.33c.34-.15.26.01.21-.22-.06-.23-.29-.21-.38-.13,0,0-.03.03-.04.04-.15.21-.06.3-.05.47-.11-.06-.12-.11-.32.07-.4.35-.02,0-.17.36l-.25.25c-.07.05-.14.1-.22.13-.37.15.21.13-.19.03.05.11.16.26.25.37-.27.26-.6.61-.67.96l-.81,1.25c-.19.32.05.09-.2.39.17.17.06.03.05.03,0,0-.02,0-.02,0l-.25.07s-.23.26.16.27c-.05,0,.22-.27-.07.06-.15.18-.42.09-.49.39l-.1.23s-.03.03-.04.04c-.16.15-.34.16-.44.33-.14.24,0,.13-.14.3-.11.13-.35.38-.39.57l-.18.65c-.21.4-.42.53-.68.9-.1.14-.07.09-.11.23l-.07.33c-.16.31.18-.18-.06.07l-.1.11c-.13.13.05.09-.27.03-.49.55-.03.46-.56,1.05-.4.45-.71,1.53-1.19,1.81-.18.06-.2-.04-.46.07-.21.09-.28.17-.47.18.03-.04.13-.16.14-.2.07-.22.11,0,0-.26-.15.03-.03-.05-.17.08l-.39.67c-.13.32-.13.46-.39.34.02.17.1.21.15.41-.33,0-.14.05-.47-.05-.29.26-.07.15-.14.21l-1.18,1.89c-.14-.01-.09-.03-.21.03l-.2.22c-.22.3-.2.2-.19.54l-.22-.06s-.04,0-.05-.01c.06.4.08.05-.14.38-.42.64-.28.32-.52.64-.15.2-.08.31-.28.6-.22.32.1.11-.26.49-.32.35-.61.56-.78.96-.12.28-.41.47-.48.74-.1.41-.48.66-.67,1l-2.12,3.11c-.19.31-.19.49-.37.65l-1.31,1.84c-.1.23-.03.14-.18.31-.32.36-.07.07-.19.36-.1.26-.48.57-.73.79.08.15.22.09-.05.49-.07.11-.1.15-.12.32-.02.09-.07.24-.13.34l-.18.36c-.26.36-.77.42-.88,1,.37.17.05-.04.33.05-.34.37-.04.48-.6.52h-.27c-.28.34-.17.04-.13.35-.34-.08.12-.13-.25-.06-.13.02-.21.05-.29.21.16.15.24.17.45.11.23-.06.18-.23.45-.04-.01.02-.06.01-.1.13,0,.01-.01.04-.02.05l-.02.1c-.04.2.1-.07-.02.14l-.41-.1c-.13.17-.22.27-.26.48l.1-.05s.04-.02.05-.02l.26-.12c-.08.24-.11.26-.32.26,0,.15-.01.04.03.2,0,.01.04.09.05.14-.82.79-.69-.13-1.82,1.7l-.33.52c-.68.77-.75,1.13-1.18,1.6l.1.17c-.56.58-.45.57-.36.86-.24.11-.04-.01-.37.05-.43.73-.16.36-.52.54.18.37.11.45-.14.77-.29.39-.36.44-.58.82-.1.18-.35.65-.38.8l.11.56c.08.15.12.11.18.3-.22-.16-.22-.27-.47-.19.05.18.4.68.55.76,0,0,.07.02.16.08.14-.14.31-.33.49-.37.19.19.21.17.17.39-.06.28-.09.14-.23.37-.46.75-.23.34-.56.62.11.03.16-.06.35.06-.28.27-.14.27-.45.63.08.17-.14-.04.06.02.15.04.02-.1.09.02-.31.35-.43.55-.63.91-.23.44-.7,1.16-1.26,1.4l-.38.14c-.33.11-.61.18-.95.09-.2.22-.21.35-.48.5-.15.08-.36.12-.58.03l-.67.6-.36-.53c-.06-.14-.06-.1-.08-.22-.04-.27.1-.56.2-.76.16-.34.53-1.26.95-1.3"/>
      <polygon class="cls-9" points="28.6 170.38 28.6 168.17 29.24 168.17 29.24 167.86 27.46 167.86 27.46 168.17 28.09 168.17 28.09 170.38 28.6 170.38"/>
      <polygon class="cls-9" points="27.2 170.38 27.2 167.86 26.49 167.86 25.99 169.79 25.48 167.86 24.77 167.86 24.77 170.38 25.28 170.38 25.28 168.39 25.8 170.38 26.18 170.38 26.69 168.39 26.69 170.38 27.2 170.38"/>
      <path class="cls-25" d="M59.44,115.11c-2.06,0-3.73,1.65-3.73,3.68s1.67,3.67,3.73,3.67,3.73-1.65,3.73-3.67c0-2.03-1.67-3.68-3.73-3.68"/>
      <path class="cls-15" d="M42.2,174.09c-.21.11-.15.15-.18-.08-.18.02-.09.04-.31,0-.04,0-.2-.05-.28-.08-.36-.1-.33-.1-.66-.22l-1.15-.74c-.06-.07-.31-.4-.36-.45-.33-.32.16-.2-.25-.13-.14.74-.35,2.36-1.03,2.92-.04.32.04.09-.12.47-.11.27.04-.02-.15.21-.2.21-.42.42-.62.63-1.14,1.13.03,2.23-3.16,4.24-2.96,1.87-6.43,1.26-9.58.4-1.79-.48-4.56-1.94-6.16-3.15-3.23-2.46-3.57-7.05-2.79-10.66,1.28-5.87,3.6-11.36,9.22-14.62,2.25-1.3,3.45-1.64,5.62-1.82,2.27-.19,3.34.81,5.06,2.28.64.55.61.27,1.26.51,1,.37,3.75,2.27,6.25,3.22,2.56.98,6.21,1.8,5.91,5.34-.22,2.61-1.38,2.87-2.15,5.09-.34.98-.98,4.26-1.77,5.01-.13.45-.55.84-.98,1.1l-1.09.4s-.07,0-.11,0l-.42.1Z"/>
      <path class="cls-20" d="M36.93,171.4c.27-.16.17-.21.32,0l1.18-.57c-.05-.6-.17-1.17-.27-1.79-.11-.75.13-1.19-.02-1.74-1.28-.07-1.4.05-2.69-.37l-.92-.28c-2.02-.92-4.7-2.31-6.31-4.49,2.02.7,3.91,2.41,6,3.15l1.97.82c.32.09.68.15.99.22.52.12.61.06,1.15-.03.73-1.11.95-2.62,2.77-4.48-.58-.79-1.83-2.82-2.56-3.13-.59-1.26-4.93-6.05-6.95-6.52-4.18-.97-10.18,3.56-12.46,7.77-.79,1.46-1.71,3.61-2.03,5.01-.22.92-.53,1.68-.67,2.55-.4,2.54-.69,5.89,1.06,8.37.8,1.13,3.9,3.32,4.85,3.37,1.28.77,1.89.84,3.26,1.25.37.11.35.15.78.23l2.62.29c2.43,0,5.55-.94,6.31-3.05.07-.19.06-.19.08-.33l-4.83.52c-1.81.02-3.93-1.35-4.63-1.45-.25-.27-1.28-.87-1.7-1.21-.55-.43-1.51-1.46-1.75-1.64,0-.05-.05-.16-.02-.13.02.02.02-.08.02-.12,0-.04.06.01.09.05.04.04.08.04.1.05l2.89,1.52c1.67,1.09,3.91,1.86,5.51,1.81.95-.02,1.9-.15,2.9-.29,1.65-.22,1.59-.4,2.95-1.36.03-.32-.06,0,.08-.32l1.05-1.94-.07.02c.06-.24.08-.35.14-.57,0-.03.01-.08.02-.11l.08-.3c-.43-.29.09-.11-.36-.1-.23,0-.1,0-.33.08-.44.14-.07.18-.59.14-.24-.17-.17-.29-.13.08h-.22c.02-.48-.15-.21-.76-.32-.52-.09-.44-.26-.84-.48l1.97-.24.02.05Z"/>
      <path class="cls-20" d="M43.64,172.43c.63-.62.94-1.61,1.21-2.37.16-.44.62-2.11.56-2.5.38-.45.22-.87.99-2.07.45-.71.92-1.39,1.17-2.07.62-1.72-.18-3.81-2.68-4.58-3.88-1.2-5.8-2.83-7.18-3.35-.23-.09-.17-.07-.35-.09l1.8,2.13,2.76,3.46c.55-.34.93-.76,1.47-.89-.73,1.57-4.42,4.21-4.29,8.47.03.98.24,2.14.87,3.14l.72,1.05.26.12.11-.05c.15.08.31.16.52.2l.48.07.7-.13.88-.52Z"/>
      <path class="cls-25" d="M29.94,170.31c.86.56,1.48.6,2.49.89.52.15.72.3,1.29.32.39.02.8-.03,1.22.08.4.21.32.39.84.48.61.11.78-.16.75.31-1.28.44-3.16.21-4.37-.1l-1.16-.36s-.07-.02-.09-.02l-.18-.04c-.61-.32-1.29-.53-1.94-.85-1.67-.83-3.97-2.56-5.12-4.21,2.05.83,4.19,2.86,6.27,3.51M36.91,172.31l-.14.08c-.04-.37-.11-.26.14-.08"/>
      <polygon class="cls-9" points="33.98 163.69 33.98 161.68 34.56 161.68 34.56 161.38 32.93 161.38 32.93 161.68 33.51 161.68 33.51 163.69 33.98 163.69"/>
      <polygon class="cls-9" points="32.7 163.69 32.7 161.38 32.05 161.38 31.59 163.15 31.13 161.38 30.49 161.38 30.49 163.69 30.95 163.69 30.95 161.87 31.41 163.69 31.77 163.69 32.23 161.87 32.23 163.69 32.7 163.69"/>
      <path class="cls-22" d="M66.72,124.61c-.07-.15-.02-.05-.06-.22-.2-1.08-1.2-1.28-2.07-1.71-.86-.42-1.83-.93-2.65-1.28-.93-.4-1.8-.76-2.65-1.23-.25-.14-.39-.13-.69-.29l-1.78-.74-.1-.26c.24-.68.12-.26.52-.74l.07-.11c.14-.04.08.07.45-.05-.11-.26-.12-.13-.2-.25l-.12-.31s-.05.02-.07.03l-.18.07c-.22.1.04.02-.13.07.17-.43.15-.61.46-.83l.3-.22c-.23,0-.32.04-.5-.06.11-.32-.04-.03.16-.13l.11-.03c-.47-.25-.08.08-.2-.41.01,0,.14.03.2.05.35.08.39.18.39.17,0,0,.02.03.03.03.14-.07.16-.11.18-.24.29.15.07.06.4.34.02-.04.08-.19.08-.2.01-.1-.06-.14-.08-.17l-.03-.04c-.11-.18-.03-.07-.03-.07l.56-.13c.2.26.21.25.25.53l.11.53.13-.09c.15-.15-.09.07.08-.14.31.18.02.07.3.09.26-.27.32-.39.15-.58-.03-.03-.38-.24-.48-.28l-.23-.08s-.04-.02-.05-.02l-.23-.15c-.15-.07-.42.01-.54-.18l-.06-.13c-.23-.34-.11-.15-.39-.25-.02-.01-.09-.03-.11-.04l-.76-.12c-.22,0,.15-.11-.25.02-.03,0-.16.03-.16.03l-.21-.03c-1.12-.26-.54-.04-1.34-.09-.61-.03-1.55.2-2.13.46-.41.18-.45.27-.81.47-.02,0-.04.02-.05.03-.02,0-.04.02-.05.03l-.22.12c-.16.16-.05.15-.24.27-.15.1-.49.12-.41.49-.24.24-.34.34-.5.58-.25.37-.1.23-.42.4-.52.27-1.42,1.94-1.7,2.59l-.9,1.44s-.02.03-.03.05c-.82,1.27-.23.34-.64,1.16-.41.83-.67.72-1.18,1.86l-.16.33c.25-.05.11.03.3-.18.24,0,.15-.01.4.13l-.28.23c-.07-.15-.02-.08-.12-.16-.88.45-.92.92-1.42,1.66-.1.16-.18.21-.27.37-.27.44-.49.9-.9,1.33-.07-.34.26-.82.45-1.1l1.72-3.01c.08-.2.08-.12.03-.32-.04.02-.02-.02-.15.1l-1.3,2.08c-.34.58-.97,1.86-1.49,2.17-.04-.14-.05-.11-.06-.28.43-.41,4.47-7.26,4.89-7.95,1.81-3.04,3.15-5.36,6.8-5.96,1.18-.19,2.76-.15,4,.24,2.87.91,5.87,3.65,7.41,6.26.69,1.16,1.66,2.58.83,4.07"/>
      <path class="cls-19" d="M57.03,114.76c.4-.13.03-.03.25-.02l.76.12s.08.03.11.04c.27.1.16-.09.38.25l.07.13c.13.19.39.11.54.18l.23.15s.03.02.05.02l.23.08c.1.04.45.25.48.28.17.19.11.3-.15.58-.28-.02,0,.08-.3-.09-.17.2.07-.02-.08.14l-.14.09-.11-.53c-.03-.28-.05-.27-.25-.53l-.56.13s-.08-.1.03.07l.03.04s.1.07.09.18c0,.01-.07.17-.08.2-.33-.28-.11-.19-.4-.34-.02.13-.04.17-.18.24-.01,0-.04-.03-.03-.03,0,0-.04-.09-.39-.17-.06-.02-.19-.04-.2-.05.12.49-.27.17.2.41l-.11.03c-.21.11-.05-.19-.17.13.19.1.28.05.51.06l-.3.21c-.31.22-.3.4-.46.83.17-.05-.08.03.13-.07l.18-.07s.04-.02.07-.03l.12.31c.08.12.09-.01.2.25-.37.12-.32.01-.45.05l-.07.11c-.39.48-.28.07-.52.75l.1.26c-.2,0-.2-.05-.39-.07-.36-.04-.14.02-.43.05-.47.05-.21-.2-.86.18-.55.32-.71.42-.73,1.03,0,.1,0,.11,0,.21l-.02.24c-.38-.44.03-.14-.36-.3-.35-.16-.27-.26-.7-.05-.27.13-.2.09-.43.15.06.22-.04.1.26.16l-.43.3c.25.11.39.36.51.55l.26.29s.02.03.03.04v.32s-.96,1.43-.96,1.43c-.1.13-.21.33-.33.48-.25.32-.25.16-.52.46-.18-.11-.09-.12-.23-.17-.2-.08-.25-.04-.31-.01l.33.4c-.19.19-.3.23-.47.32.08.3-.09-.29.06.15,0,.01.01.04.02.06,0,.02.01.05.01.06,0,.01.01.04.01.06-.05.05-.25.31-.25.31-.34.27-.24-.07-.73-.38l-.35-.12c.23.24.21.19.31.43.3.68.42.34.33,1.34-.07.84-.48,1.12-.76,1.63l-.12.27c-.48.62-.84,1.49-1.39,2.03l-.71-.04c.46-.83,1.02-1.76,1.52-2.53.55-.85,1.16-1.65.52-2.44-.66-.8-1.81-.75-2.49-.42-.68.32-1,1.12-1.37,1.74-.36.61-.38.43-.48.37-.01.45.16-.09.01.3-.06.15-.19.32-.26.42-.19.29-.33.56-.53.86.02-.19.03-.2-.14-.27-.41-.18-.35.29-.81.51-.12.06-.09.03-.2.05.04-.15.03-.11.24-.29.34-.3.84-1.35,1.2-1.93.38-.63.97-1.79,1.64-2.18l.29-.22c-.24-.14-.16-.13-.4-.13l.71-.07c.06.34-.02-.32-.05.18-.01.24-.14-.02.04.25.26-.06.22,0,.48-.18,0-.03-.02-.06-.03-.07l-.1-.14s-.09,0-.11,0c.33-.33.1-.04-.01-.47.35-.18.42-.51.55-.83.14-.3.4-.55.59-.79.18-.23.12-.32.23-.47.1-.14.25-.21.34-.33.12-.17.13-.36.17-.42.05-.07.26-.23.35-.35l.67-1.35c.08-.26-.05-.1.21-.3.25-.19.42-.46.5-.73l.05-.33c.04-.09.12-.24.14-.36.42.09.38-.07.72-.41.05-.05.51-.23.55-.49.23.16.11.06.27.15l-.15.46-.51-.15c.06.4-.23.33-.32.64l.12.09s.06.03.08.06c-.3.31-.39.23-.34.54.32.05.43-.18.67-.43.14-.15.05.05.16-.19.38.59.24-.41.56.41l-.31.43c.19.27.35.45.72.54l.38.04c.65.09.29-.19.82-.71-.16-.24-.12-.27-.14-.54l-.35-.39c.11-.26.08-.15.05-.38-.11,0-.27.07-.19.25l-.2-.12c.46-.24.14-.1.17-.24l-.5-.31c.06-.24.03-.16.14-.42l-.71.35.35.12c.06.07.03.12-.11.26-.13-.31-.38-.34-.21-.64.18-.34.42-.36.67-.39l.25-.06c.31-.15.8-.27.72-.7h.26c.28.01.35.09.48-.22.09.32.33.1.48.07l.75-.16c.24-.06.03-.06.1.04.35.45-.1,0,.1.2l.38-.39c.14.02.04-.05.04.09l-.03.17c.28-.19.2-.19.5-.16l.08-.21s0-.03.11-.12l-.24-.13c-.13-.1-.06-.09-.27-.2"/>
      <path class="cls-5" d="M34.85,139.6c-.07.3.14.55.28.81.14.26.04.21.18.34.2.17.15.19.36.26.66.23,1.62,1.53,3.96,2.34.16.06.89.24.95.27.28.17-.02.12.27.27.47.24.2,0,.53.14,0,.43,0,.53-.12.85l-.22-.21-.04.37c-.56.01-.65.35-.8.54,0,0-.07.08-.08.09-.19.18-.04,0-.38.21.25.15.42.11.27.75-.21.08-.07,0-.27-.05-.08.28-.02.24-.07.47-1.93.47-2.88-.45-2.71-.07-.14-.03-.13-.03-.3-.14l-.34-.2s-.05-.02-.07-.02c-.22-.08-.67.62-.79.8l.09.27c-.04.12-.09.13-.11.21-.05.25.09-.04,0,.29-.05.2-.15.24-.33.25-.15,0-.04,0-.2-.02l.13-.23c.1-.2.17-.37.16-.58-.18-.13-.71-.13-.98-.19-.25-.05-.07.12-.32-.18.29-.04,1.17.08,1.34-.03.01,0,.04-.04.05-.05,0,0,.02-.02.03-.02,0,0,.03-.02.03-.02.14-.05.15,0,.19.02-.45-.39-.33.09-.99-.58.34-.18.33-.16.65.02l.26-.33c-.28-.11-.41-.31-.7-.46-.21.12-.18.08-.28.25l-1.26,1.92c-.33.49.16.31-.39.83.14.63-.16.09.03.88.08.36-.1.15.2.75.12.24.03.1.26.22.02.01.04.02.06.03l.26.18c-.32.15-.09.07-.43.09-.63-.33-.96-.4-1.09-1.21-.05-.27,0-.43.15-.74l2.14-3.56-.3-.3-.39.36-.52-.12c-.12.33-.2.15.02.58.01.02.22.21.06.12-.01,0,.02.04.03.07-.52.43-.06-.13-.44.17,0,0,.23.21-.05.05-.01,0-.01.03-.02.03-.39-.19-.19-.08-.36-.38-.08.23.1-.03-.02.65.02.36.04-.04.18.48.09.36.07-.14,0,.12-.28.04-.39-.11-.6-.46-.4-.67-.08-.29-.03-.85.39-.22-.14.21.21-.04.29-.21.06.01.12-.21.08-.27.04-.44-.05-.63.15-.27.42-.41.52-.66l.23-.53c.26-.52-.73-.97.12-2.46.17-.28.81-1.03.87-1.17.14-.36.11-.7.59-1.17l.24.55Z"/>
      <path class="cls-4" d="M56.82,119.14l1.78.74c.3.16.44.15.69.29.85.47,1.72.83,2.65,1.23.82.35,1.78.86,2.65,1.28.88.43,1.87.63,2.07,1.71.03.17,0,.08.06.22,0,.02-.02.03-.01.06.09.18.1-.07-.16.32-.24.37-.93,1.62-1.2.89-.03-.08-.02-.1-.01-.14.03-.18-.04-.04.06-.09-.18-.02-.54.07-.7.16-.13-.23-.24-.3-.15-.48-.22.04-.39.06-.59.15-.27-.42-.08-.11-.16-.58-.28-.05-.16.07-.72.07l-.11-.47c-.23.05-.45.05-.65.08-.39-.48.03-.56-.41-.44-.55.15-.45.17-.6-.46l-.62.09s-.05,0-.07,0c-.09-.27-.03-.06,0-.49-.08.05-.45.27-.54.27-.48.02-.26-.2-.35-.49-.16.02-.37.08-.55.02-.36-.12-.29-.29-.15-.49-.23.01-.16.03-.35.11-.26.1-.23.09-.44.13-.34-.49-.07-.1-.13-.32-.05-.16.05-.07-.05-.26-.91-.17-.37.74-2.37-.3-.31-.16-.65-.21-.86-.32,0-.23.04-.02-.08-.25,0,0-.13-.19-.15-.21-.13-.22-.1-.23-.22-.4l.02-.24c0-.11,0-.12,0-.21.03-.61.18-.71.73-1.03.65-.38.39-.12.86-.18.29-.03.07-.09.43-.05.2.02.2.07.4.07"/>
      <path class="cls-5" d="M59.82,135.25c-.19-.44-.45-.32-.75-.34-.12,0-.15-.02-.26-.03-.18-.38.12-.02-.1-.41l-.58.02c-.12-.16-.09-.29-.12-.33-.02-.03,0-.04-.01-.06-.24-.01-.42-.04-.62-.03-.33-.46.24-.34-.76-.42-.32-.51.11-.37-.79-.39,0-.02,0-.05-.01-.06-.14-.6-.39-.2-.7-.36-.23-.12-.03-.5-.74-.35l-.1-.18c-.22-.34-.29-.23-.49-.26-.19-.03-.04.05-.2-.07-.37-.28-.07-.4-.73-.33-.24-.34.08-.24-.77-.64-.17.32-.08.32-.35.6-.22.24-.45.47-.69.7.11-.65.93-.74.48-1.2-.27-.27.02.06-.23-.13-.25-.18-.09-.08-.2-.33l-.23-.47c-.21-.27-.47-.36-.4-.73.22-.15-.05-.14.39.12.11.06.08-.05.24.22.16.25-.21-.05.21.24l.25.2c.19.12,0,0,.23.05.17.04,0-.08.18.07-.09-.2-.22-1.11-.27-1.4l-.11-.91c-.03-.27-.04-.07,0-.31.16-.14.32-.15.52-.09.36.11.21.18.37.51.62-.2.49-.2.72.31h.61c.07.2.09.26.1.43.11,0,.42.02.58,0l.18.46.6-.06.12.39.57-.04c.15.25.07.2.2.46l.54-.04c.2.34,0,.15.19.49.2-.05.38-.05.58-.08.08.22.04.23.12.43.65-.18.68.24.77.41.02,0,.04-.02.06,0,.05.03.68-.22,1.03.48l.4,2.3c.07.4.18.77-.02,1.14"/>
      <path class="cls-17" d="M59.82,135.25l-.14.36c-.06.1-.17.22-.25.32-.17.24-.29.44-.48.68-.14,0-.05-.05-.2.08-.18.14-.09.21-.43.46l-3.86-2.05c-.51-.27-3.57-1.86-3.79-2.18,0-.3.11-.32.36-.61.24-.23.47-.46.69-.7.27-.29.17-.29.35-.6.85.4.53.29.77.64.67-.07.35.05.73.33.16.12,0,.04.2.07.2.03.27-.07.49.26l.1.18c.71-.15.52.23.74.35.31.16.56-.24.7.36,0,.01,0,.04.01.06.9.02.47-.13.79.39,1,.08.43-.04.76.42.2,0,.37.02.62.03.01.02,0,.04.01.06.03.04,0,.17.12.33l.58-.03c.22.4-.08.04.1.41.11,0,.13.02.26.03.31.01.56-.11.75.34"/>
      <path class="cls-11" d="M23.38,174.77c.04-.3,1.63-2.81,1.8-3.09l5.46-9.36c1.24-2.16,2.39-4.09,3.59-6.24.63-1.12,1.3-1.98,1.85-3.12.23-.48.5-1.05.64-1.54.41-1.46.2-.94,0-1.6l-.11-.18c.22.21.48.48.61.76.1.21.06.19.09.28.08.2.21.32.28.55,0,.02,0,.04,0,.06,0,.01,0,.04.01.05,0,.01,0,.03,0,.05,0,.02.02.09.03.11l.05.22c.02.11.05.36.07.52l-.2,1.27c-.04.18.05,0-.06.2-.1.15-.39.37-.52.52-.34.38-.12.23-.24.49-.09.22-.26.28-.34.54-.08.26.03.35.02.48-.02.23-.7.83-.97,1.24-.49.74-.18.21-.46.55l.03-.34c.49-.43.32-.38.34-.5-.37-.3-.1-.18-.38-.1-.31.1-.65.61-.79.84-.27.42-.41.74-.65,1.16l-2.12,3.59c-1.05,1.64-2.65,4.21-3.56,5.86-.13.23-.26.35-.41.57l-1.74,2.97c-.18.3-.58.88-.69,1.15-.36.85-.63.87-1.16,1.66-.29.43-.27.32-.48.37"/>
      <path class="cls-8" d="M57.03,114.76c.22.11.14.1.27.21l.24.12c-.12.09-.1.1-.11.12l-.08.2c-.29-.03-.23-.03-.5.16l.04-.17c0-.14.1-.07-.04-.09l-.38.39c-.2-.19.25.26-.1-.2-.07-.1.14-.1-.1-.04l-.75.16c-.15.03-.39.25-.48-.07-.13.31-.2.24-.48.23h-.26c.08.42-.42.54-.72.69l-.25.06c-.24.03-.48.06-.67.39-.16.3.09.33.21.64.14-.14.17-.2.11-.26l-.35-.12.71-.35c-.11.26-.08.17-.14.42l.5.31c-.03.13.29,0-.17.24l.2.12c-.09-.18.08-.24.19-.25.04.23.07.13-.05.39l.35.39c.01.27-.02.3.13.54-.52.51-.17.8-.82.71l-.38-.05c-.37-.08-.53-.27-.72-.53l.31-.43c-.32-.83-.18.18-.56-.41-.11.24-.02.04-.16.19-.24.25-.35.48-.67.43-.05-.32.04-.22.34-.54-.02-.03-.06-.04-.08-.06l-.12-.09c.09-.31.37-.24.32-.64l.51.15.15-.47c-.17-.09-.05.01-.27-.15-.04.26-.5.44-.55.49-.35.34-.3.5-.72.41,0,.12-.1.26-.14.36l-.05.33c-.08.27-.25.55-.5.73-.26.19-.13.04-.21.3l-.67,1.34c-.09.12-.3.29-.35.35-.04.05-.05.25-.17.42-.09.12-.24.19-.34.33-.11.15-.06.25-.23.47-.19.25-.45.49-.59.79-.14.31-.2.64-.55.83.11.44.34.15.01.47.02,0,.1,0,.11,0l.1.14s.02.05.03.07c-.25.17-.21.12-.48.18-.18-.27-.05,0-.04-.25.03-.51.1.17.05-.18l-.7.07c-.2.2-.06.13-.31.18l.16-.33c.51-1.14.77-1.03,1.18-1.85.41-.82-.19.11.64-1.16.01-.02.02-.04.02-.05l.91-1.44c.27-.65,1.18-2.32,1.7-2.59.33-.17.17-.03.42-.4.16-.24.26-.33.5-.58-.07-.37.26-.39.41-.49.18-.13.07-.11.23-.27l.22-.12s.04-.02.05-.03c.02-.01.03-.02.05-.03.36-.2.4-.29.81-.47.58-.26,1.51-.49,2.13-.46.8.04.22-.17,1.34.09l.21.03s.13-.03.16-.03"/>
      <path class="cls-21" d="M42.5,128.37c-.31.46-.26.53-.18.95.06.32.13.73.23.95l.63-.02c.21.02.31.05.55.06l.64-.59c0,.16-.02.08,0,.17.07.19.08.14.25.07.4-.1.27.05.6.17.22.07.46-.05.5-.34.18-.03-.02-.17.2.02-.1.22-.19.28-.09.43.24.38.04-.14.13.13v.14s-.02.04-.02.06c.2-.11.08-.05.28-.04l.21.03c.25.07.26.14.47.37l.49-.3c-.02.21-.03.08.04.31l.71.03c.56-.54.92-1.41,1.39-2.03.09-.05.14-.1.21-.13l.24-.06-.29.4c.14.3.24.35.48.57l.1-.23c.1-.11.04-.11.17-.01-.07.37.19.46.39.73l.24.46c.11.25-.05.14.2.33.26.18-.04-.15.23.12.46.46-.36.55-.48,1.2-.25.29-.36.3-.36.61-.27.02-.26-.45-.3-.71-.04-.22-.13-.66-.16-.81l-.24-.08c-.32.37.15.26-.47.71l-1.8-.38c-.46-.1-1.89-.26-2.44-.44-.67-.22-2.49-.46-3.09-.72-.72-.31-1.09-1.03-.98-1.66l.17-.64c.19,0,.35.07.58.13.08.01.19.05.27.06.24.03.07-.02.3,0"/>
      <path class="cls-5" d="M46.3,125.12c-.67.39-1.26,1.55-1.64,2.18-.35.58-.86,1.62-1.19,1.92-.22.19-.21.15-.24.3.12-.02.07,0,.2-.06.46-.22.39-.68.81-.51.17.07.15.09.14.27.2-.3.34-.57.53-.86.07-.1.21-.27.26-.41.15-.4-.02.14-.01-.3.1.04.12.23.48-.38.37-.61.69-1.41,1.37-1.74.68-.33,1.82-.38,2.49.42.65.78.03,1.59-.52,2.44-.5.76-1.06,1.7-1.52,2.53-.07-.22-.07-.1-.04-.31l-.49.3c-.2-.23-.22-.3-.48-.37l-.2-.03c-.2,0-.08-.06-.28.04,0-.02,0-.07.01-.06v-.14c-.08-.27.11.26-.12-.12-.09-.16,0-.21.1-.43l.11.1c-.05-.29-.09-.06.01-.31.21.12.21.07.35.13.23.09.16.04.16.21.2-.25.07-.17.52-.23.26-.04.02-.13.26,0-.31.49-.43.24-.27.8l2.11-3.11c.71-1.11-1.13-2.19-1.9-1.63-.45.33-.8,1.38-1.67,2.02.24.18.45.19.69.25.44.11.3.1.68-.07-.02.29-.41.33-.53.3-.01,0-.1-.05-.11-.06-.39-.18-.27,0-.58-.19l-.15.38c-.1-.01-.27-.06-.33-.04.16.21,1.97.53,2.67.51.01,0,.04,0,.06,0-.18.38-.4.26-1.29.06l-.7-.21c-.65-.15-.8-.14-.99.49-.13.45.19.32-.31.7l.02-.5c-.49.53-.16.53-.13.57-.17.06-.19.12-.25-.07-.02-.08,0,0,0-.17l-.63.58c-.24,0-.35-.03-.55-.05l-.63.02c-.1-.22-.17-.63-.23-.95-.08-.42-.13-.48.18-.95.2-.02.12-.02.34-.13.51-.31,1.15-1.59,1.48-2.17l1.31-2.08c.12-.12.1-.08.14-.1.05.2.05.12-.03.32l-1.72,3.01c-.18.27-.51.76-.44,1.1.41-.43.63-.89.9-1.33.1-.16.17-.21.28-.37.51-.75.54-1.21,1.42-1.66.09.08.05.01.12.16"/>
      <path class="cls-22" d="M45.93,129.8c-.23-.18-.02-.05-.21-.01-.04.28-.29.41-.5.33-.33-.12-.2-.26-.6-.17-.03-.03-.36-.03.13-.56l-.02.5c.5-.38.18-.24.31-.69.19-.64.34-.65.99-.5l.7.2c.89.2,1.11.33,1.29-.05-.02,0-.05,0-.06,0-.71.03-2.52-.29-2.67-.5.06-.03.22.02.33.03l.16-.39c.31.2.19.02.58.2.01,0,.09.05.11.06.12.04.51,0,.53-.3-.38.17-.24.18-.69.07-.23-.06-.45-.07-.69-.25.87-.64,1.22-1.68,1.67-2.02.76-.56,2.6.52,1.9,1.63l-2.11,3.11c-.15-.56-.04-.3.27-.8-.24-.13,0-.04-.26,0-.44.07-.33-.02-.52.23,0-.18.07-.12-.16-.21-.14-.06-.14-.01-.35-.13-.1.25-.07.02-.01.31l-.11-.1Z"/>
      <path class="cls-21" d="M41.9,143.66c.34.21.48.17.8.56-.09.28-.47.55-.55.94-.05.24,0,.04.06.16-.05.14-.11.22-.17.38-.21.48-.68,1.9-1.51,1.91h-.11l-1.07-.12c-.63.07-.03.42-1.54-.14-.58-.22-.43-.08-.84-.37-.16-.38.78.54,2.71.07.05-.23,0-.19.07-.47.19.05.05.14.27.05.15-.64-.02-.6-.27-.75.34-.21.19-.03.38-.21,0-.01.07-.08.08-.09.15-.19.24-.53.8-.54l.04-.37.22.21c.12-.32.12-.42.12-.85-.33-.14-.06.09-.53-.14-.3-.15,0-.1-.27-.27-.06-.04-.79-.21-.95-.27-2.34-.81-3.31-2.11-3.96-2.33-.21-.07-.16-.09-.36-.26-.14-.12-.05-.08-.17-.33-.14-.27-.35-.52-.28-.81,1.41,1.53,1.87,1.99,3.53,2.66.58.24,1.19.47,1.81.72.39.16,1.44.48,1.72.67"/>
      <path class="cls-22" d="M35.56,147.67l-.09.1.66,1.23c-.25.45-.69,1.23-1.23,1.6-.21.14-.57.33-.84.34-.43.02-.34-.14-.86-.03.34-.02.11.06.43-.09l-.26-.18s-.04-.01-.06-.03c-.22-.12-.14.02-.26-.22-.3-.6-.12-.39-.2-.75-.19-.79.1-.24-.03-.88.55-.52.06-.35.39-.83l1.26-1.92c.1-.17.07-.12.28-.24.3.15.43.35.7.46l-.25.33c-.32-.18-.32-.2-.66-.02.66.67.55.2.99.57-.04-.02-.05-.07-.19-.02,0,0-.03.01-.03.02,0,0-.02.02-.03.03,0,0-.04.04-.05.05-.17.11-1.05,0-1.34.03.25.31.07.14.32.19.28.05.8.06.98.19.01.2-.07.37-.16.58l-.13.23c.16.02.05.03.2.02.19,0,.28-.05.34-.25.08-.34-.05-.04,0-.29.02-.08.06-.1.11-.21"/>
      <path class="cls-19" d="M33.22,150.9c.51-.1.43.05.85.04.27-.02.63-.2.84-.34.54-.37.97-1.15,1.23-1.6.2.24.04.14.17.43.12.26.19.23.27.49-.41.32-.05.28-.38.68-.19.24-.42.26-.63.39-1.06.61-2.24.84-3.45.18-.19-.27-.46-.34-.61-.6-.47-.8-.03-1.22-.03-1.42,0-.19-.07-.26-.15-.4l-.04-.35c.2-.06.24-.02.41,0,.25.02.21.1.39-.2-.1-.16-.44-.54-.26-.7.02-.01.03-.04.05-.05l.15-.11c.22-.12.1.09.56.11l.23-.26-.39-.56c.12-.68-.06-.42.01-.65.17.3-.04.19.36.38.01,0,.01-.04.02-.03.27.15.04-.05.05-.05.38-.3-.08.26.44-.17,0-.02-.04-.06-.03-.06.17.08-.05-.1-.06-.12-.22-.43-.14-.26-.02-.58l.52.12.39-.36.3.3-2.13,3.55c-.15.31-.2.47-.16.74.14.81.46.88,1.1,1.21"/>
      <path class="cls-5" d="M54.38,120.77c.12.17.08.19.22.4.01.02.14.21.14.21.11.23.08.03.08.26-.44-.1-1.12,1.25-1.34,1.6l-3.48,5.51-.24.06c-.07.02-.12.08-.21.13l.12-.28c.28-.51.68-.78.76-1.63.09-1-.04-.65-.33-1.34-.1-.24-.08-.19-.31-.43l.35.12c.49.31.39.66.73.38,0,0,.21-.26.26-.31,0-.02-.01-.05-.02-.06,0-.01-.01-.04-.02-.06,0-.01-.01-.04-.01-.06-.14-.45.02.15-.06-.15.17-.1.28-.14.47-.33l-.33-.4c.06-.02.11-.07.32.01.14.06.05.06.23.17.27-.3.27-.13.52-.45.12-.14.23-.35.33-.47l.98-1.44v-.31s-.03-.03-.04-.04l-.26-.29c-.12-.19-.25-.44-.51-.55l.43-.31c-.29-.05-.2.06-.26-.16.23-.06.15-.02.43-.15.44-.21.36-.1.7.05.39.17-.02-.13.36.31"/>
      <path class="cls-26" d="M36.97,146.96c.41.29.25.15.84.37,1.51.56.92.21,1.54.14l1.07.12h.11c.83-.01,1.31-1.42,1.51-1.91.07-.16.12-.23.17-.38-.07-.13-.11.08-.06-.16.09-.39.47-.65.55-.94-.32-.39-.47-.34-.81-.56.29-.04.46.07.76.21,1.42.66.57.97-.52,2.64-.94,1.44-1.15,1.33-1.99,1.3-.29.3-.19.12-.18.38-.51-.12-.27.1-.83-.16l-1.28-.38c-.26-.04-.17-.03-.42-.16-.34-.18-.48-.24-.81-.35-.69.66-.87.59-.46,1.56.12.29.36.64.45.94l.11.18-.13.1c-.08-.26-.15-.23-.28-.49-.13-.29.03-.19-.17-.43l-.67-1.23.09-.1-.09-.27c.12-.18.57-.88.79-.8.02,0,.05.01.07.02l.34.2c.17.11.15.11.3.14"/>
      <path class="cls-1" d="M37.32,134.1c-.17.05-.28-.14-.64.51l-1.04,1.95c-.08.21.01-.01-.08.2l-.09.17c-.15.31.67,1.34.72,1.42l.33.96c.05.26.12.11-.09.36-.4-.14-.87-1.03-1.03-1.4-.13-.31-.18-.46-.19-.75l.22-1.48c.11-.31.15-.42.32-.75.21-.41.1-.33.42-.75.66-.88.85-1.37,1.99-2.21.32-.24.77-.67,1.16-.73.14-.02.32,0,.44.13.39.45-.62.34-1.19.84l-1.13,1.1c-.31.43.05-.04-.12.42"/>
      <path class="cls-22" d="M32.43,146.63l.38.56-.22.26c-.46-.03-.34-.23-.56-.11l-.15.11s-.04.04-.05.05c-.17.16.16.54.26.7-.18.29-.14.22-.39.2-.16-.01-.21-.05-.41,0l.04.35c.08.13.15.21.14.4,0,.2-.44.62.03,1.43.15.26.42.33.61.6-1.36-.51-1.9-2.03-1.65-2.94.16-.58.18.12.38-.79.08-.34.28-.54.52-.84.22-.28.2-.53.43-.81.16-.22.2-.16.28-.32.07-.12.07-.22.2-.44.09.19.13.36.05.63-.06.23.16,0-.12.21-.35.25.18-.18-.21.04-.05.56-.38.18.03.85.21.35.31.5.6.46.07-.26.09.24,0-.12-.14-.51-.16-.11-.18-.48"/>
      <path class="cls-22" d="M50.46,129.47c-.13-.09-.07-.1-.18.01.04-.42.59-1.01.89-1.38.02-.02.16-.2.17-.21l.24-.15c-.04.24-.03.05,0,.31l.12.91c.05.3.18,1.21.27,1.4-.17-.15,0-.04-.18-.07-.23-.04-.04.06-.23-.05l-.25-.2c-.42-.3-.06.01-.21-.24-.16-.27-.13-.16-.24-.22-.44-.26-.17-.27-.39-.12"/>
      <path class="cls-14" d="M20.82,187.19c-.02.13.16,0-.17.36-.1-.07.06-.07.17.01-.56.61-.52.88-1.29.97-.34.04-.36.11-.7-.16-.2-.15-.56-.44-.48-.68.9.16,1.6.41,2.47-.51"/>
      <path class="cls-21" d="M55.98,137.52c-.46,1.22-1.36.48-1.44.25-.12-.39.6-1.23,1.44-.25"/>
      <path class="cls-15" d="M42.2,174.09c-.21.11-.15.15-.18-.08-.18.02-.09.04-.31,0-.04,0-.2-.05-.28-.08-.36-.1-.33-.1-.66-.22l-1.15-.74c-.06-.07-.31-.4-.36-.45-.33-.32.16-.2-.25-.13-.14.74-.35,2.36-1.03,2.92-.04.32.04.09-.12.47-.11.27.04-.02-.15.21-.2.21-.42.42-.62.63-1.14,1.13.03,2.23-3.16,4.24-2.96,1.87-6.43,1.26-9.58.4-1.79-.48-4.56-1.94-6.16-3.15-3.23-2.46-3.57-7.05-2.79-10.66,1.28-5.87,3.6-11.36,9.22-14.62,2.25-1.3,3.45-1.64,5.62-1.82,2.27-.19,3.34.81,5.06,2.28,2.77,2.35,4.6,6.46,6.26,7.21.48.23,2.16-3.17,2.57-3.01,2.56.98,4.9,1.32,4.59,4.87-.22,2.61-1.38,2.87-2.15,5.09-.34.98-.98,4.26-1.77,5.01-.13.45-.55.84-.98,1.1l-1.09.4s-.07,0-.11,0l-.42.1Z"/>
      <path class="cls-20" d="M36.9,171.34c.27-.16.17-.21.33,0l1.17-.57c-.05-.61-.17-1.17-.27-1.79-.11-.74.13-1.19-.01-1.74-1.29-.07-1.41.04-2.7-.37l-.91-.28c-2.03-.93-4.7-2.31-6.31-4.49,2.01.69,3.91,2.41,5.99,3.14l1.97.82c.32.09.68.15.98.22.52.12.61.07,1.15-.02.73-1.12.95-2.63,2.77-4.48-.58-.79-1.82-2.82-2.55-3.13-.6-1.26-4.93-6.05-6.96-6.52-4.18-.97-10.18,3.56-12.46,7.77-.79,1.46-1.71,3.61-2.04,5-.21.92-.53,1.68-.67,2.56-.4,2.54-.7,5.89,1.06,8.37.8,1.13,3.9,3.31,4.84,3.36,1.28.77,1.89.85,3.27,1.26.37.11.35.15.79.23l2.61.29c2.43,0,5.56-.93,6.31-3.05.07-.19.06-.18.08-.32l-4.83.52c-1.81.02-3.93-1.35-4.63-1.45-.25-.26-1.28-.87-1.71-1.2-.55-.43-1.5-1.46-1.75-1.65,0-.05-.05-.16-.03-.13.03.02.02-.08.02-.12,0-.04.06,0,.09.05.03.03.07.04.1.05l2.89,1.52c1.67,1.09,3.91,1.86,5.51,1.81.95-.03,1.9-.16,2.9-.29,1.65-.22,1.59-.4,2.95-1.36.02-.32-.06,0,.08-.32l1.05-1.94-.07.02c.06-.24.09-.35.14-.57,0-.03.02-.08.02-.11l.08-.31c-.42-.29.09-.11-.36-.1-.23,0-.1.01-.34.08-.44.14-.07.18-.58.15-.24-.18-.18-.29-.13.08h-.23c.02-.48-.14-.21-.75-.32-.52-.09-.44-.26-.84-.47l1.97-.25.02.05Z"/>
      <path class="cls-25" d="M29.91,170.24c.86.56,1.48.6,2.49.89.52.15.72.3,1.29.32.39,0,.8-.03,1.22.08.41.21.32.39.84.47.61.11.78-.16.75.3-1.28.44-3.16.21-4.37-.09l-1.16-.36s-.07-.02-.09-.02l-.18-.04c-.61-.32-1.29-.53-1.94-.86-1.66-.82-3.97-2.56-5.11-4.21,2.05.84,4.19,2.86,6.27,3.51M36.87,172.25l-.13.08c-.04-.37-.11-.25.13-.08"/>
      <path class="cls-20" d="M43.85,172.55c.63-.62.94-1.61,1.21-2.36.16-.44.61-2.11.57-2.51.38-.44.21-.87.98-2.07.45-.71.93-1.39,1.17-2.07.62-1.72-.18-3.81-2.68-4.58-.39-.13-.93-.71-1.11-.38l-1.03,1.87c-.11.21.41-.22.64-.24-.73,1.57-4.42,4.21-4.29,8.47.03.98.24,2.14.87,3.14l.72,1.05.26.12.11-.05c.15.08.31.15.52.2l.48.07.7-.13.88-.53Z"/>
      <path class="cls-25" d="M71.99,14.16s-4.43-19.46-29.38-11.92c-24.95,7.54-28.77,27.13-17.67,40.69,0,0,6.65-20.36,47.05-28.77"/>
      <path class="cls-25" d="M25.14,43.96l.29-.89c.01-.05,1.73-5.09,8.3-11.08,6.07-5.53,17.66-13.04,38.36-17.35l.5-.1-.11-.5c-.04-.16-.95-4-4.15-7.66-2.96-3.39-8.52-7.21-18.2-6.22-2.4.24-4.98.79-7.68,1.6-12.03,3.63-20.16,10.43-22.92,19.12-2.37,7.44-.54,15.58,5.01,22.36l.59.73Z"/>
      <path class="cls-10" d="M71.36,13.83c-20.65,4.38-32.27,11.95-38.38,17.55-5.21,4.76-7.41,8.88-8.17,10.6-4.9-6.37-6.47-13.89-4.29-20.75,2.66-8.37,10.56-14.93,22.25-18.46,2.63-.79,5.14-1.32,7.48-1.56,7.42-.76,13.24,1.22,17.32,5.87,2.4,2.74,3.45,5.63,3.79,6.75Z"/>
      <path class="cls-25" d="M44.17,2.31s-13.11,7.03-8.66,26.72l-.75.69s-5.45-15.49,6.51-26.84l2.9-.57Z"/>
      <path class="cls-25" d="M68.99,14.26s24.64-1.1,32.84,7.77c8.19,8.88-11.92,9.28-11.92,9.28,0,0-10.02-7.74-19.48-10.09,0,0-22.02,12.45-35.04,8.58,0,0,10.95-9.18,33.6-15.54"/>
      <path class="cls-25" d="M93.08,31.6c4.37-.45,9.82-1.6,10.99-4.56.61-1.54-.01-3.34-1.87-5.34-3.48-3.77-10.14-6.25-19.81-7.37-7.14-.83-13.36-.56-13.43-.56h-.06s-.06.02-.06.02c-22.49,6.32-33.68,15.55-33.79,15.65l-.7.59.88.26c2.52.76,5.56.95,9.01.6h0c11.46-1.18,24.54-8.19,26.24-9.12,9.19,2.35,18.99,9.87,19.1,9.95l.14.11h.18c.06,0,1.34-.03,3.16-.22"/>
      <path class="cls-10" d="M69.14,14.75c1.35-.05,24.63-.79,32.38,7.61,1.57,1.7,2.14,3.15,1.68,4.32-.76,1.91-4.46,3.34-10.15,3.92-1.39.14-2.48.19-2.89.2-1.29-.96-10.68-7.88-19.52-10.07l-.2-.06-.18.1c-.14.08-14.02,7.86-26.03,9.1-2.88.3-5.45.19-7.65-.31,2.87-2.14,13.67-9.51,32.56-14.82Z"/>
      <path class="cls-25" d="M71.11,21.19s6.02-5.06,7.48-6.97l-.89-.12s-3.98,4.41-8.5,7.33l1.91-.23Z"/>
      <path class="cls-10" d="M40.59,2.23s-3.31-2.27-6.55-1.54c-3.24.72-4.13,6.98-4.13,6.98,0,0,6.03-4.26,10.68-5.44"/>
      <path class="cls-25" d="M39.32,2.09c-3.32,1.11-6.95,3.34-8.69,4.49.47-1.98,1.59-4.97,3.52-5.4.2-.04.41-.08.62-.1,1.76-.18,3.5.49,4.55,1.01h0ZM29.23,8.76l.96-.68c.07-.04,6.02-4.21,10.52-5.36l1.07-.27-.9-.61c-.12-.08-3.05-2.06-6.21-1.74-.25.03-.5.07-.75.12-3.54.79-4.49,7.13-4.52,7.4l-.17,1.15Z"/>
    </g>
  </g>
</svg>