<?xml version="1.0" encoding="UTF-8"?>
<svg id="Layer_2" data-name="Layer 2" xmlns="http://www.w3.org/2000/svg" viewBox="0 0 262.12 118.63">
  <defs>
    <style>
      .cls-1 {
        fill: #fff;
      }

      .cls-1, .cls-2 {
        fill-rule: evenodd;
      }

      .cls-2 {
        fill: #08439c;
      }
    </style>
  </defs>
  <g id="Layer_1-2" data-name="Layer 1">
    <g>
      <path class="cls-1" d="M237.84,12.4l.05-.16c.68-2,1.59-3.88,2.82-5.41.92-1.16,1.99-2.11,3.14-2.89.87-.59,1.76-1.15,2.64-1.69.9-.55,1.8-1.11,2.71-1.61l.32-.18.34-.1c.77-.22,1.55-.35,2.35-.35,2.72,0,5.03,1.68,6.86,4.16l.04.05.04.06c.62.89,1.26,1.77,1.9,2.64l1.07,1.42v1.96c0,3.58-.64,7.04-1.71,10.33-.99,3.03-2.39,5.93-3.87,8.61-1.74,3.15-3.64,6.2-5.56,9.18-1.11,1.71-2.21,3.43-3.33,5.12l-6.9,11.15h7.56l-4.92,7.96c-3.92,6.35-9.11,9.99-15.49,9.99h-1.03l-.89-.65c-1.35-.98-2.7-1.96-4.02-2.99-1.54-1.2-2.96-2.75-3.86-4.72-3.77,5.33-8.6,8.36-14.41,8.36h-1.03l-.89-.65c-1.35-.98-2.7-1.96-4.02-3-1.48-1.16-2.85-2.63-3.75-4.49-1.44,1.67-3.11,3.03-4.84,4.16-2.42,1.58-4.98,2.77-7.62,3.62l-.24.07-.25.04c-1.07.17-2.15.27-3.23.27s-2.08-.08-3.08-.32c-1.17-.28-2.28-.87-3.32-1.58l-.18-.13c-.1-.06-.21-.11-.31-.16-.33-.18-.65-.33-.98-.49-1.1-.52-2.21-1.02-3.32-1.5-2.78-1.21-5.27-3.32-6.41-6.84-.23-.5-.43-1.02-.58-1.56l-1.5,1.06-1.92-1.47c-.07-.06-.22-.16-.31-.18-.24-.05-.54-.1-.78-.11-1,0-2-.15-2.96-.55-.66-.28-1.27-.68-1.82-1.2-1.8,2.17-3.58,4.37-5.35,6.56-1.92,2.37-3.87,4.73-5.93,6.92l-.06.08-.07.06c-1.22,1.19-2.69,1.7-4.21,1.7-1.73,0-3.36-.74-4.58-2.34l-.68-.89s0,0,0,0c-.5-.21-1.02-.43-1.53-.61l-.07-.02-.07-.03c-1.08-.43-2.12-1.03-3.03-1.88-1.5-1.4-2.31-3.52-2.31-5.88,0-.56.05-1.1.13-1.63-.05.04-.09.07-.14.1l-1.95,1.38-1.92-1.47c-.07-.06-.23-.17-.31-.19-.24-.04-.53-.1-.78-.1-1,0-2.01-.15-2.96-.55-.67-.28-1.27-.68-1.82-1.2-1.8,2.17-3.58,4.37-5.36,6.56-1.91,2.37-3.88,4.74-5.93,6.92l-.06.07-.06.06c-1.22,1.19-2.69,1.71-4.21,1.71-1.73,0-3.36-.75-4.58-2.34l-.68-.9h0c-.5-.21-1.02-.43-1.53-.61l-.07-.02-.07-.03c-1.08-.43-2.11-1.03-3.03-1.88-1.14-1.07-1.89-2.56-2.18-4.26-.89,1.53-1.86,3.02-2.94,4.32-2.38,2.87-5.2,4.79-8.39,5.75l-2.24.67-1.53-2.2c-.08-.12-.19-.22-.31-.31-.64-.31-1.28-.63-1.9-1-1.15-.62-2.21-1.48-3.05-2.68-.13-.19-.25-.37-.36-.56-.49.43-.99.83-1.5,1.23-1.37,1.13-2.84,2.03-4.39,2.69-1.73.73-3.54,1.06-5.36,1.06-.97,0-1.95-.1-2.91-.28l-.88-.16-.73-.63c-1.14-.97-2.28-1.95-3.42-2.93-2.84-2.44-5.61-5.91-5.61-10.59,0-1.72.38-3.36,1-4.86.62-1.94,1.38-3.77,2.25-5.49-.92.22-1.85.39-2.78.54-1.87.3-3.75.5-5.63.65-1.69.13-3.38.28-5.07.46-.58.06-1.17.13-1.75.2-.03.05-.06.11-.09.15-.56.92-1.12,1.85-1.69,2.77-.13.22-.28.46-.43.69.21-.06.43-.11.64-.17l10.57-2.8-6.77,10.71c-4.28,6.77-9.72,11.47-16.45,13.15l-.85.22-.84-.27c-1.95-.62-3.84-1.85-5.54-3.21-1.44-1.15-2.87-2.33-4.29-3.54l-1.7-1.47v-2.62c0-5.3,1.65-10.25,3.92-14.6l.05-.1.06-.1c.22-.37.43-.74.64-1.11-1.49-1.12-2.68-2.76-3.03-5.08-.06-.43-.1-.86-.1-1.3,0-1.8.51-3.47,1.29-4.96l.25-.47.32-.38c.2-.26.43-.72.58-1.02.38-.75.76-1.5,1.16-2.22l.05-.08.05-.08c.7-1.15,1.5-2.25,2.44-3.09l.04-.04.05-.04c1.42-1.2,3.11-1.75,4.79-1.95l5.23-.62-.15.9c.32-.6.66-1.19.99-1.78-1.44-1.17-2.57-2.81-2.81-5.13-.1-.92-.16-1.86-.16-2.8,0-1.95.29-3.86.88-5.65.56-1.66,1.3-3.24,2.1-4.72l.69-1.28,1.11-.53c.2-.11.42-.27.61-.41.49-.35.97-.72,1.44-1.1,1.64-1.29,3.45-1.96,5.38-1.96h1.42l1.08,1.17c.83.89,1.46,2,1.78,3.27,3.27-.02,6.53-.07,9.8-.18,4.3-.15,8.61-.29,12.9-.42,4.01-.13,8.02-.23,12.04-.23h7.23l-4.01,7.66c-.2.39-.46.88-.62,1.29-.14.37-.26.76-.36,1.15-.54,1.94-1.26,4.31-2.25,5.95-1.53,2.54-3.7,3.94-6.15,4.39-1.69.5-3.45.82-5.17,1.06-2.31.32-4.64.5-6.96.62-2.13.11-4.26.24-6.38.48-.57.07-1.15.13-1.73.21.17,0,.34-.02.51-.03h.11s.11,0,.11,0c1.82,0,3.69,0,5.5.17.83.08,1.66.23,2.47.4,1.04.22,2.08.48,3.11.77l6.19,1.71c2.12-1.36,4.3-2.56,6.49-3.63,2.35-1.16,4.83-1.71,7.36-1.71,2.1,0,4.16.43,6.11,1.42,1.35.68,2.54,1.64,3.55,2.87.14-.08.3-.16.45-.23l.58-.23h2.4c1.09,0,2.22.04,3.29.25,1.18.24,2.35.8,3.43,1.45l.72.43c.88-.86,1.8-1.64,2.76-2.37,2.64-1.98,5.6-3.44,8.7-3.44,1.67,0,3.28.45,4.78,1.38,1.63,1.02,2.94,2.59,3.98,4.48l.24.43v.05c1.74-1.64,3.57-3.11,5.49-4.36l.26-.17.28-.11c.97-.41,1.99-.71,3.01-.71,1.89,0,3.64.99,5.16,2.34.43.38.87.76,1.32,1.11.16.12.35.28.53.38l1.57.57c.75-.7,1.53-1.35,2.34-1.96,2.64-1.98,5.6-3.44,8.7-3.44,1.67,0,3.28.45,4.78,1.38,1.63,1.02,2.94,2.59,3.98,4.48l.24.44v.04c1.75-1.63,3.57-3.11,5.49-4.35l.26-.17.27-.11c.97-.41,1.99-.71,3.02-.71,1.88,0,3.64.99,5.16,2.34.43.38.87.76,1.32,1.11.16.12.35.28.53.38l1.97.71.58,2.64c.05.22.09.44.13.66,1.92-1.9,4.03-3.47,6.31-4.66,1.21-.63,2.42-1.26,3.64-1.86.83-.41,1.68-.82,2.53-1.16,2.5-1.01,5.15-1.69,7.79-1.69s5.31.79,7.67,2.48l.58.42.35.51c.12.12.26.23.38.32.37.29.76.54,1.14.79,1.84,1.17,3.56,2.83,4.39,5.32l.15.42c1.22-2.01,2.47-4.01,3.74-5.98,1.42-2.21,2.85-4.4,4.29-6.59l-2.89,1.59,3.92-11.43c.68-2,1.6-3.87,2.82-5.41.92-1.16,1.99-2.12,3.14-2.9.87-.59,1.76-1.15,2.65-1.69.9-.55,1.8-1.11,2.72-1.61l.32-.18.34-.1c.77-.23,1.56-.35,2.35-.35,2.72,0,5.03,1.68,6.86,4.15l.04.05.03.05c.62.89,1.26,1.78,1.91,2.64l1.06,1.43v1.96c0,.71-.02,1.41-.07,2.11M235.37,22.9c-.72,1.81-1.57,3.56-2.46,5.24,1.31-2.03,2.63-4.04,3.95-6.06l-1.49.82ZM225.36,40.58c-.64.98-1.28,1.96-1.92,2.94l-6.91,11.15h1.64c.67-2.24,1.65-4.34,2.74-6.26,1.48-2.61,2.96-5.23,4.45-7.84"/>
      <path class="cls-2" d="M60.02,19.88c-2.65.82-6.51,1.36-11.58,1.61-5.07.26-8.76.66-11.07,1.22-.22,1.53-.72,3.08-1.51,4.64-.79,1.56-1.57,3.06-2.34,4.48,1.24.16,2.44.23,3.59.23h2.05c.68,0,1.37-.02,2.05-.08,2.36,0,4.1.05,5.23.15,1.13.11,2.81.46,5.04,1.07-1.24.87-2.03,1.54-2.37,1.99-.51.92-1.02,1.87-1.51,2.84-.49.97-1,1.71-1.51,2.22-.73.76-1.65,1.25-2.76,1.45-2.14.66-5.25,1.17-9.34,1.49-4.09.33-6.86.63-8.31.89-.38.3-.85.91-1.41,1.84-1.45,2.4-2.22,3.65-2.31,3.76-.98,1.68-1.97,3.34-2.95,4.98-1.03,2.04-1.54,3.96-1.54,5.75.17.05.43.07.77.07.68,0,1.47-.23,2.38-.68.38-.2,1.11-.63,2.18-1.3.43-.26.89-.48,1.38-.69.49-.2,1.32-.45,2.47-.76-3.94,6.22-8.66,10.03-14.18,11.41-1.29-.42-2.76-1.28-4.43-2.61-1.41-1.13-2.81-2.28-4.17-3.45,0-3.73,1.09-7.69,3.27-11.88,1.63-2.81,2.8-4.9,3.53-6.29-1.37-.61-2.42-1.1-3.15-1.45-1.41-.71-2.12-1.61-2.12-2.68,0-.66.21-1.4.64-2.22.34-.41.74-1.06,1.19-1.95.45-.9.8-1.58,1.05-2.04.56-.92,1.09-1.6,1.61-2.07.73-.61,1.73-.99,3.02-1.15-.04.26-.06.49-.06.69v.46c0,.57.26.9.77,1,.51.1,1.05.15,1.6.15,2.14,0,3.93-1.25,5.39-3.76,1.24-2.25,2.5-4.5,3.78-6.75-.13-.15-1.03-.72-2.69-1.69-1.28-.72-1.97-1.49-2.05-2.3-.09-.82-.13-1.54-.13-2.15,0-1.34.19-2.58.58-3.72.39-1.15.96-2.44,1.73-3.87.43-.2,1.33-.84,2.69-1.92,1.03-.82,2.14-1.23,3.34-1.23.42.46.64.92.64,1.38,0,.41-.16.87-.48,1.38-.32.51-.38.84-.16,1l1.86.69c4.41,0,8.51-.06,12.32-.19,3.81-.13,8.1-.27,12.9-.42,4.79-.16,8.77-.23,11.93-.23-.43.82-.73,1.45-.9,1.92-.17.46-.34,1-.51,1.6-.64,2.3-1.2,3.84-1.67,4.6-.85,1.43-2.12,2.28-3.78,2.53"/>
      <path class="cls-2" d="M53.54,56.99l-.39,1.61.19-.15c.85-.15,1.36-.2,1.54-.15,2.48-1.64,4.97-3.3,7.45-4.99,2.87-1.99,5.39-3.91,7.57-5.75,2.61-2.2,4.77-4.4,6.48-6.59.13-.41.2-.74.2-1,0-.92-.56-1.38-1.67-1.38-4.57,1.79-8.66,4.29-12.26,7.51-3.17,2.86-6.21,6.49-9.11,10.89M84.85,54c-2.01,4.45-3.85,7.67-5.52,9.66-1.84,2.25-4.04,3.76-6.61,4.52-.42-.62-.96-1.13-1.6-1.53-.85-.41-1.5-.74-1.93-1-.77-.41-1.34-.9-1.73-1.46-.51-.71-.77-1.63-.77-2.76l.38-3.07c-.6.46-1.92,1.64-3.98,3.53-.89.82-1.71,1.51-2.44,2.07-1.11.92-2.3,1.65-3.56,2.19-1.26.53-2.64.8-4.14.8-.73,0-1.52-.07-2.38-.23-1.5-1.27-2.63-2.25-3.4-2.91-2.61-2.25-3.91-4.42-3.91-6.52,0-.87.21-1.79.64-2.76,1.62-5.21,4.53-9.89,8.73-14.03,3.64-3.58,8.21-6.72,13.73-9.43,1.88-.92,3.87-1.38,5.97-1.38,1.71,0,3.27.36,4.69,1.07,1.41.71,2.5,1.84,3.27,3.37-.13.77-.02,1.27.32,1.53.35,0,.69-.15,1.03-.46,1.2-1.07,1.86-1.64,1.99-1.69h1.79c1.16,0,2.06.06,2.7.19.64.12,1.43.47,2.37,1.04-1.2,3.32-2.89,6.78-5.07,10.35-5.99,9.76-9.15,15.03-9.49,15.8v.84c1.15-.36,2.31-1.02,3.46-1.99,1.41-1.18,3.23-3.09,5.45-5.75"/>
      <path class="cls-2" d="M98.94,67.34c-.47.46-1.09.69-1.86.69-.77,0-1.37-.28-1.8-.84-.17-.87-.92-1.58-2.25-2.15-.86-.36-1.43-.58-1.73-.69-.77-.31-1.4-.69-1.89-1.15-.49-.46-.74-1.1-.74-1.91,0-.72.21-1.51.64-2.38.81-2.2,2.03-4.83,3.66-7.9,1.37-2.5,2.74-5.03,4.11-7.59,1.54-3.01,2.65-5.73,3.34-8.13-.85,0-1.82.29-2.89.84-.56.36-1.11.69-1.67,1-.13.05-.5.19-1.13.42-.62.23-1.5.48-2.66.73,1.63-2.25,3.47-4.14,5.52-5.68,2.44-1.84,4.69-2.76,6.74-2.76,1.11,0,2.14.29,3.08.88.94.59,1.77,1.55,2.5,2.87.3.92.45,1.84.45,2.76,0,.87-.04,1.49-.13,1.88-.08.38-.51,1.7-1.28,3.95,2.44-2.61,4.26-4.52,5.45-5.75,2.06-2.09,4.11-3.81,6.16-5.14.73-.31,1.32-.46,1.79-.46.86,0,1.84.49,2.95,1.46,1.37,1.23,2.33,1.94,2.89,2.14.17.77.26,1.56.26,2.38,0,1.33-.3,2.74-.9,4.22-1.63,4.04-2.48,6.26-2.56,6.67-.38.56-.99,1.92-1.8,4.07-.6,1.64-1.47,2.86-2.63,3.68-.6-.46-1.19-.74-1.77-.84-.57-.1-1.02-.16-1.31-.16-.69,0-1.27-.1-1.76-.31-.49-.2-.95-.63-1.38-1.27-.43-.64-.65-1.29-.65-1.95,0-.36.09-.85.26-1.46-1.32,1.43-4.43,5.16-9.3,11.19-2.22,2.76-4.13,4.98-5.71,6.67"/>
      <path class="cls-2" d="M136.59,67.34c-.47.46-1.09.69-1.86.69-.77,0-1.37-.28-1.8-.84-.17-.87-.92-1.58-2.25-2.15-.86-.36-1.44-.58-1.73-.69-.77-.31-1.4-.69-1.9-1.15-.49-.46-.73-1.1-.73-1.91,0-.72.21-1.51.64-2.38.81-2.2,2.03-4.83,3.65-7.9,1.37-2.5,2.74-5.03,4.11-7.59,1.54-3.01,2.65-5.73,3.34-8.13-.85,0-1.82.29-2.89.84-.56.36-1.11.69-1.67,1-.13.05-.5.19-1.12.42-.62.23-1.51.48-2.66.73,1.62-2.25,3.46-4.14,5.52-5.68,2.44-1.84,4.69-2.76,6.74-2.76,1.11,0,2.14.29,3.08.88.94.59,1.77,1.55,2.5,2.87.3.92.45,1.84.45,2.76,0,.87-.04,1.49-.13,1.88-.09.38-.51,1.7-1.28,3.95,2.44-2.61,4.26-4.52,5.45-5.75,2.05-2.09,4.1-3.81,6.16-5.14.72-.31,1.32-.46,1.79-.46.86,0,1.84.49,2.95,1.46,1.37,1.23,2.33,1.94,2.89,2.14.17.77.26,1.56.26,2.38,0,1.33-.3,2.74-.9,4.22-1.63,4.04-2.48,6.26-2.57,6.67-.38.56-.98,1.92-1.79,4.07-.6,1.64-1.48,2.86-2.63,3.68-.6-.46-1.19-.74-1.77-.84-.58-.1-1.01-.16-1.31-.16-.69,0-1.27-.1-1.76-.31-.49-.2-.95-.63-1.38-1.27-.43-.64-.64-1.29-.64-1.95,0-.36.08-.85.26-1.46-1.33,1.43-4.43,5.16-9.31,11.19-2.23,2.76-4.13,4.98-5.71,6.67"/>
      <path class="cls-2" d="M184.12,41.66c-.13.15-.83.79-2.12,1.91-.94.87-1.49,1.61-1.67,2.22.47.15.92.23,1.35.23.85,0,1.79-.26,2.82-.77,1.24-.71,2.14-1.23,2.69-1.53,1.88-1.64,3.08-2.78,3.6-3.45.72-.97,1.2-1.94,1.41-2.91-1.41.15-3.12.92-5.13,2.3-1.63,1.12-2.61,1.79-2.95,2M179.37,52.54c-.13-.46-.53-.99-1.22-1.61-.68-.62-1.11-1.13-1.29-1.53-1.37,1.38-2.44,2.9-3.21,4.56-.77,1.66-1.16,3.44-1.16,5.33.86.67,1.84.99,2.95.99,1.24,0,2.81-.41,4.69-1.23.85-.41,1.73-.82,2.63-1.23l8.28-4.61c.38.67.72,1.34,1.03,2,.55,1.23.83,2.4.83,3.53-1.24,2.09-3.08,3.93-5.52,5.52-2.01,1.33-4.28,2.4-6.8,3.22-.98.15-1.9.23-2.76.23-.94,0-1.74-.08-2.38-.23-.64-.16-1.37-.52-2.18-1.08-.34-.31-2.14-1.18-5.39-2.61-2.27-.97-3.66-2.43-4.17-4.37-.52-.97-.77-2.09-.77-3.37,0-.86.16-2.15.48-3.83.32-1.69.48-2.88.48-3.6,3.42-4.98,5.39-7.8,5.9-8.47,2.31-2.87,4.87-5.04,7.67-6.5,2.8-1.47,4.76-2.43,5.87-2.89,2.44-.98,4.64-1.47,6.61-1.47,2.14,0,4.07.62,5.78,1.85.38.56,1.26,1.29,2.63,2.15,1.37.87,2.23,1.82,2.57,2.85.04.36.06.9.06,1.62,0,3.03-1.05,5.82-3.15,8.38-1.7,2.1-4.06,3.98-7.05,5.62-1.37.57-2.59.99-3.66,1.27-1.07.28-2.25.42-3.53.42-.89,0-1.62-.05-2.19-.15-.55-.1-1.23-.35-2.05-.76"/>
      <path class="cls-2" d="M220.44,40.41l-12.97,20.93v1h.78c.74,0,1.63-.28,2.67-.84.52-.26,1.02-.51,1.5-.76.48-.26,1.02-.46,1.63-.61,1.35-.35,2.04-.53,2.09-.53-3.34,5.41-7.49,8.11-12.45,8.11-1.75-1.27-3.06-2.24-3.91-2.91-1.63-1.28-2.59-2.64-2.88-4.07,0-2.81.98-5.95,2.95-9.43,1.63-2.86,3.25-5.72,4.87-8.59,2.14-3.73,4.36-7.37,6.64-10.92,2.29-3.55,4.61-7.12,6.96-10.69,2.69-4.19,4.98-7.84,6.87-10.96v-.31l-7.96,4.37c.55-1.62,1.22-2.91,1.99-3.88.6-.76,1.35-1.44,2.25-2.05.51-.35,1.35-.89,2.5-1.6,1.16-.71,2.01-1.21,2.57-1.52.51-.15,1-.23,1.47-.23,1.41,0,2.76.87,4.04,2.61.64.92,1.3,1.84,1.99,2.76,0,2.76-.47,5.57-1.41,8.43-.73,2.25-1.88,4.81-3.46,7.67-1.32,2.4-3.12,5.36-5.39,8.89-1.12,1.74-2.22,3.45-3.34,5.13"/>
      <path class="cls-2" d="M244.65,40.41l-12.97,20.93v1h.78c.74,0,1.63-.28,2.67-.84.52-.26,1.02-.51,1.5-.76.48-.26,1.02-.46,1.63-.61,1.35-.35,2.04-.53,2.08-.53-3.34,5.41-7.49,8.11-12.45,8.11-1.75-1.27-3.06-2.24-3.91-2.91-1.63-1.28-2.59-2.64-2.89-4.07,0-2.81.98-5.95,2.95-9.43,1.62-2.86,3.25-5.72,4.88-8.59,2.14-3.73,4.35-7.37,6.64-10.92,2.29-3.55,4.61-7.12,6.96-10.69,2.7-4.19,4.98-7.84,6.87-10.96v-.31l-7.96,4.37c.56-1.62,1.22-2.91,1.99-3.88.6-.76,1.35-1.44,2.24-2.05.51-.35,1.35-.89,2.5-1.6,1.16-.71,2.01-1.21,2.56-1.52.52-.15,1.01-.23,1.48-.23,1.41,0,2.76.87,4.04,2.61.64.92,1.3,1.84,1.99,2.76,0,2.76-.47,5.57-1.41,8.43-.73,2.25-1.88,4.81-3.46,7.67-1.32,2.4-3.12,5.36-5.39,8.89-1.11,1.74-2.22,3.45-3.34,5.13"/>
      <path class="cls-1" d="M214.04,84.27c2.45-1.69,5.19-3.1,8.21-4.15l.35-.12.37-.08c.76-.16,1.52-.28,2.29-.4.97-.15,1.98-.28,2.97-.28,1.37,0,2.71.2,3.96.64,1.42.49,2.58,1.29,3.44,2.29.93.43,2.06.96,2.72,1.53l.07.06.07.06c.71.67,1.26,1.43,1.67,2.24.47.91.71,1.87.71,2.86,0,.81-.16,1.61-.51,2.37-.51,1.33-1.18,2.64-2.12,3.82-.4.5-.85.98-1.35,1.41,1.04,1.01,1.6,2.23,1.6,3.54,0,.55-.1,1.08-.27,1.61-.13.38-.27.77-.41,1.15-.02.08-.06.17-.07.25v3.05l-4.02.48c-.46.06-.94.11-1.41.12-.59,1.8-1.81,3.46-3.31,4.93-.93.92-2.07,1.81-3.12,2.64l-1.4,1.11h-.85c-.69.46-1.44.89-2.29,1.16-.65.2-1.33.35-2.03.41-.48.04-.97.07-1.45.07-1.43,0-2.85-.2-4.18-.61-.7-.21-1.36-.48-2-.77-1.01-.03-2.04-.11-3-.31-1.84-.4-3.44-1.18-4.63-2.34-.73-.72-1.36-1.47-1.87-2.28-1.14,1.47-2.35,2.92-3.62,4.33l-.39.44-.54.33c-1.27.78-2.78,1.25-4.42,1.25-1.99,0-3.71-.72-5.06-1.81-.42-.34-.83-.68-1.24-1.03l-1.92-.28-.96-1.89c-.07-.15-.15-.3-.22-.46-.41.64-.83,1.28-1.26,1.91l-.31.45-.5.41c-1.12,1.17-2.78,1.92-4.7,1.92-.8,0-1.57-.13-2.31-.35l-2.48-.73-.29-1.19c-.24-.12-.47-.26-.68-.39-.02.02-.04.03-.07.04-.55.4-1.13.8-1.7,1.19-1.88,1.4-4.23,2.21-6.86,2.21h-1.22l-.28-.07h-.83l-1.23-.67c-1.21-.65-2.34-1.43-3.21-2.35l-.02-.04-.03-.03c-.22-.25-.42-.51-.6-.77-.04.03-.07.05-.11.07-2.7,1.72-5.82,2.79-9.28,3.16l-.32.03h-.32c-.44,0-.88.02-1.31.03-.55.02-1.1.05-1.65.08h-.14s-.14,0-.14,0c-1.5,0-3.03-.13-4.43-.54-.37-.11-.72-.23-1.06-.38-.28.23-.57.45-.88.66l-3.23,2.16-3.12-2.25c-.89-.65-1.65-1.38-2.32-2.16-.49-.59-.99-1.17-1.49-1.76l-.26-.32c-.8.88-1.67,1.72-2.64,2.44-1.79,1.33-3.95,2.26-6.43,2.49l-.58.05-.58-.05c-1.76-.17-3.35-.75-4.69-1.64-1.08-.72-1.97-1.57-2.63-2.54-.87.84-1.76,1.67-2.67,2.49l-1.42,1.27h-2.17c-2.16,0-3.9-.85-5.29-2.01h-1.28l-1.36-1.87c-.07-.09-.13-.18-.19-.27-.97,1.26-2.01,2.5-3.17,3.64l-2.74,2.69-3.67-1.93c-.89-.46-1.68-1.08-2.39-1.7,0,0,0,0,0,0l-.68-.15c-1.45,1.16-3.58,1.62-5.6,1.16l-1.09-.25-.82-.61c-.27-.21-.6-.43-.94-.68-1.2.79-2.5,1.48-3.91,2.04l-1.04.4h-1.16c-1.97-.02-3.81-.55-5.38-1.46-.65-.38-1.3-.76-1.96-1.13-.16-.09-.33-.19-.51-.28l-.49-.09c-.71.7-1.58,1.29-2.62,1.75l-.54.23-.6.11c-1.9.38-3.85.63-5.81.76-2.03.13-4.08.18-6.12.18h-4.93c-2.24,0-4.24-.75-5.68-2.07-1-.93-1.65-2.01-1.99-3.17-.18-.25-.4-.51-.59-.74-.79-.96-1.25-2.04-1.25-3.18,0-.05,0-.1,0-.14-.34.15-.69.29-1.05.43h-.04s-.04.03-.04.03c-.71.27-1.46.46-2.22.58l-2.84,3.14c-1.19,1.32-2.59,2.59-4.25,3.57-1.9,1.13-4.11,1.84-6.53,1.84h-.91l-.29-.03c-2.25-.21-4.05-1.23-5.44-2.55-.39-.37-.88-.85-1.34-1.2l-1.58-.85-.23-1.65c-.08-.58-.13-1.17-.13-1.77,0-2.89,1.5-5.76,3.28-8.25.68-.95,1.56-2.13,2.04-3.14v-.03c-1.39-.76-2.43-1.82-2.97-3.09-.44-1.04-.6-2.13-.6-3.22v-2.62l.59-.83c2.19-3.05,5.45-5.31,9.56-6.77,3.61-1.27,7.48-1.82,11.43-1.82,2.6,0,5.49.14,7.97.79,3.51.91,6.19,2.74,7.67,5.37l.04.07.03.07c.21.42.36.85.46,1.29,1.18-1.37,2.36-2.72,3.54-4.1l.17-.2.2-.18c.54-.48,1.12-.95,1.72-1.38.93-.67,1.98-1.27,3.18-1.62l.18-.05.18-.04c.59-.13,1.19-.17,1.8-.17,1.22,0,2.55.3,3.71.59l1.68-.3,1.79,1.09c1.48.91,2.36,2.23,2.36,3.69,0,.77-.24,1.51-.69,2.19l-.07.1-.23.3-.03.04-.12.19-.06.09c-1.7,2.4-3.5,4.78-5.29,7.14-1.72,2.28-3.49,4.58-5.09,6.91-.53.76-1.04,1.53-1.53,2.31.1,0,.19,0,.29-.01,1.9-.06,3.82-.12,5.72-.14.06-.39.13-.77.22-1.16.25-1.06.59-2.1.98-3.14,1.26-3.24,2.85-6.4,4.83-9.42,1.98-3.03,4.38-5.93,7.33-8.45.71-.62,1.56-1.12,2.54-1.47.94-.33,1.94-.51,2.97-.51.93,0,1.85.15,2.74.34.14.03.3.06.44.1l2.84-.66,1.97,2.13c.37.4.66.84.88,1.29.14.28.25.57.32.87.09-.11.17-.22.26-.33.57-.75,1.14-1.5,1.74-2.23l.88-1.08,1.56-.42c.64-.17,1.3-.24,1.98-.24,1.59,0,3.02.5,4.12,1.33.7.23,1.35.55,1.96.93.96.61,1.66,1.39,2.14,2.26.56-.43,1.19-.81,1.87-1.12,1.47-1.19,3.44-1.83,5.66-1.83h1.05l1.25-.45h1.05c.2,0,.43,0,.63-.01.25-.03.49-.04.73-.07l.3-.03h.3c.94,0,1.87.12,2.75.38,1.25.38,2.27,1.06,3,1.93l.75.9v1.2s.08-.06.12-.09c2.49-1.78,5.25-3.37,8.29-4.55l.21-.08.22-.06c.76-.22,1.56-.35,2.38-.35,2.09,0,3.95.75,5.25,2,.54.51,1.02,1.19,1.46,1.79l.04.05c2.1-1.11,4.41-1.96,6.91-2.58,4.16-1.02,8.64-1.37,12.98-1.37,2.09,0,4.1.38,5.95,1.12,2.37.95,4.17,2.42,5.21,4.32l.37.68v.74c0,.2.16.55.24.75.11.25.23.52.35.8.8-1.03,1.64-2.04,2.54-3.01,1.52-1.64,3.25-3.16,5.21-4.49l1.34-.92h1.79c1.13,0,2.24.11,3.33.34,1,.21,1.98.5,2.93.82l3.68,1.22c.17-.08.34-.14.52-.21.31-.11.64-.2.96-.26l.04-.09,2.34-.57c1.05-.25,2.11-.5,3.16-.75l.68-.16h.71c.99,0,1.95.15,2.85.48.83.3,1.55.73,2.19,1.23l.97.75s.01-.02.01-.03l.37-.63,6.3-4.68,2.94,4.32s.08.12.13.16c.43.3.85.59,1.28.88.81.56,1.5,1.21,1.98,1.97.05.08.1.17.14.25M130.24,97.02c-1.12,1.75-2.24,3.49-3.35,5.24-.22.37-.45.74-.66,1.12l.66-.19c.17-.29.36-.58.56-.87l.03-.04.03-.05c1.17-1.59,2.33-3.18,3.51-4.77-.27-.14-.53-.28-.79-.44"/>
      <path class="cls-2" d="M10.47,93.26c.11.18.33.3.66.36.32.06.63.12.93.17.3.05.5.08.62.12.3.12.55.22.76.29-.34.35-.7.61-1.06.76-.35.16-.7.25-1.05.25-.3,0-.66-.04-1.07-.12-.42-.07-.83-.15-1.24-.22-.71-.32-1.19-.77-1.43-1.34-.24-.57-.36-1.27-.36-2.09v-1.67c1.68-2.34,4.14-4.07,7.39-5.22,2.8-1,5.95-1.49,9.45-1.49,2.78,0,4.93.2,6.45.6,2.3.6,3.91,1.71,4.83,3.35.17.32.25.63.25.93s-.11.78-.31,1.45c-.12.38-.17.66-.17.86,0,.24.04.46.12.63.08.17.2.34.37.49,0,3.01-1.14,5.76-3.41,8.27-2.05,2.23-4.63,3.96-7.76,5.18-.73.27-1.59.41-2.58.41-1.24,0-2.39-.19-3.45-.6-.41-.2-.76-.52-1.03-.97-.14-.22-.35-.68-.65-1.38-.88.89-1.83,2.26-2.86,4.1-.51.89-1,1.79-1.48,2.68-.34.45-.52.89-.52,1.31,0,.1.02.25.07.45.32.17.67.26,1.03.26.32,0,.7-.07,1.14-.22.07-.03.44-.17,1.1-.45.18-.08.43-.16.76-.26.6-.18,1.13-.31,1.59-.41-1.11,1.22-2.19,2.14-3.24,2.76-1.22.72-2.44,1.08-3.65,1.08h-.62c-.78-.07-1.56-.48-2.34-1.23-1.08-1.02-1.78-1.62-2.1-1.78-.07-.5-.1-.96-.1-1.38,0-1.82.89-3.97,2.69-6.48,1.19-1.67,1.98-2.88,2.34-3.65,2.21-2.91,4.41-5.82,6.62-8.76-1.59.35-2.81.7-3.69,1.05-1.17.49-2.16,1.14-2.97,1.93M24.3,89.61c0,1.52-.65,3.17-1.93,4.96-1.84,2.56-2.86,4.06-3.07,4.51.09.3.41.45.96.45.19,0,.44-.03.76-.08,2.25-.8,4.15-1.86,5.72-3.21,1.79-1.57,2.86-3.3,3.21-5.22-.23-.38-.55-.66-.95-.86-.4-.2-.85-.33-1.35-.39-.49-.06-1.04-.11-1.65-.13-.61-.03-1.18-.04-1.7-.04"/>
      <path class="cls-2" d="M55.65,85.07l-.14.19-.14.22c-1.04,1.47-2.78,3.82-5.22,7.05-2.45,3.23-4.18,5.58-5.19,7.05-1.79,2.6-3.31,5.11-4.55,7.53l.82.3c1.4,0,3.69-.05,6.86-.15,3.17-.1,5.56-.14,7.17-.14,0,1.74-.21,2.99-.64,3.74-.43.76-1.04,1.31-1.84,1.66-1.63.32-3.31.54-5.03.65-1.72.11-3.63.17-5.72.17h-4.92c-.8,0-1.48-.26-2.03-.76-.55-.51-.91-1.15-1.07-1.92-.02-.17-.4-.71-1.14-1.6-.35-.43-.52-.84-.52-1.23,0-.17.04-.37.1-.6.76-2.61,2.05-5.33,3.86-8.16,1.31-2.06,3.16-4.51,5.55-7.34,1.95-2.26,3.91-4.52,5.86-6.78.51-.45.96-.82,1.38-1.12.62-.45,1.15-.73,1.59-.86.12-.03.29-.04.52-.04.39,0,1.15.14,2.28.42.55.14,1.01.21,1.38.21.26,0,.45-.01.58-.04.37.22.56.5.56.82,0,.17-.06.35-.17.52l-.17.23Z"/>
      <path class="cls-2" d="M77.89,111.71s-.26.21-.66.56c-.25.22-.54.3-.86.22-1.15-.84-1.77-1.32-1.86-1.42-.69-.67-.99-1.39-.9-2.17,0-.24.08-.58.24-1.01.16-.44.25-.7.27-.8-1.42,1.54-2.58,2.68-3.48,3.42-1.45,1.2-2.96,2.1-4.55,2.72-.89,0-1.74-.24-2.55-.71-2.11-1.23-3.31-1.88-3.59-1.93-.64-.64-1.09-1.38-1.36-2.2-.26-.82-.4-1.73-.4-2.72s.1-1.86.31-2.74c.21-.89.49-1.8.86-2.74,1.24-3.2,2.74-6.15,4.52-8.82,1.95-3.01,4.17-5.57,6.65-7.68.28-.25.59-.43.95-.56.36-.12.69-.19,1.02-.19.35,0,.84.07,1.48.2.64.14,1.06.22,1.26.24.2.02.38.04.57.04.23,0,.51-.04.83-.11.11.12.22.28.31.47.09.19.14.39.14.62,0,.35-.15.73-.45,1.15-.09.12-.26.35-.52.67-.6,1.06-1.95,3.18-4.07,6.33-1.76,2.63-3.1,4.84-3.99,6.63-1.29,2.56-2.09,4.95-2.41,7.18.74,0,1.52-.29,2.36-.88.84-.58,1.63-1.15,2.4-1.69,1.88-1.89,3.9-4.12,6.07-6.71,1.47-1.76,3.35-4.13,5.65-7.11,3.36-4.38,5.22-6.79,5.58-7.23.09-.02.23-.04.41-.04.35,0,.66.14.95.43.29.28.61.47.97.53.36.06.74.22,1.15.48.42.26.73.68.96,1.25-.78,2.29-1.73,4.6-2.86,6.93-.92,1.91-2.09,4.1-3.51,6.56-.71,1.22-1.56,2.63-2.55,4.26-.3.49-1.19,1.91-2.65,4.24-1.33,2.13-2.23,3.58-2.69,4.32"/>
      <path class="cls-2" d="M101.38,112.79c-.69,0-1.47-.45-2.35-1.34-.44-.45-.92-.67-1.45-.67-.25-.35-.42-.7-.52-1.06-.09-.36-.14-.74-.14-1.14,0-.25.03-.68.07-1.29.05-.61.07-.96.07-1.06,1.04-3.73,2.08-7.47,3.14-11.22-.62.77-1.4,1.83-2.34,3.16-1.29,1.82-2.56,3.62-3.83,5.44-1.65,2.36-2.87,4.08-3.65,5.17-1.4,1.99-2.74,3.62-4.03,4.88-.39-.21-.89-.57-1.5-1.1-.61-.54-1.19-.87-1.74-.99-.09-.4-.14-.84-.14-1.34,0-1.51.55-3.18,1.65-4.99.94-1.49,1.9-2.99,2.86-4.51,1.24-1.61,2.16-2.82,2.76-3.61,1.17-1.51,2.13-2.67,2.89-3.46.6-1.12,1.63-2.45,3.1-3.98.69-.72,1.37-1.44,2.05-2.14.68-.71,1.12-1.15,1.33-1.32.46-.38,1-.66,1.62-.86.62-.72,1.49-1.08,2.62-1.08h.69c.23.07.4.14.5.19.1.05.23.08.36.08.16,0,.33-.05.52-.15.19-.1.37-.2.55-.3l.72-.26c.46,0,.84-.01,1.14-.04.3-.02.57-.05.83-.07.39,0,.73.05,1.02.13.28.09.53.26.74.5,0,.8-.12,1.59-.38,2.38-.39,1.22-.77,2.43-1.13,3.62-.14.15-.24.43-.31.84-.07.41-.18.72-.35.91l-1.93,6.07c1.98-1.91,3.95-3.83,5.93-5.77,2.39-2.26,4.48-4.04,6.27-5.33,2.39-1.72,4.78-3.03,7.17-3.95.25-.07.48-.11.69-.11.59,0,1.12.21,1.55.63.18.17.56.66,1.14,1.45l.34.37c.09.25.16.52.21.8.05.28.07.55.07.8,0,.72-.18,1.45-.55,2.2-.14.27-.55.95-1.24,2.01-.37.55-.64,1.1-.83,1.64-1.65,2.58-3.31,5.17-4.96,7.75-1.89,3.13-3.22,5.93-4,8.38-.04.21.05.34.28.42l3.65-1.08c-1.22,1.51-2.31,2.63-3.27,3.35-1.17.87-2.41,1.37-3.72,1.49-.78-.08-1.51-.33-2.19-.78-.68-.45-1.21-.99-1.6-1.6-.2-.67-.31-1.32-.31-1.94,0-1,.24-2.1.72-3.32.18-.47.67-1.49,1.45-3.06.39-.99.97-2.06,1.75-3.21.72-.99,1.42-1.98,2.14-2.98-1.42,1.34-3.18,3.13-5.27,5.37-1.74,1.86-3.48,3.71-5.2,5.55-2.04,2.14-3.93,3.97-5.65,5.52"/>
      <path class="cls-2" d="M153.04,98.69c.37.09.7.19.98.28.29.09.51.22.67.39.71.5,1.23,1.11,1.55,1.86.32.75.48,1.56.48,2.43,0,.35-.01.62-.03.82-.02.2-.07.52-.14.97-.92,2.02-2.39,3.67-4.43,4.96-2.03,1.3-4.34,2.08-6.91,2.36-.51,0-1.04.01-1.59.04-.55.02-1.1.05-1.65.08-1.15,0-2.05-.1-2.72-.3-.92-.28-1.68-.77-2.28-1.49-.18-.22-.37-.48-.55-.77-.18-.29-.32-.56-.41-.84-.23.17-.48.44-.74.82-.26.38-.47.66-.6.86-.37.54-.65.95-.86,1.19-.39.45-.83.83-1.31,1.16-.56-.4-1.08-.9-1.59-1.49-.5-.6-1-1.18-1.48-1.75,0-2.01.74-4.08,2.21-6.22,1.31-1.78,2.63-3.58,3.96-5.37,2.18-2.88,4.37-5.76,6.55-8.64-.99,0-2.18.29-3.58.86-.71.3-1.41.6-2.1.9-.16.17-.36.33-.59.48-.23.15-.4.26-.51.33-.23.2-.35.38-.35.52l2.72,1.38c-.8.22-1.5.34-2.1.34-.67,0-1.23-.1-1.69-.28-.46-.18-.94-.48-1.44-.88-.26-.7-.38-1.5-.38-2.43,0-.82.13-1.62.38-2.39,2.46-2.22,5.61-3.8,9.47-4.75,3.22-.8,7.06-1.2,11.54-1.2,1.34,0,2.59.24,3.76.71,1.42.57,2.43,1.41,3.03,2.5,0,.52.16,1.15.48,1.9.73,1.69,1.1,2.74,1.1,3.14s-.08.76-.24,1.1c-.16.33-.44.7-.83,1.07-.46.67-.98,1.26-1.55,1.76-.57.49-1.25.97-2.03,1.42-.37.22-1.22.67-2.55,1.34-.48.25-1.03.54-1.65.86M149.25,88.83c0,1.23-.45,2.56-1.35,3.96-.76,1.21-1.52,2.41-2.27,3.6,3.19-1.12,5.45-2.13,6.75-3.01,1.31-.89,2.33-1.92,3.07-3.09-.07-.23-.22-.42-.45-.58-.23-.16-.49-.32-.79-.48-1.15-.27-2.34-.41-3.58-.41h-1.37M143.25,100.31c-1.1.57-2.09,1.45-2.96,2.64-.53.72-1.23,1.9-2.1,3.54.16.17.48.32.96.43.48.11.93.2,1.34.28,1.77,0,3.39-.27,4.86-.8,1.47-.54,2.7-1.35,3.69-2.44.41-.4.62-.86.62-1.38,0-.25-.07-.47-.21-.67-.34-.37-.75-.66-1.22-.86-.47-.2-1.14-.34-2-.43-.86-.09-1.86-.2-2.98-.32"/>
      <path class="cls-2" d="M166.83,107.8c0,.12-.03.32-.1.6-.07.27-.1.46-.1.56,0,.15.05.26.14.34.41,0,.83-.14,1.24-.41.16-.1.4-.26.72-.48.21-.12.42-.24.66-.34.23-.1.46-.2.69-.3-.11,1.07-.56,1.96-1.34,2.68-.16.15-.98.73-2.45,1.75-1.08.82-2.29,1.23-3.62,1.23-.14,0-.27,0-.41,0-.18-.05-.32-.08-.41-.08-.92-.5-1.61-.99-2.07-1.49-.53-.6-.9-1.36-1.1-2.3.32-1.74.91-3.53,1.76-5.37.18-.4,1.72-3.08,4.62-8.04,1.12-1.64,2.26-3.28,3.41-4.92,1.28-1.78,2.48-3.27,3.58-4.47,1.38-1.49,2.87-2.78,4.48-3.87.74,0,1.43.07,2.07.2.64.14,1.41.35,2.31.65-.6,1.39-1.31,2.84-2.14,4.33-.6,1.11-1.4,2.47-2.41,4.06-.39.62-1.24,1.93-2.55,3.94-.83,1.27-1.65,2.54-2.48,3.8-.83,1.26-1.62,2.56-2.38,3.89-.76,1.33-1.46,2.68-2.11,4.04"/>
      <path class="cls-2" d="M205.21,83.54l1.1-.82c.33.47.71.86,1.16,1.17.45.31.88.61,1.29.89.41.29.71.56.88.84.17.27.26.61.26,1,0,.35-.11.74-.31,1.15-1.77,4.77-3.83,9.17-6.17,13.19-2.53,4.32-5.45,8.32-8.76,12-.48.3-.96.45-1.45.45-.53,0-1.07-.23-1.62-.67-.55-.45-1.07-.89-1.58-1.34-.25-.2-.49-.35-.71-.45-.22-.1-.5-.17-.85-.22-.39-.77-.69-1.67-.91-2.68-.22-1.02-.33-2.51-.33-4.47v-1.04c.14-.79.24-1.83.31-3.11.07-1.28.11-2.42.11-3.41l-.18.22c-.82,1.42-1.8,3.13-2.93,5.14-1.61,2.91-2.59,4.66-2.93,5.25-1.13,1.94-2.21,3.67-3.24,5.18l-.28.22-.14.15c-.27.3-.57.45-.89.45-.16,0-.37-.04-.62-.11-.11-.47-.71-.98-1.79-1.53-.57-.3-.99-.68-1.24-1.15.5-2.34.99-4.1,1.45-5.29.69-1.79,1.62-3.42,2.79-4.88,1.54-2.61,3.16-5.1,4.86-7.45,1.91-2.66,3.82-5,5.75-7.01.18-.22.4-.38.66-.47.25-.09.54-.13.86-.13.37.02.63.03.79.03.3,0,.54-.04.72-.13.19-.09.33-.27.45-.54,1.03-.25,2.08-.5,3.14-.75.32,0,.6.04.84.13.24.09.52.26.84.5-.34,2.83-.61,4.95-.79,6.34-.42,3.1-.68,5.19-.79,6.26-.3,2.61-.52,4.68-.66,6.22.53-.9,1.73-3,3.58-6.34,1.72-3.08,2.93-5.23,3.62-6.44,1.33-2.37,2.56-4.49,3.69-6.38"/>
      <path class="cls-2" d="M227.67,94.84c-.16-.06-.49-.08-1-.08h-.62c.34-.71.67-1.28,1-1.69.09-.12.5-.59,1.24-1.4.42-.47.73-.87.95-1.24.22-.35.36-.75.43-1.19.02-.15-.1-.3-.38-.42-.27-.14-.45-.22-.52-.24-3.4.85-6.5,2.57-9.3,5.17-2.48,2.31-4.5,5.06-6.07,8.26-.32,1.31-.63,2.63-.93,3.95,0,.44.09.83.26,1.18.17.35.48.67.91.97,1.68,0,3.2-.52,4.55-1.56.85-.65,1.98-1.85,3.38-3.61-.11-.17-.39-.26-.83-.26h-1c-.41,0-.74-.03-.98-.09-.24-.06-.5-.24-.78-.54.21-.37.33-.75.36-1.11.04-.36.07-.77.12-1.2.05-.44.18-.82.4-1.14.22-.32.6-.56,1.16-.71,1.56-.22,3.16-.34,4.78-.34,2.92,0,5.65.39,8.2,1.17.48.4.72.86.72,1.39,0,.22-.04.45-.12.7-.08.23-.21.6-.39,1.11-.09.27-.16.49-.19.67-.04.18-.05.33-.05.45-.41.05-.7.07-.87.07-.34,0-.7-.01-1.07-.04-.37-.02-.73-.05-1.1-.07-.39,0-.78,0-1.15.02-.38.01-.72.07-1.02.17.12.45.17.86.17,1.23,0,1.59-.9,3.27-2.69,5.03-.48.47-1.41,1.25-2.8,2.34-.46,0-.99.22-1.6.65-.61.43-1.05.7-1.33.78-.27.09-.54.14-.81.17-.26.03-.56.04-.88.04-.85,0-1.66-.12-2.43-.35-.77-.23-1.52-.57-2.26-1.02h-.72c-1.08,0-1.91-.06-2.52-.19-.92-.2-1.64-.56-2.17-1.08-.85-.82-1.47-1.7-1.85-2.66-.38-.96-.57-1.98-.57-3.07,0-1.96.63-4.23,1.89-6.81.39-.8,1.06-1.99,2-3.57,2.09-2.61,4.27-4.8,6.55-6.59,2.6-2.01,5.4-3.54,8.41-4.58.48-.1,1.15-.21,2.01-.35.86-.14,1.53-.2,2.02-.2.74,0,1.41.11,2.01.32.61.21,1.12.58,1.53,1.09.19.3.51.56.97.78,1.26.6,1.95.94,2.06,1.04.37.35.68.77.93,1.27.25.49.38,1,.38,1.52,0,.45-.09.85-.27,1.23-.46,1.21-1.01,2.22-1.66,3.04-.8.99-1.81,1.75-3.03,2.27-.32.07-.59.11-.82.11-.37,0-.81-.09-1.31-.27-.81-.29-1.26-.44-1.35-.47"/>
    </g>
  </g>
</svg>